M48
;Layer_Color=9474304
;FILE_FORMAT=2:5
INCH,LZ
;TYPE=PLATED
T1F00S00C0.01000
T2F00S00C0.03150
T3F00S00C0.04000
T4F00S00C0.04094
T5F00S00C0.05197
;TYPE=NON_PLATED
T6F00S00C0.11929
%
T01
X03149Y02939
X03375Y02955
Y0283
X0293Y0288
Y0291
Y0294
Y0297
Y03
Y0303
Y0306
X029Y03045
Y03015
Y02985
Y02955
Y02925
Y02895
Y03075
X02685Y02925
X02655
X02625
X02595
X02565
X02575Y02895
X0261
X02645
X02675
X02705
X0244Y02905
X02415Y03115
X023Y03135
X02295Y0354
X02262Y03521
X0214748
X0239537Y036
X02483
X02547Y03555
X0257Y03498
X0260745Y0336655
X02704Y03283
X02785Y03286
X02817Y03339
X02867Y03361
X02912Y03349
X02937Y03433
X02906Y03526
X02999Y03497
X03104Y0352852
X0302Y0363
X03016Y03363
X02966Y03245
X02815Y031735
X0277Y03413
X02822Y03465
X0274Y0363
X02678Y03609
X02445Y03402
X03161Y03389
X03174Y03446
X0331Y03534
X03409Y03655
X0319848Y0365248
X03162Y03212
X03279Y03128
X03385Y0326
X0349Y03396
T02
X03535Y03265
Y03365
Y03465
X03435
X03535Y03565
T03
X02065Y0296
Y0307811
X0218311
Y0296
X02594Y02776
X02694
X02794
X02894
X02994
X03094
X0218311Y0319622
X02065
Y0331433
Y0343244
X0218311
Y0331433
T04
X036Y02825
Y0300177
T05
X0350157Y0277539
Y0305138
T06
X0189492Y0304504
Y033474
M30
