G04 Layer_Color=65535*
%FSLAX25Y25*%
%MOIN*%
G70*
G01*
G75*
%ADD21C,0.01000*%
%ADD34C,0.00984*%
%ADD35C,0.00787*%
%ADD36C,0.00500*%
G36*
X195791Y275365D02*
X195828D01*
X195920Y275356D01*
X196017Y275347D01*
X196119Y275328D01*
X196216Y275301D01*
X196258Y275287D01*
X196299Y275268D01*
X196304D01*
X196309Y275264D01*
X196332Y275250D01*
X196369Y275232D01*
X196410Y275204D01*
X196461Y275167D01*
X196507Y275125D01*
X196549Y275074D01*
X196586Y275024D01*
X196590Y275014D01*
X196599Y274996D01*
X196613Y274954D01*
X196618Y274931D01*
X196627Y274899D01*
X196636Y274867D01*
X196641Y274825D01*
X196650Y274779D01*
X196655Y274728D01*
X196660Y274672D01*
X196664Y274612D01*
X196669Y274548D01*
Y274474D01*
X196660Y273758D01*
Y273753D01*
Y273744D01*
Y273730D01*
Y273707D01*
Y273651D01*
X196664Y273587D01*
Y273513D01*
X196674Y273439D01*
X196678Y273365D01*
X196687Y273305D01*
Y273300D01*
X196692Y273282D01*
X196701Y273250D01*
X196710Y273213D01*
X196729Y273166D01*
X196747Y273115D01*
X196771Y273060D01*
X196798Y273000D01*
X196193D01*
Y273005D01*
X196188Y273009D01*
X196184Y273028D01*
X196175Y273046D01*
X196165Y273069D01*
X196156Y273102D01*
X196147Y273139D01*
X196133Y273180D01*
Y273185D01*
X196128Y273189D01*
X196124Y273208D01*
X196114Y273231D01*
X196110Y273250D01*
X196101Y273245D01*
X196082Y273226D01*
X196050Y273199D01*
X196008Y273166D01*
X195957Y273129D01*
X195902Y273088D01*
X195837Y273055D01*
X195773Y273023D01*
X195763Y273019D01*
X195740Y273014D01*
X195703Y273000D01*
X195657Y272986D01*
X195602Y272972D01*
X195537Y272963D01*
X195463Y272954D01*
X195389Y272949D01*
X195357D01*
X195329Y272954D01*
X195301D01*
X195264Y272958D01*
X195186Y272972D01*
X195093Y272995D01*
X195001Y273028D01*
X194909Y273074D01*
X194825Y273139D01*
Y273143D01*
X194816Y273148D01*
X194793Y273176D01*
X194761Y273217D01*
X194724Y273273D01*
X194687Y273342D01*
X194655Y273425D01*
X194631Y273522D01*
X194627Y273573D01*
X194622Y273628D01*
Y273638D01*
Y273661D01*
X194627Y273698D01*
X194636Y273744D01*
X194645Y273799D01*
X194659Y273855D01*
X194682Y273915D01*
X194715Y273975D01*
X194719Y273984D01*
X194733Y274003D01*
X194752Y274030D01*
X194784Y274063D01*
X194816Y274100D01*
X194862Y274141D01*
X194913Y274178D01*
X194973Y274210D01*
X194983Y274215D01*
X195006Y274224D01*
X195043Y274238D01*
X195098Y274261D01*
X195167Y274284D01*
X195250Y274307D01*
X195352Y274331D01*
X195463Y274354D01*
X195468D01*
X195482Y274358D01*
X195505Y274363D01*
X195532Y274367D01*
X195569Y274372D01*
X195611Y274381D01*
X195703Y274405D01*
X195800Y274428D01*
X195902Y274451D01*
X195990Y274478D01*
X196031Y274492D01*
X196064Y274506D01*
Y274566D01*
Y274575D01*
Y274594D01*
X196059Y274626D01*
X196054Y274668D01*
X196040Y274709D01*
X196027Y274751D01*
X196004Y274788D01*
X195971Y274820D01*
X195967Y274825D01*
X195953Y274834D01*
X195930Y274843D01*
X195897Y274862D01*
X195851Y274876D01*
X195796Y274885D01*
X195726Y274894D01*
X195643Y274899D01*
X195615D01*
X195588Y274894D01*
X195551Y274890D01*
X195509Y274880D01*
X195463Y274871D01*
X195421Y274853D01*
X195385Y274830D01*
X195380Y274825D01*
X195371Y274816D01*
X195352Y274802D01*
X195334Y274779D01*
X195306Y274746D01*
X195283Y274705D01*
X195260Y274659D01*
X195237Y274603D01*
X194687Y274705D01*
Y274709D01*
X194692Y274719D01*
X194696Y274737D01*
X194705Y274760D01*
X194715Y274788D01*
X194728Y274820D01*
X194761Y274894D01*
X194807Y274973D01*
X194862Y275056D01*
X194927Y275134D01*
X195006Y275204D01*
X195010D01*
X195015Y275213D01*
X195029Y275218D01*
X195047Y275232D01*
X195075Y275241D01*
X195103Y275255D01*
X195140Y275273D01*
X195177Y275287D01*
X195223Y275301D01*
X195274Y275319D01*
X195329Y275333D01*
X195394Y275342D01*
X195458Y275356D01*
X195532Y275361D01*
X195606Y275370D01*
X195759D01*
X195791Y275365D01*
D02*
G37*
G36*
X199621Y273000D02*
X199007D01*
Y276197D01*
X199621D01*
Y273000D01*
D02*
G37*
G36*
X186782D02*
X186168D01*
Y275315D01*
X186163Y275310D01*
X186154Y275301D01*
X186135Y275287D01*
X186108Y275264D01*
X186075Y275236D01*
X186038Y275208D01*
X185992Y275176D01*
X185941Y275139D01*
X185886Y275102D01*
X185826Y275065D01*
X185761Y275024D01*
X185692Y274987D01*
X185544Y274917D01*
X185378Y274853D01*
Y275407D01*
X185382D01*
X185387Y275412D01*
X185401Y275416D01*
X185419Y275421D01*
X185465Y275444D01*
X185530Y275472D01*
X185609Y275509D01*
X185696Y275559D01*
X185793Y275624D01*
X185895Y275698D01*
X185900Y275703D01*
X185909Y275707D01*
X185923Y275721D01*
X185941Y275740D01*
X185992Y275786D01*
X186047Y275846D01*
X186112Y275920D01*
X186177Y276012D01*
X186237Y276109D01*
X186283Y276216D01*
X186782D01*
Y273000D01*
D02*
G37*
G36*
X189499Y274178D02*
X189896D01*
Y273642D01*
X189499D01*
Y273000D01*
X188907D01*
Y273642D01*
X187595D01*
Y274173D01*
X188981Y276211D01*
X189499D01*
Y274178D01*
D02*
G37*
G36*
X222370Y275365D02*
X222407D01*
X222499Y275356D01*
X222596Y275347D01*
X222698Y275328D01*
X222795Y275301D01*
X222836Y275287D01*
X222878Y275268D01*
X222883D01*
X222887Y275264D01*
X222910Y275250D01*
X222947Y275232D01*
X222989Y275204D01*
X223040Y275167D01*
X223086Y275125D01*
X223128Y275074D01*
X223165Y275024D01*
X223169Y275014D01*
X223178Y274996D01*
X223192Y274954D01*
X223197Y274931D01*
X223206Y274899D01*
X223215Y274867D01*
X223220Y274825D01*
X223229Y274779D01*
X223234Y274728D01*
X223238Y274672D01*
X223243Y274612D01*
X223248Y274548D01*
Y274474D01*
X223238Y273758D01*
Y273753D01*
Y273744D01*
Y273730D01*
Y273707D01*
Y273651D01*
X223243Y273587D01*
Y273513D01*
X223252Y273439D01*
X223257Y273365D01*
X223266Y273305D01*
Y273300D01*
X223271Y273282D01*
X223280Y273250D01*
X223289Y273213D01*
X223308Y273166D01*
X223326Y273115D01*
X223349Y273060D01*
X223377Y273000D01*
X222772D01*
Y273005D01*
X222767Y273009D01*
X222763Y273028D01*
X222753Y273046D01*
X222744Y273069D01*
X222735Y273102D01*
X222726Y273139D01*
X222712Y273180D01*
Y273185D01*
X222707Y273189D01*
X222703Y273208D01*
X222693Y273231D01*
X222689Y273250D01*
X222679Y273245D01*
X222661Y273226D01*
X222629Y273199D01*
X222587Y273166D01*
X222536Y273129D01*
X222481Y273088D01*
X222416Y273055D01*
X222351Y273023D01*
X222342Y273019D01*
X222319Y273014D01*
X222282Y273000D01*
X222236Y272986D01*
X222181Y272972D01*
X222116Y272963D01*
X222042Y272954D01*
X221968Y272949D01*
X221936D01*
X221908Y272954D01*
X221880D01*
X221843Y272958D01*
X221765Y272972D01*
X221672Y272995D01*
X221580Y273028D01*
X221487Y273074D01*
X221404Y273139D01*
Y273143D01*
X221395Y273148D01*
X221372Y273176D01*
X221340Y273217D01*
X221303Y273273D01*
X221266Y273342D01*
X221233Y273425D01*
X221210Y273522D01*
X221206Y273573D01*
X221201Y273628D01*
Y273638D01*
Y273661D01*
X221206Y273698D01*
X221215Y273744D01*
X221224Y273799D01*
X221238Y273855D01*
X221261Y273915D01*
X221293Y273975D01*
X221298Y273984D01*
X221312Y274003D01*
X221330Y274030D01*
X221363Y274063D01*
X221395Y274100D01*
X221441Y274141D01*
X221492Y274178D01*
X221552Y274210D01*
X221561Y274215D01*
X221585Y274224D01*
X221621Y274238D01*
X221677Y274261D01*
X221746Y274284D01*
X221829Y274307D01*
X221931Y274331D01*
X222042Y274354D01*
X222046D01*
X222060Y274358D01*
X222083Y274363D01*
X222111Y274367D01*
X222148Y274372D01*
X222190Y274381D01*
X222282Y274405D01*
X222379Y274428D01*
X222481Y274451D01*
X222569Y274478D01*
X222610Y274492D01*
X222642Y274506D01*
Y274566D01*
Y274575D01*
Y274594D01*
X222638Y274626D01*
X222633Y274668D01*
X222619Y274709D01*
X222605Y274751D01*
X222582Y274788D01*
X222550Y274820D01*
X222546Y274825D01*
X222532Y274834D01*
X222509Y274843D01*
X222476Y274862D01*
X222430Y274876D01*
X222375Y274885D01*
X222305Y274894D01*
X222222Y274899D01*
X222194D01*
X222167Y274894D01*
X222130Y274890D01*
X222088Y274880D01*
X222042Y274871D01*
X222000Y274853D01*
X221963Y274830D01*
X221959Y274825D01*
X221950Y274816D01*
X221931Y274802D01*
X221913Y274779D01*
X221885Y274746D01*
X221862Y274705D01*
X221839Y274659D01*
X221815Y274603D01*
X221266Y274705D01*
Y274709D01*
X221270Y274719D01*
X221275Y274737D01*
X221284Y274760D01*
X221293Y274788D01*
X221307Y274820D01*
X221340Y274894D01*
X221386Y274973D01*
X221441Y275056D01*
X221506Y275134D01*
X221585Y275204D01*
X221589D01*
X221594Y275213D01*
X221608Y275218D01*
X221626Y275232D01*
X221654Y275241D01*
X221681Y275255D01*
X221719Y275273D01*
X221755Y275287D01*
X221802Y275301D01*
X221852Y275319D01*
X221908Y275333D01*
X221973Y275342D01*
X222037Y275356D01*
X222111Y275361D01*
X222185Y275370D01*
X222338D01*
X222370Y275365D01*
D02*
G37*
G36*
X211938D02*
X211975D01*
X212067Y275356D01*
X212164Y275347D01*
X212266Y275328D01*
X212363Y275301D01*
X212405Y275287D01*
X212446Y275268D01*
X212451D01*
X212455Y275264D01*
X212478Y275250D01*
X212515Y275232D01*
X212557Y275204D01*
X212608Y275167D01*
X212654Y275125D01*
X212696Y275074D01*
X212733Y275024D01*
X212737Y275014D01*
X212746Y274996D01*
X212760Y274954D01*
X212765Y274931D01*
X212774Y274899D01*
X212783Y274867D01*
X212788Y274825D01*
X212797Y274779D01*
X212802Y274728D01*
X212807Y274672D01*
X212811Y274612D01*
X212816Y274548D01*
Y274474D01*
X212807Y273758D01*
Y273753D01*
Y273744D01*
Y273730D01*
Y273707D01*
Y273651D01*
X212811Y273587D01*
Y273513D01*
X212820Y273439D01*
X212825Y273365D01*
X212834Y273305D01*
Y273300D01*
X212839Y273282D01*
X212848Y273250D01*
X212857Y273213D01*
X212876Y273166D01*
X212894Y273115D01*
X212917Y273060D01*
X212945Y273000D01*
X212340D01*
Y273005D01*
X212335Y273009D01*
X212331Y273028D01*
X212321Y273046D01*
X212312Y273069D01*
X212303Y273102D01*
X212294Y273139D01*
X212280Y273180D01*
Y273185D01*
X212275Y273189D01*
X212271Y273208D01*
X212261Y273231D01*
X212257Y273250D01*
X212247Y273245D01*
X212229Y273226D01*
X212197Y273199D01*
X212155Y273166D01*
X212104Y273129D01*
X212049Y273088D01*
X211984Y273055D01*
X211919Y273023D01*
X211910Y273019D01*
X211887Y273014D01*
X211850Y273000D01*
X211804Y272986D01*
X211749Y272972D01*
X211684Y272963D01*
X211610Y272954D01*
X211536Y272949D01*
X211504D01*
X211476Y272954D01*
X211448D01*
X211411Y272958D01*
X211333Y272972D01*
X211240Y272995D01*
X211148Y273028D01*
X211055Y273074D01*
X210972Y273139D01*
Y273143D01*
X210963Y273148D01*
X210940Y273176D01*
X210908Y273217D01*
X210871Y273273D01*
X210834Y273342D01*
X210801Y273425D01*
X210778Y273522D01*
X210774Y273573D01*
X210769Y273628D01*
Y273638D01*
Y273661D01*
X210774Y273698D01*
X210783Y273744D01*
X210792Y273799D01*
X210806Y273855D01*
X210829Y273915D01*
X210861Y273975D01*
X210866Y273984D01*
X210880Y274003D01*
X210898Y274030D01*
X210931Y274063D01*
X210963Y274100D01*
X211009Y274141D01*
X211060Y274178D01*
X211120Y274210D01*
X211129Y274215D01*
X211153Y274224D01*
X211190Y274238D01*
X211245Y274261D01*
X211314Y274284D01*
X211397Y274307D01*
X211499Y274331D01*
X211610Y274354D01*
X211614D01*
X211628Y274358D01*
X211651Y274363D01*
X211679Y274367D01*
X211716Y274372D01*
X211758Y274381D01*
X211850Y274405D01*
X211947Y274428D01*
X212049Y274451D01*
X212137Y274478D01*
X212178Y274492D01*
X212210Y274506D01*
Y274566D01*
Y274575D01*
Y274594D01*
X212206Y274626D01*
X212201Y274668D01*
X212187Y274709D01*
X212174Y274751D01*
X212151Y274788D01*
X212118Y274820D01*
X212113Y274825D01*
X212100Y274834D01*
X212076Y274843D01*
X212044Y274862D01*
X211998Y274876D01*
X211943Y274885D01*
X211873Y274894D01*
X211790Y274899D01*
X211762D01*
X211735Y274894D01*
X211698Y274890D01*
X211656Y274880D01*
X211610Y274871D01*
X211568Y274853D01*
X211531Y274830D01*
X211527Y274825D01*
X211518Y274816D01*
X211499Y274802D01*
X211481Y274779D01*
X211453Y274746D01*
X211430Y274705D01*
X211407Y274659D01*
X211384Y274603D01*
X210834Y274705D01*
Y274709D01*
X210838Y274719D01*
X210843Y274737D01*
X210852Y274760D01*
X210861Y274788D01*
X210875Y274820D01*
X210908Y274894D01*
X210954Y274973D01*
X211009Y275056D01*
X211074Y275134D01*
X211153Y275204D01*
X211157D01*
X211162Y275213D01*
X211176Y275218D01*
X211194Y275232D01*
X211222Y275241D01*
X211250Y275255D01*
X211286Y275273D01*
X211323Y275287D01*
X211370Y275301D01*
X211420Y275319D01*
X211476Y275333D01*
X211541Y275342D01*
X211605Y275356D01*
X211679Y275361D01*
X211753Y275370D01*
X211906D01*
X211938Y275365D01*
D02*
G37*
G36*
X205479D02*
X205516D01*
X205609Y275356D01*
X205706Y275347D01*
X205807Y275328D01*
X205904Y275301D01*
X205946Y275287D01*
X205987Y275268D01*
X205992D01*
X205997Y275264D01*
X206020Y275250D01*
X206057Y275232D01*
X206098Y275204D01*
X206149Y275167D01*
X206195Y275125D01*
X206237Y275074D01*
X206274Y275024D01*
X206278Y275014D01*
X206288Y274996D01*
X206301Y274954D01*
X206306Y274931D01*
X206315Y274899D01*
X206325Y274867D01*
X206329Y274825D01*
X206339Y274779D01*
X206343Y274728D01*
X206348Y274672D01*
X206352Y274612D01*
X206357Y274548D01*
Y274474D01*
X206348Y273758D01*
Y273753D01*
Y273744D01*
Y273730D01*
Y273707D01*
Y273651D01*
X206352Y273587D01*
Y273513D01*
X206362Y273439D01*
X206366Y273365D01*
X206376Y273305D01*
Y273300D01*
X206380Y273282D01*
X206389Y273250D01*
X206399Y273213D01*
X206417Y273166D01*
X206435Y273115D01*
X206459Y273060D01*
X206486Y273000D01*
X205881D01*
Y273005D01*
X205876Y273009D01*
X205872Y273028D01*
X205863Y273046D01*
X205853Y273069D01*
X205844Y273102D01*
X205835Y273139D01*
X205821Y273180D01*
Y273185D01*
X205816Y273189D01*
X205812Y273208D01*
X205803Y273231D01*
X205798Y273250D01*
X205789Y273245D01*
X205770Y273226D01*
X205738Y273199D01*
X205696Y273166D01*
X205645Y273129D01*
X205590Y273088D01*
X205525Y273055D01*
X205461Y273023D01*
X205451Y273019D01*
X205428Y273014D01*
X205391Y273000D01*
X205345Y272986D01*
X205290Y272972D01*
X205225Y272963D01*
X205151Y272954D01*
X205077Y272949D01*
X205045D01*
X205017Y272954D01*
X204990D01*
X204953Y272958D01*
X204874Y272972D01*
X204782Y272995D01*
X204689Y273028D01*
X204597Y273074D01*
X204514Y273139D01*
Y273143D01*
X204504Y273148D01*
X204481Y273176D01*
X204449Y273217D01*
X204412Y273273D01*
X204375Y273342D01*
X204343Y273425D01*
X204320Y273522D01*
X204315Y273573D01*
X204310Y273628D01*
Y273638D01*
Y273661D01*
X204315Y273698D01*
X204324Y273744D01*
X204333Y273799D01*
X204347Y273855D01*
X204370Y273915D01*
X204403Y273975D01*
X204407Y273984D01*
X204421Y274003D01*
X204440Y274030D01*
X204472Y274063D01*
X204504Y274100D01*
X204551Y274141D01*
X204601Y274178D01*
X204661Y274210D01*
X204671Y274215D01*
X204694Y274224D01*
X204731Y274238D01*
X204786Y274261D01*
X204855Y274284D01*
X204939Y274307D01*
X205040Y274331D01*
X205151Y274354D01*
X205156D01*
X205170Y274358D01*
X205193Y274363D01*
X205221Y274367D01*
X205257Y274372D01*
X205299Y274381D01*
X205391Y274405D01*
X205488Y274428D01*
X205590Y274451D01*
X205678Y274478D01*
X205719Y274492D01*
X205752Y274506D01*
Y274566D01*
Y274575D01*
Y274594D01*
X205747Y274626D01*
X205743Y274668D01*
X205729Y274709D01*
X205715Y274751D01*
X205692Y274788D01*
X205659Y274820D01*
X205655Y274825D01*
X205641Y274834D01*
X205618Y274843D01*
X205585Y274862D01*
X205539Y274876D01*
X205484Y274885D01*
X205415Y274894D01*
X205331Y274899D01*
X205304D01*
X205276Y274894D01*
X205239Y274890D01*
X205197Y274880D01*
X205151Y274871D01*
X205110Y274853D01*
X205073Y274830D01*
X205068Y274825D01*
X205059Y274816D01*
X205040Y274802D01*
X205022Y274779D01*
X204994Y274746D01*
X204971Y274705D01*
X204948Y274659D01*
X204925Y274603D01*
X204375Y274705D01*
Y274709D01*
X204380Y274719D01*
X204384Y274737D01*
X204394Y274760D01*
X204403Y274788D01*
X204417Y274820D01*
X204449Y274894D01*
X204495Y274973D01*
X204551Y275056D01*
X204615Y275134D01*
X204694Y275204D01*
X204698D01*
X204703Y275213D01*
X204717Y275218D01*
X204735Y275232D01*
X204763Y275241D01*
X204791Y275255D01*
X204828Y275273D01*
X204865Y275287D01*
X204911Y275301D01*
X204962Y275319D01*
X205017Y275333D01*
X205082Y275342D01*
X205147Y275356D01*
X205221Y275361D01*
X205294Y275370D01*
X205447D01*
X205479Y275365D01*
D02*
G37*
G36*
X219247Y273000D02*
X218632D01*
Y275319D01*
X219247D01*
Y273000D01*
D02*
G37*
G36*
X216512Y275014D02*
X216516Y275019D01*
X216526Y275028D01*
X216544Y275047D01*
X216563Y275070D01*
X216595Y275097D01*
X216627Y275125D01*
X216669Y275157D01*
X216710Y275195D01*
X216761Y275227D01*
X216817Y275259D01*
X216937Y275315D01*
X217002Y275338D01*
X217071Y275356D01*
X217145Y275365D01*
X217219Y275370D01*
X217256D01*
X217297Y275365D01*
X217348Y275361D01*
X217408Y275352D01*
X217468Y275333D01*
X217537Y275315D01*
X217602Y275287D01*
X217611Y275282D01*
X217630Y275273D01*
X217662Y275255D01*
X217699Y275232D01*
X217741Y275204D01*
X217782Y275171D01*
X217824Y275130D01*
X217861Y275088D01*
X217865Y275084D01*
X217875Y275065D01*
X217888Y275042D01*
X217907Y275010D01*
X217930Y274968D01*
X217949Y274922D01*
X217967Y274871D01*
X217981Y274816D01*
Y274811D01*
X217986Y274788D01*
X217990Y274751D01*
X217999Y274705D01*
X218004Y274640D01*
X218009Y274562D01*
X218013Y274469D01*
Y274358D01*
Y273000D01*
X217399D01*
Y274220D01*
Y274224D01*
Y274234D01*
Y274252D01*
Y274280D01*
Y274307D01*
Y274340D01*
X217394Y274414D01*
X217389Y274492D01*
X217385Y274571D01*
X217376Y274636D01*
X217366Y274659D01*
X217362Y274682D01*
Y274686D01*
X217353Y274700D01*
X217343Y274714D01*
X217334Y274737D01*
X217292Y274788D01*
X217269Y274816D01*
X217237Y274839D01*
X217232Y274843D01*
X217223Y274848D01*
X217200Y274857D01*
X217177Y274871D01*
X217145Y274880D01*
X217108Y274890D01*
X217061Y274894D01*
X217015Y274899D01*
X216988D01*
X216960Y274894D01*
X216923Y274890D01*
X216881Y274880D01*
X216835Y274867D01*
X216789Y274848D01*
X216743Y274820D01*
X216738Y274816D01*
X216724Y274806D01*
X216701Y274788D01*
X216678Y274765D01*
X216646Y274732D01*
X216618Y274695D01*
X216590Y274649D01*
X216567Y274599D01*
Y274594D01*
X216558Y274571D01*
X216549Y274538D01*
X216540Y274488D01*
X216530Y274428D01*
X216521Y274349D01*
X216516Y274261D01*
X216512Y274160D01*
Y273000D01*
X215897D01*
Y276197D01*
X216512D01*
Y275014D01*
D02*
G37*
G36*
X181377Y276211D02*
X181418Y276206D01*
X181464Y276202D01*
X181515Y276192D01*
X181571Y276183D01*
X181691Y276151D01*
X181811Y276105D01*
X181876Y276077D01*
X181931Y276045D01*
X181991Y276003D01*
X182042Y275957D01*
X182046Y275952D01*
X182056Y275948D01*
X182065Y275929D01*
X182083Y275911D01*
X182107Y275887D01*
X182130Y275855D01*
X182153Y275823D01*
X182181Y275781D01*
X182227Y275689D01*
X182273Y275583D01*
X182291Y275522D01*
X182301Y275458D01*
X182310Y275389D01*
X182315Y275319D01*
Y275310D01*
Y275282D01*
X182310Y275241D01*
X182305Y275190D01*
X182296Y275125D01*
X182282Y275056D01*
X182264Y274982D01*
X182236Y274908D01*
X182231Y274899D01*
X182222Y274876D01*
X182204Y274834D01*
X182176Y274783D01*
X182144Y274723D01*
X182102Y274654D01*
X182051Y274580D01*
X181991Y274501D01*
X181986Y274497D01*
X181968Y274474D01*
X181940Y274441D01*
X181899Y274395D01*
X181843Y274340D01*
X181774Y274266D01*
X181691Y274187D01*
X181589Y274090D01*
X181585Y274086D01*
X181575Y274081D01*
X181561Y274067D01*
X181543Y274049D01*
X181492Y274003D01*
X181432Y273947D01*
X181372Y273887D01*
X181312Y273827D01*
X181256Y273776D01*
X181238Y273753D01*
X181220Y273735D01*
X181215Y273730D01*
X181206Y273721D01*
X181192Y273702D01*
X181173Y273679D01*
X181132Y273628D01*
X181095Y273568D01*
X182315D01*
Y273000D01*
X180166D01*
Y273005D01*
Y273014D01*
X180171Y273032D01*
X180175Y273055D01*
X180180Y273083D01*
X180185Y273115D01*
X180203Y273199D01*
X180231Y273291D01*
X180268Y273393D01*
X180314Y273504D01*
X180374Y273610D01*
Y273615D01*
X180383Y273624D01*
X180393Y273642D01*
X180411Y273661D01*
X180429Y273693D01*
X180457Y273725D01*
X180490Y273767D01*
X180527Y273813D01*
X180568Y273869D01*
X180619Y273924D01*
X180674Y273989D01*
X180739Y274058D01*
X180808Y274127D01*
X180887Y274206D01*
X180970Y274289D01*
X181062Y274377D01*
X181067Y274381D01*
X181081Y274395D01*
X181099Y274414D01*
X181127Y274441D01*
X181164Y274469D01*
X181201Y274506D01*
X181284Y274589D01*
X181367Y274677D01*
X181451Y274765D01*
X181488Y274802D01*
X181525Y274843D01*
X181552Y274876D01*
X181571Y274903D01*
X181575Y274913D01*
X181589Y274936D01*
X181612Y274973D01*
X181635Y275024D01*
X181658Y275079D01*
X181682Y275144D01*
X181695Y275208D01*
X181700Y275278D01*
Y275282D01*
Y275287D01*
Y275310D01*
X181695Y275352D01*
X181686Y275398D01*
X181672Y275449D01*
X181654Y275499D01*
X181626Y275550D01*
X181589Y275596D01*
X181585Y275601D01*
X181571Y275615D01*
X181543Y275633D01*
X181511Y275652D01*
X181464Y275670D01*
X181414Y275689D01*
X181353Y275703D01*
X181284Y275707D01*
X181252D01*
X181215Y275703D01*
X181173Y275693D01*
X181123Y275680D01*
X181072Y275657D01*
X181021Y275629D01*
X180975Y275592D01*
X180970Y275587D01*
X180956Y275569D01*
X180938Y275541D01*
X180919Y275499D01*
X180896Y275449D01*
X180878Y275379D01*
X180859Y275301D01*
X180850Y275208D01*
X180240Y275268D01*
Y275273D01*
X180245Y275291D01*
Y275315D01*
X180254Y275352D01*
X180259Y275393D01*
X180272Y275439D01*
X180286Y275490D01*
X180300Y275550D01*
X180346Y275666D01*
X180402Y275786D01*
X180439Y275846D01*
X180480Y275901D01*
X180527Y275948D01*
X180577Y275994D01*
X180582Y275998D01*
X180591Y276003D01*
X180605Y276012D01*
X180628Y276031D01*
X180656Y276045D01*
X180693Y276063D01*
X180730Y276086D01*
X180776Y276105D01*
X180827Y276128D01*
X180882Y276146D01*
X181002Y276183D01*
X181146Y276206D01*
X181220Y276211D01*
X181298Y276216D01*
X181344D01*
X181377Y276211D01*
D02*
G37*
G36*
X198415Y275365D02*
X198466Y275356D01*
X198531Y275342D01*
X198600Y275319D01*
X198669Y275291D01*
X198743Y275250D01*
X198549Y274719D01*
X198545Y274723D01*
X198521Y274732D01*
X198494Y274751D01*
X198457Y274769D01*
X198411Y274788D01*
X198364Y274806D01*
X198314Y274816D01*
X198263Y274820D01*
X198244D01*
X198216Y274816D01*
X198189Y274811D01*
X198156Y274802D01*
X198119Y274788D01*
X198083Y274769D01*
X198046Y274746D01*
X198041Y274742D01*
X198032Y274732D01*
X198013Y274714D01*
X197995Y274686D01*
X197972Y274654D01*
X197949Y274608D01*
X197925Y274552D01*
X197907Y274488D01*
Y274478D01*
X197902Y274465D01*
X197898Y274451D01*
Y274428D01*
X197893Y274400D01*
X197889Y274363D01*
X197884Y274321D01*
X197879Y274275D01*
X197875Y274215D01*
X197870Y274155D01*
Y274081D01*
X197865Y274003D01*
X197861Y273915D01*
Y273818D01*
Y273711D01*
Y273000D01*
X197246D01*
Y275319D01*
X197815D01*
Y274991D01*
X197819Y274996D01*
X197838Y275024D01*
X197865Y275065D01*
X197902Y275116D01*
X197939Y275167D01*
X197985Y275218D01*
X198027Y275264D01*
X198073Y275296D01*
X198078Y275301D01*
X198092Y275310D01*
X198119Y275319D01*
X198152Y275333D01*
X198189Y275347D01*
X198235Y275361D01*
X198281Y275365D01*
X198337Y275370D01*
X198374D01*
X198415Y275365D01*
D02*
G37*
G36*
X202984Y274340D02*
Y273000D01*
X202338D01*
Y274344D01*
X201169Y276197D01*
X201922D01*
X202675Y274931D01*
X203409Y276197D01*
X204153D01*
X202984Y274340D01*
D02*
G37*
G36*
X219247Y275629D02*
X218632D01*
Y276197D01*
X219247D01*
Y275629D01*
D02*
G37*
G36*
X209651Y275365D02*
X209711Y275356D01*
X209780Y275342D01*
X209850Y275324D01*
X209924Y275301D01*
X209993Y275264D01*
X210002Y275259D01*
X210021Y275245D01*
X210053Y275222D01*
X210095Y275190D01*
X210136Y275144D01*
X210182Y275093D01*
X210224Y275033D01*
X210261Y274959D01*
X210265Y274954D01*
X210270Y274931D01*
X210279Y274894D01*
X210293Y274843D01*
X210307Y274779D01*
X210316Y274695D01*
X210321Y274594D01*
X210326Y274478D01*
Y273000D01*
X209711D01*
Y274321D01*
Y274326D01*
Y274335D01*
Y274354D01*
Y274377D01*
X209706Y274437D01*
X209702Y274506D01*
X209697Y274580D01*
X209683Y274654D01*
X209669Y274719D01*
X209656Y274742D01*
X209646Y274765D01*
X209642Y274769D01*
X209628Y274788D01*
X209610Y274806D01*
X209582Y274834D01*
X209545Y274857D01*
X209499Y274880D01*
X209443Y274894D01*
X209383Y274899D01*
X209360D01*
X209337Y274894D01*
X209304Y274890D01*
X209268Y274880D01*
X209226Y274867D01*
X209180Y274848D01*
X209138Y274820D01*
X209134Y274816D01*
X209120Y274806D01*
X209101Y274788D01*
X209078Y274760D01*
X209050Y274728D01*
X209023Y274691D01*
X209000Y274645D01*
X208977Y274589D01*
Y274580D01*
X208967Y274562D01*
X208963Y274525D01*
X208953Y274474D01*
X208944Y274405D01*
X208940Y274321D01*
X208930Y274224D01*
Y274109D01*
Y273000D01*
X208316D01*
Y274266D01*
Y274271D01*
Y274280D01*
Y274298D01*
Y274321D01*
Y274377D01*
X208311Y274446D01*
X208307Y274520D01*
X208302Y274589D01*
X208293Y274654D01*
X208283Y274682D01*
X208279Y274700D01*
Y274705D01*
X208274Y274719D01*
X208265Y274737D01*
X208256Y274756D01*
X208224Y274806D01*
X208200Y274830D01*
X208177Y274848D01*
X208173Y274853D01*
X208163Y274857D01*
X208150Y274867D01*
X208131Y274876D01*
X208103Y274885D01*
X208071Y274890D01*
X208034Y274899D01*
X207969D01*
X207942Y274894D01*
X207909Y274890D01*
X207868Y274880D01*
X207826Y274867D01*
X207785Y274848D01*
X207738Y274820D01*
X207734Y274816D01*
X207720Y274806D01*
X207701Y274788D01*
X207678Y274765D01*
X207651Y274732D01*
X207623Y274695D01*
X207600Y274649D01*
X207577Y274599D01*
Y274594D01*
X207567Y274571D01*
X207563Y274534D01*
X207554Y274488D01*
X207544Y274418D01*
X207540Y274340D01*
X207530Y274238D01*
Y274123D01*
Y273000D01*
X206916D01*
Y275319D01*
X207480D01*
Y275001D01*
X207484Y275005D01*
X207493Y275014D01*
X207512Y275033D01*
X207535Y275061D01*
X207563Y275088D01*
X207595Y275116D01*
X207637Y275153D01*
X207683Y275185D01*
X207734Y275218D01*
X207789Y275255D01*
X207909Y275315D01*
X207979Y275338D01*
X208048Y275356D01*
X208122Y275365D01*
X208200Y275370D01*
X208237D01*
X208279Y275365D01*
X208330Y275361D01*
X208390Y275347D01*
X208454Y275333D01*
X208519Y275310D01*
X208584Y275278D01*
X208593Y275273D01*
X208611Y275259D01*
X208644Y275241D01*
X208681Y275208D01*
X208722Y275167D01*
X208769Y275121D01*
X208815Y275061D01*
X208856Y274996D01*
X208866Y275005D01*
X208884Y275028D01*
X208912Y275061D01*
X208953Y275102D01*
X209004Y275148D01*
X209060Y275195D01*
X209120Y275241D01*
X209184Y275278D01*
X209194Y275282D01*
X209217Y275291D01*
X209254Y275305D01*
X209300Y275324D01*
X209355Y275342D01*
X209420Y275356D01*
X209489Y275365D01*
X209563Y275370D01*
X209605D01*
X209651Y275365D01*
D02*
G37*
G36*
X177246Y276257D02*
X177283D01*
X177330Y276253D01*
X177380Y276243D01*
X177436Y276234D01*
X177560Y276211D01*
X177699Y276169D01*
X177847Y276118D01*
X177921Y276081D01*
X177995Y276045D01*
X177999Y276040D01*
X178013Y276035D01*
X178032Y276022D01*
X178059Y276003D01*
X178092Y275980D01*
X178133Y275957D01*
X178175Y275924D01*
X178221Y275887D01*
X178272Y275846D01*
X178323Y275800D01*
X178425Y275693D01*
X178526Y275569D01*
X178619Y275426D01*
X178623Y275421D01*
X178628Y275407D01*
X178642Y275384D01*
X178656Y275356D01*
X178669Y275319D01*
X178692Y275278D01*
X178711Y275227D01*
X178734Y275171D01*
X178753Y275111D01*
X178776Y275047D01*
X178808Y274903D01*
X178836Y274751D01*
X178840Y274672D01*
X178845Y274589D01*
Y274585D01*
Y274571D01*
Y274548D01*
X178840Y274515D01*
Y274478D01*
X178836Y274432D01*
X178826Y274381D01*
X178817Y274321D01*
X178803Y274261D01*
X178789Y274197D01*
X178753Y274053D01*
X178697Y273905D01*
X178660Y273832D01*
X178623Y273758D01*
X178619Y273753D01*
X178614Y273739D01*
X178600Y273721D01*
X178582Y273693D01*
X178558Y273661D01*
X178531Y273619D01*
X178498Y273577D01*
X178461Y273531D01*
X178420Y273481D01*
X178374Y273434D01*
X178267Y273328D01*
X178143Y273231D01*
X178004Y273139D01*
X177999D01*
X177986Y273129D01*
X177963Y273120D01*
X177935Y273106D01*
X177898Y273088D01*
X177856Y273069D01*
X177805Y273051D01*
X177750Y273032D01*
X177690Y273009D01*
X177625Y272991D01*
X177487Y272954D01*
X177334Y272931D01*
X177256Y272926D01*
X177172Y272921D01*
X177131D01*
X177099Y272926D01*
X177057D01*
X177011Y272935D01*
X176960Y272940D01*
X176904Y272949D01*
X176840Y272958D01*
X176775Y272977D01*
X176637Y273014D01*
X176489Y273069D01*
X176410Y273102D01*
X176336Y273139D01*
X176332Y273143D01*
X176318Y273148D01*
X176299Y273162D01*
X176271Y273180D01*
X176239Y273203D01*
X176198Y273231D01*
X176156Y273263D01*
X176110Y273300D01*
X176059Y273342D01*
X176013Y273388D01*
X175907Y273494D01*
X175810Y273619D01*
X175717Y273758D01*
Y273762D01*
X175708Y273776D01*
X175699Y273799D01*
X175685Y273827D01*
X175666Y273864D01*
X175648Y273905D01*
X175629Y273956D01*
X175611Y274012D01*
X175588Y274072D01*
X175569Y274136D01*
X175532Y274275D01*
X175509Y274428D01*
X175505Y274511D01*
X175500Y274589D01*
Y274594D01*
Y274608D01*
Y274631D01*
X175505Y274663D01*
Y274705D01*
X175514Y274751D01*
X175519Y274802D01*
X175528Y274857D01*
X175542Y274922D01*
X175555Y274987D01*
X175592Y275125D01*
X175648Y275278D01*
X175685Y275352D01*
X175722Y275426D01*
X175726Y275430D01*
X175731Y275444D01*
X175745Y275463D01*
X175763Y275490D01*
X175786Y275527D01*
X175814Y275564D01*
X175847Y275606D01*
X175883Y275652D01*
X175971Y275753D01*
X176077Y275855D01*
X176202Y275957D01*
X176341Y276045D01*
X176346Y276049D01*
X176359Y276054D01*
X176382Y276063D01*
X176410Y276077D01*
X176447Y276095D01*
X176489Y276114D01*
X176540Y276132D01*
X176595Y276155D01*
X176655Y276174D01*
X176720Y276192D01*
X176858Y276229D01*
X177011Y276253D01*
X177094Y276262D01*
X177214D01*
X177246Y276257D01*
D02*
G37*
G36*
X183844Y276211D02*
X183881Y276206D01*
X183927Y276197D01*
X183973Y276188D01*
X184028Y276174D01*
X184089Y276155D01*
X184144Y276132D01*
X184204Y276109D01*
X184264Y276077D01*
X184324Y276035D01*
X184384Y275994D01*
X184440Y275943D01*
X184491Y275883D01*
X184495Y275878D01*
X184504Y275864D01*
X184518Y275841D01*
X184541Y275809D01*
X184564Y275763D01*
X184592Y275707D01*
X184620Y275647D01*
X184648Y275569D01*
X184675Y275486D01*
X184708Y275389D01*
X184731Y275282D01*
X184754Y275162D01*
X184777Y275033D01*
X184791Y274894D01*
X184800Y274742D01*
X184805Y274575D01*
Y274571D01*
Y274566D01*
Y274552D01*
Y274534D01*
Y274488D01*
X184800Y274428D01*
X184795Y274354D01*
X184786Y274266D01*
X184777Y274173D01*
X184768Y274072D01*
X184749Y273966D01*
X184726Y273855D01*
X184703Y273748D01*
X184671Y273642D01*
X184638Y273536D01*
X184592Y273439D01*
X184546Y273346D01*
X184491Y273268D01*
X184486Y273263D01*
X184477Y273254D01*
X184463Y273236D01*
X184444Y273217D01*
X184417Y273194D01*
X184384Y273166D01*
X184343Y273134D01*
X184301Y273106D01*
X184250Y273074D01*
X184200Y273042D01*
X184139Y273014D01*
X184075Y272991D01*
X184005Y272972D01*
X183927Y272954D01*
X183848Y272945D01*
X183765Y272940D01*
X183747D01*
X183719Y272945D01*
X183687D01*
X183650Y272949D01*
X183604Y272958D01*
X183553Y272968D01*
X183497Y272986D01*
X183437Y273005D01*
X183377Y273028D01*
X183312Y273055D01*
X183252Y273092D01*
X183188Y273129D01*
X183128Y273180D01*
X183068Y273231D01*
X183012Y273296D01*
X183008Y273300D01*
X182998Y273314D01*
X182984Y273337D01*
X182970Y273365D01*
X182947Y273407D01*
X182924Y273457D01*
X182897Y273522D01*
X182873Y273591D01*
X182846Y273675D01*
X182818Y273767D01*
X182795Y273873D01*
X182776Y273989D01*
X182758Y274118D01*
X182744Y274261D01*
X182735Y274414D01*
X182730Y274580D01*
Y274585D01*
Y274589D01*
Y274603D01*
Y274622D01*
Y274668D01*
X182735Y274728D01*
X182739Y274802D01*
X182749Y274890D01*
X182758Y274982D01*
X182767Y275084D01*
X182786Y275190D01*
X182804Y275296D01*
X182832Y275407D01*
X182860Y275513D01*
X182897Y275615D01*
X182938Y275712D01*
X182984Y275804D01*
X183040Y275883D01*
X183045Y275887D01*
X183054Y275897D01*
X183068Y275915D01*
X183091Y275934D01*
X183114Y275961D01*
X183146Y275989D01*
X183188Y276017D01*
X183229Y276049D01*
X183280Y276081D01*
X183331Y276109D01*
X183391Y276137D01*
X183456Y276165D01*
X183525Y276183D01*
X183604Y276202D01*
X183682Y276211D01*
X183765Y276216D01*
X183811D01*
X183844Y276211D01*
D02*
G37*
G36*
X220522Y275319D02*
X220942D01*
Y274830D01*
X220522D01*
Y273892D01*
Y273887D01*
Y273878D01*
Y273864D01*
Y273846D01*
Y273799D01*
Y273744D01*
X220527Y273688D01*
Y273633D01*
Y273591D01*
X220531Y273573D01*
Y273564D01*
X220536Y273554D01*
X220545Y273536D01*
X220559Y273513D01*
X220587Y273485D01*
X220596Y273481D01*
X220614Y273471D01*
X220647Y273462D01*
X220688Y273457D01*
X220707D01*
X220725Y273462D01*
X220753Y273467D01*
X220790Y273471D01*
X220831Y273481D01*
X220882Y273494D01*
X220938Y273513D01*
X220993Y273037D01*
X220988D01*
X220984Y273032D01*
X220956Y273023D01*
X220910Y273009D01*
X220850Y272995D01*
X220781Y272977D01*
X220697Y272963D01*
X220605Y272954D01*
X220508Y272949D01*
X220480D01*
X220448Y272954D01*
X220406Y272958D01*
X220360Y272963D01*
X220309Y272972D01*
X220259Y272986D01*
X220208Y273005D01*
X220203Y273009D01*
X220185Y273014D01*
X220162Y273028D01*
X220134Y273042D01*
X220069Y273088D01*
X220037Y273115D01*
X220009Y273148D01*
X220005Y273152D01*
X220000Y273166D01*
X219991Y273185D01*
X219977Y273213D01*
X219963Y273245D01*
X219949Y273286D01*
X219935Y273333D01*
X219926Y273383D01*
Y273388D01*
X219921Y273407D01*
Y273434D01*
X219917Y273481D01*
X219912Y273540D01*
Y273615D01*
X219907Y273656D01*
Y273707D01*
Y273758D01*
Y273818D01*
Y274830D01*
X219626D01*
Y275319D01*
X219907D01*
Y275781D01*
X220522Y276142D01*
Y275319D01*
D02*
G37*
G36*
X193185Y274950D02*
X194456Y273000D01*
X193620D01*
X192737Y274501D01*
X192215Y273966D01*
Y273000D01*
X191568D01*
Y276197D01*
X192215D01*
Y274774D01*
X193527Y276197D01*
X194396D01*
X193185Y274950D01*
D02*
G37*
G36*
X214377Y275365D02*
X214423Y275361D01*
X214474Y275356D01*
X214530Y275352D01*
X214645Y275333D01*
X214761Y275305D01*
X214872Y275264D01*
X214922Y275241D01*
X214969Y275213D01*
X214973D01*
X214978Y275204D01*
X215006Y275185D01*
X215047Y275148D01*
X215093Y275097D01*
X215149Y275037D01*
X215200Y274959D01*
X215250Y274867D01*
X215287Y274760D01*
X214710Y274654D01*
Y274659D01*
X214701Y274677D01*
X214691Y274700D01*
X214678Y274728D01*
X214659Y274765D01*
X214631Y274797D01*
X214604Y274830D01*
X214567Y274857D01*
X214562Y274862D01*
X214548Y274871D01*
X214525Y274880D01*
X214493Y274894D01*
X214451Y274908D01*
X214400Y274922D01*
X214340Y274926D01*
X214271Y274931D01*
X214229D01*
X214188Y274926D01*
X214137Y274922D01*
X214077Y274913D01*
X214022Y274903D01*
X213971Y274885D01*
X213925Y274862D01*
X213920D01*
X213915Y274853D01*
X213892Y274830D01*
X213864Y274788D01*
X213860Y274765D01*
X213855Y274737D01*
Y274732D01*
Y274728D01*
X213864Y274700D01*
X213883Y274663D01*
X213897Y274645D01*
X213915Y274626D01*
X213920Y274622D01*
X213938Y274617D01*
X213948Y274608D01*
X213966Y274603D01*
X213989Y274594D01*
X214017Y274580D01*
X214054Y274571D01*
X214091Y274557D01*
X214137Y274543D01*
X214193Y274529D01*
X214253Y274511D01*
X214322Y274492D01*
X214400Y274474D01*
X214488Y274451D01*
X214493D01*
X214511Y274446D01*
X214534Y274441D01*
X214567Y274432D01*
X214608Y274418D01*
X214654Y274409D01*
X214756Y274377D01*
X214872Y274335D01*
X214983Y274289D01*
X215038Y274261D01*
X215089Y274238D01*
X215130Y274206D01*
X215172Y274178D01*
X215181Y274169D01*
X215204Y274150D01*
X215232Y274113D01*
X215269Y274063D01*
X215306Y273998D01*
X215334Y273919D01*
X215357Y273827D01*
X215366Y273725D01*
Y273721D01*
Y273711D01*
Y273693D01*
X215361Y273670D01*
X215357Y273647D01*
X215352Y273615D01*
X215334Y273536D01*
X215301Y273453D01*
X215278Y273407D01*
X215255Y273360D01*
X215223Y273314D01*
X215186Y273268D01*
X215144Y273222D01*
X215098Y273176D01*
X215093Y273171D01*
X215084Y273166D01*
X215070Y273157D01*
X215047Y273139D01*
X215019Y273125D01*
X214987Y273106D01*
X214946Y273083D01*
X214899Y273065D01*
X214848Y273042D01*
X214789Y273023D01*
X214724Y273000D01*
X214654Y272986D01*
X214576Y272972D01*
X214493Y272958D01*
X214405Y272954D01*
X214313Y272949D01*
X214266D01*
X214234Y272954D01*
X214193D01*
X214146Y272958D01*
X214095Y272963D01*
X214040Y272972D01*
X213920Y272995D01*
X213795Y273028D01*
X213670Y273074D01*
X213615Y273106D01*
X213560Y273139D01*
X213555Y273143D01*
X213546Y273148D01*
X213532Y273157D01*
X213518Y273176D01*
X213467Y273217D01*
X213412Y273277D01*
X213352Y273351D01*
X213296Y273439D01*
X213245Y273545D01*
X213204Y273661D01*
X213818Y273753D01*
Y273744D01*
X213827Y273725D01*
X213837Y273693D01*
X213851Y273651D01*
X213874Y273605D01*
X213901Y273564D01*
X213934Y273517D01*
X213975Y273481D01*
X213980Y273476D01*
X213999Y273467D01*
X214026Y273453D01*
X214063Y273439D01*
X214109Y273420D01*
X214169Y273407D01*
X214234Y273397D01*
X214313Y273393D01*
X214350D01*
X214396Y273397D01*
X214447Y273402D01*
X214502Y273411D01*
X214562Y273430D01*
X214617Y273448D01*
X214668Y273476D01*
X214673Y273481D01*
X214682Y273490D01*
X214696Y273504D01*
X214710Y273522D01*
X214724Y273545D01*
X214738Y273573D01*
X214747Y273605D01*
X214752Y273642D01*
Y273647D01*
Y273656D01*
X214747Y273684D01*
X214733Y273721D01*
X214705Y273758D01*
X214696Y273767D01*
X214682Y273772D01*
X214664Y273785D01*
X214636Y273795D01*
X214599Y273809D01*
X214558Y273822D01*
X214502Y273836D01*
X214493D01*
X214470Y273846D01*
X214433Y273855D01*
X214382Y273864D01*
X214322Y273878D01*
X214257Y273896D01*
X214183Y273915D01*
X214105Y273938D01*
X213943Y273984D01*
X213864Y274007D01*
X213791Y274035D01*
X213721Y274058D01*
X213657Y274086D01*
X213601Y274113D01*
X213560Y274136D01*
X213555Y274141D01*
X213546Y274146D01*
X213537Y274155D01*
X213518Y274173D01*
X213472Y274215D01*
X213426Y274275D01*
X213375Y274349D01*
X213329Y274437D01*
X213310Y274488D01*
X213301Y274543D01*
X213292Y274599D01*
X213287Y274659D01*
Y274663D01*
Y274672D01*
Y274686D01*
X213292Y274709D01*
X213296Y274732D01*
X213301Y274765D01*
X213315Y274834D01*
X213342Y274913D01*
X213389Y274996D01*
X213412Y275042D01*
X213444Y275084D01*
X213481Y275125D01*
X213523Y275162D01*
X213527Y275167D01*
X213532Y275171D01*
X213546Y275181D01*
X213569Y275195D01*
X213592Y275208D01*
X213624Y275227D01*
X213661Y275245D01*
X213703Y275268D01*
X213754Y275287D01*
X213809Y275305D01*
X213869Y275324D01*
X213934Y275338D01*
X214008Y275352D01*
X214086Y275361D01*
X214169Y275370D01*
X214340D01*
X214377Y275365D01*
D02*
G37*
%LPC*%
G36*
X196064Y274109D02*
X196059D01*
X196040Y274100D01*
X196013Y274095D01*
X195971Y274081D01*
X195920Y274067D01*
X195851Y274049D01*
X195777Y274030D01*
X195685Y274012D01*
X195676D01*
X195662Y274007D01*
X195643Y274003D01*
X195602Y273993D01*
X195546Y273979D01*
X195491Y273966D01*
X195435Y273947D01*
X195389Y273924D01*
X195352Y273905D01*
X195347Y273901D01*
X195334Y273892D01*
X195315Y273873D01*
X195297Y273850D01*
X195274Y273818D01*
X195255Y273781D01*
X195241Y273739D01*
X195237Y273693D01*
Y273688D01*
Y273670D01*
X195241Y273647D01*
X195250Y273619D01*
X195260Y273582D01*
X195274Y273545D01*
X195297Y273508D01*
X195329Y273471D01*
X195334Y273467D01*
X195347Y273457D01*
X195366Y273444D01*
X195398Y273425D01*
X195431Y273407D01*
X195472Y273393D01*
X195523Y273383D01*
X195574Y273379D01*
X195602D01*
X195634Y273383D01*
X195676Y273393D01*
X195726Y273407D01*
X195777Y273425D01*
X195837Y273448D01*
X195893Y273485D01*
X195897Y273490D01*
X195911Y273499D01*
X195930Y273517D01*
X195953Y273540D01*
X195976Y273573D01*
X195999Y273605D01*
X196022Y273647D01*
X196036Y273688D01*
Y273693D01*
X196040Y273702D01*
X196045Y273725D01*
X196050Y273753D01*
X196054Y273795D01*
X196059Y273846D01*
X196064Y273910D01*
Y273984D01*
Y274109D01*
D02*
G37*
G36*
X188907Y275278D02*
X188163Y274178D01*
X188907D01*
Y275278D01*
D02*
G37*
G36*
X222642Y274109D02*
X222638D01*
X222619Y274100D01*
X222592Y274095D01*
X222550Y274081D01*
X222499Y274067D01*
X222430Y274049D01*
X222356Y274030D01*
X222264Y274012D01*
X222254D01*
X222240Y274007D01*
X222222Y274003D01*
X222181Y273993D01*
X222125Y273979D01*
X222070Y273966D01*
X222014Y273947D01*
X221968Y273924D01*
X221931Y273905D01*
X221926Y273901D01*
X221913Y273892D01*
X221894Y273873D01*
X221876Y273850D01*
X221852Y273818D01*
X221834Y273781D01*
X221820Y273739D01*
X221815Y273693D01*
Y273688D01*
Y273670D01*
X221820Y273647D01*
X221829Y273619D01*
X221839Y273582D01*
X221852Y273545D01*
X221876Y273508D01*
X221908Y273471D01*
X221913Y273467D01*
X221926Y273457D01*
X221945Y273444D01*
X221977Y273425D01*
X222009Y273407D01*
X222051Y273393D01*
X222102Y273383D01*
X222153Y273379D01*
X222181D01*
X222213Y273383D01*
X222254Y273393D01*
X222305Y273407D01*
X222356Y273425D01*
X222416Y273448D01*
X222471Y273485D01*
X222476Y273490D01*
X222490Y273499D01*
X222509Y273517D01*
X222532Y273540D01*
X222555Y273573D01*
X222578Y273605D01*
X222601Y273647D01*
X222615Y273688D01*
Y273693D01*
X222619Y273702D01*
X222624Y273725D01*
X222629Y273753D01*
X222633Y273795D01*
X222638Y273846D01*
X222642Y273910D01*
Y273984D01*
Y274109D01*
D02*
G37*
G36*
X212210D02*
X212206D01*
X212187Y274100D01*
X212160Y274095D01*
X212118Y274081D01*
X212067Y274067D01*
X211998Y274049D01*
X211924Y274030D01*
X211832Y274012D01*
X211822D01*
X211809Y274007D01*
X211790Y274003D01*
X211749Y273993D01*
X211693Y273979D01*
X211638Y273966D01*
X211582Y273947D01*
X211536Y273924D01*
X211499Y273905D01*
X211494Y273901D01*
X211481Y273892D01*
X211462Y273873D01*
X211444Y273850D01*
X211420Y273818D01*
X211402Y273781D01*
X211388Y273739D01*
X211384Y273693D01*
Y273688D01*
Y273670D01*
X211388Y273647D01*
X211397Y273619D01*
X211407Y273582D01*
X211420Y273545D01*
X211444Y273508D01*
X211476Y273471D01*
X211481Y273467D01*
X211494Y273457D01*
X211513Y273444D01*
X211545Y273425D01*
X211578Y273407D01*
X211619Y273393D01*
X211670Y273383D01*
X211721Y273379D01*
X211749D01*
X211781Y273383D01*
X211822Y273393D01*
X211873Y273407D01*
X211924Y273425D01*
X211984Y273448D01*
X212040Y273485D01*
X212044Y273490D01*
X212058Y273499D01*
X212076Y273517D01*
X212100Y273540D01*
X212123Y273573D01*
X212146Y273605D01*
X212169Y273647D01*
X212183Y273688D01*
Y273693D01*
X212187Y273702D01*
X212192Y273725D01*
X212197Y273753D01*
X212201Y273795D01*
X212206Y273846D01*
X212210Y273910D01*
Y273984D01*
Y274109D01*
D02*
G37*
G36*
X205752D02*
X205747D01*
X205729Y274100D01*
X205701Y274095D01*
X205659Y274081D01*
X205609Y274067D01*
X205539Y274049D01*
X205465Y274030D01*
X205373Y274012D01*
X205364D01*
X205350Y274007D01*
X205331Y274003D01*
X205290Y273993D01*
X205234Y273979D01*
X205179Y273966D01*
X205123Y273947D01*
X205077Y273924D01*
X205040Y273905D01*
X205036Y273901D01*
X205022Y273892D01*
X205003Y273873D01*
X204985Y273850D01*
X204962Y273818D01*
X204943Y273781D01*
X204929Y273739D01*
X204925Y273693D01*
Y273688D01*
Y273670D01*
X204929Y273647D01*
X204939Y273619D01*
X204948Y273582D01*
X204962Y273545D01*
X204985Y273508D01*
X205017Y273471D01*
X205022Y273467D01*
X205036Y273457D01*
X205054Y273444D01*
X205086Y273425D01*
X205119Y273407D01*
X205160Y273393D01*
X205211Y273383D01*
X205262Y273379D01*
X205290D01*
X205322Y273383D01*
X205364Y273393D01*
X205415Y273407D01*
X205465Y273425D01*
X205525Y273448D01*
X205581Y273485D01*
X205585Y273490D01*
X205599Y273499D01*
X205618Y273517D01*
X205641Y273540D01*
X205664Y273573D01*
X205687Y273605D01*
X205710Y273647D01*
X205724Y273688D01*
Y273693D01*
X205729Y273702D01*
X205733Y273725D01*
X205738Y273753D01*
X205743Y273795D01*
X205747Y273846D01*
X205752Y273910D01*
Y273984D01*
Y274109D01*
D02*
G37*
G36*
X177172Y275929D02*
X177140D01*
X177112Y275924D01*
X177085D01*
X177048Y275920D01*
X177006Y275915D01*
X176960Y275906D01*
X176858Y275887D01*
X176747Y275855D01*
X176627Y275814D01*
X176507Y275753D01*
X176503D01*
X176493Y275744D01*
X176475Y275735D01*
X176456Y275721D01*
X176429Y275703D01*
X176396Y275684D01*
X176327Y275629D01*
X176248Y275559D01*
X176165Y275472D01*
X176087Y275375D01*
X176013Y275259D01*
Y275255D01*
X176004Y275245D01*
X175994Y275227D01*
X175985Y275204D01*
X175971Y275176D01*
X175957Y275139D01*
X175939Y275102D01*
X175925Y275056D01*
X175888Y274954D01*
X175860Y274843D01*
X175842Y274719D01*
X175833Y274589D01*
Y274585D01*
Y274575D01*
Y274557D01*
X175837Y274529D01*
Y274501D01*
X175842Y274465D01*
X175847Y274423D01*
X175856Y274377D01*
X175874Y274275D01*
X175907Y274164D01*
X175948Y274044D01*
X176008Y273924D01*
Y273919D01*
X176017Y273910D01*
X176027Y273892D01*
X176040Y273873D01*
X176059Y273846D01*
X176082Y273813D01*
X176138Y273744D01*
X176207Y273665D01*
X176290Y273582D01*
X176392Y273504D01*
X176503Y273430D01*
X176507D01*
X176516Y273420D01*
X176535Y273416D01*
X176558Y273402D01*
X176586Y273388D01*
X176623Y273374D01*
X176660Y273360D01*
X176706Y273342D01*
X176807Y273309D01*
X176918Y273282D01*
X177043Y273263D01*
X177172Y273254D01*
X177205D01*
X177233Y273259D01*
X177265D01*
X177297Y273263D01*
X177339Y273268D01*
X177385Y273277D01*
X177487Y273296D01*
X177597Y273328D01*
X177718Y273370D01*
X177838Y273430D01*
X177842D01*
X177852Y273439D01*
X177870Y273448D01*
X177889Y273462D01*
X177916Y273481D01*
X177949Y273504D01*
X178018Y273559D01*
X178096Y273628D01*
X178180Y273711D01*
X178263Y273813D01*
X178332Y273924D01*
Y273929D01*
X178341Y273938D01*
X178350Y273956D01*
X178360Y273979D01*
X178374Y274007D01*
X178387Y274044D01*
X178406Y274081D01*
X178425Y274127D01*
X178457Y274229D01*
X178484Y274340D01*
X178503Y274460D01*
X178512Y274589D01*
Y274594D01*
Y274603D01*
Y274622D01*
X178508Y274649D01*
Y274682D01*
X178503Y274719D01*
X178498Y274760D01*
X178489Y274806D01*
X178466Y274908D01*
X178434Y275019D01*
X178387Y275139D01*
X178327Y275259D01*
Y275264D01*
X178318Y275273D01*
X178309Y275291D01*
X178295Y275315D01*
X178277Y275338D01*
X178253Y275370D01*
X178198Y275444D01*
X178129Y275522D01*
X178041Y275606D01*
X177939Y275684D01*
X177829Y275753D01*
X177824D01*
X177815Y275763D01*
X177796Y275772D01*
X177773Y275781D01*
X177745Y275795D01*
X177713Y275809D01*
X177671Y275823D01*
X177630Y275841D01*
X177528Y275874D01*
X177417Y275901D01*
X177297Y275920D01*
X177172Y275929D01*
D02*
G37*
%LPD*%
G36*
X177288Y275509D02*
X177353Y275499D01*
X177422Y275481D01*
X177496Y275458D01*
X177574Y275426D01*
X177644Y275384D01*
X177653Y275379D01*
X177671Y275361D01*
X177708Y275328D01*
X177745Y275287D01*
X177792Y275227D01*
X177838Y275157D01*
X177884Y275074D01*
X177926Y274977D01*
X177570Y274894D01*
X177565Y274903D01*
X177560Y274922D01*
X177542Y274950D01*
X177524Y274982D01*
X177473Y275056D01*
X177445Y275093D01*
X177408Y275125D01*
X177403Y275130D01*
X177390Y275139D01*
X177371Y275148D01*
X177343Y275162D01*
X177311Y275176D01*
X177274Y275190D01*
X177228Y275195D01*
X177182Y275199D01*
X177149D01*
X177112Y275190D01*
X177071Y275181D01*
X177020Y275162D01*
X176964Y275134D01*
X176914Y275097D01*
X176863Y275047D01*
X176858Y275042D01*
X176844Y275019D01*
X176821Y274982D01*
X176803Y274936D01*
X176780Y274871D01*
X176757Y274788D01*
X176743Y274695D01*
X176738Y274585D01*
Y274580D01*
Y274571D01*
Y274552D01*
Y274534D01*
X176743Y274478D01*
X176752Y274409D01*
X176766Y274331D01*
X176789Y274252D01*
X176817Y274183D01*
X176858Y274118D01*
X176863Y274113D01*
X176881Y274095D01*
X176909Y274072D01*
X176941Y274044D01*
X176988Y274016D01*
X177034Y273993D01*
X177094Y273975D01*
X177154Y273970D01*
X177177D01*
X177205Y273975D01*
X177242Y273979D01*
X177283Y273989D01*
X177325Y274007D01*
X177366Y274026D01*
X177408Y274053D01*
X177413Y274058D01*
X177427Y274072D01*
X177445Y274090D01*
X177468Y274123D01*
X177496Y274164D01*
X177524Y274215D01*
X177551Y274275D01*
X177574Y274344D01*
X177926Y274224D01*
Y274220D01*
X177921Y274210D01*
X177916Y274197D01*
X177912Y274178D01*
X177889Y274127D01*
X177861Y274067D01*
X177819Y273998D01*
X177773Y273929D01*
X177718Y273859D01*
X177648Y273799D01*
X177639Y273795D01*
X177616Y273776D01*
X177574Y273753D01*
X177519Y273730D01*
X177454Y273702D01*
X177376Y273679D01*
X177288Y273661D01*
X177191Y273656D01*
X177154D01*
X177131Y273661D01*
X177099Y273665D01*
X177062Y273670D01*
X176978Y273688D01*
X176881Y273716D01*
X176780Y273758D01*
X176729Y273785D01*
X176678Y273818D01*
X176632Y273855D01*
X176586Y273896D01*
X176581Y273901D01*
X176576Y273905D01*
X176563Y273924D01*
X176549Y273942D01*
X176530Y273966D01*
X176512Y273998D01*
X176493Y274030D01*
X176470Y274072D01*
X176447Y274118D01*
X176429Y274169D01*
X176410Y274224D01*
X176392Y274284D01*
X176378Y274349D01*
X176364Y274418D01*
X176359Y274492D01*
X176355Y274571D01*
Y274575D01*
Y274585D01*
Y274599D01*
Y274617D01*
X176359Y274672D01*
X176369Y274737D01*
X176378Y274816D01*
X176396Y274899D01*
X176424Y274987D01*
X176456Y275070D01*
Y275074D01*
X176461Y275079D01*
X176475Y275107D01*
X176503Y275144D01*
X176535Y275195D01*
X176576Y275250D01*
X176627Y275305D01*
X176687Y275356D01*
X176757Y275402D01*
X176761D01*
X176766Y275407D01*
X176794Y275421D01*
X176831Y275439D01*
X176886Y275458D01*
X176951Y275476D01*
X177025Y275495D01*
X177108Y275509D01*
X177196Y275513D01*
X177242D01*
X177288Y275509D01*
D02*
G37*
%LPC*%
G36*
X183765Y275707D02*
X183747D01*
X183724Y275703D01*
X183701Y275698D01*
X183668Y275689D01*
X183636Y275675D01*
X183599Y275657D01*
X183566Y275633D01*
X183562Y275629D01*
X183553Y275620D01*
X183539Y275601D01*
X183520Y275578D01*
X183497Y275541D01*
X183479Y275499D01*
X183456Y275444D01*
X183437Y275379D01*
Y275375D01*
X183432Y275370D01*
Y275352D01*
X183428Y275333D01*
X183423Y275305D01*
X183419Y275273D01*
X183414Y275236D01*
X183409Y275190D01*
X183400Y275134D01*
X183396Y275079D01*
X183391Y275010D01*
X183386Y274940D01*
X183382Y274857D01*
Y274774D01*
X183377Y274677D01*
Y274575D01*
Y274571D01*
Y274552D01*
Y274520D01*
Y274483D01*
Y274437D01*
X183382Y274386D01*
Y274326D01*
X183386Y274266D01*
X183391Y274136D01*
X183400Y274007D01*
X183405Y273947D01*
X183414Y273892D01*
X183423Y273841D01*
X183432Y273795D01*
X183437Y273785D01*
X183442Y273762D01*
X183456Y273725D01*
X183469Y273684D01*
X183493Y273638D01*
X183516Y273591D01*
X183543Y273550D01*
X183571Y273517D01*
X183576Y273513D01*
X183585Y273508D01*
X183604Y273494D01*
X183627Y273485D01*
X183654Y273471D01*
X183687Y273457D01*
X183724Y273453D01*
X183765Y273448D01*
X183784D01*
X183807Y273453D01*
X183830Y273457D01*
X183862Y273467D01*
X183895Y273476D01*
X183927Y273494D01*
X183959Y273517D01*
X183964Y273522D01*
X183973Y273531D01*
X183992Y273550D01*
X184010Y273577D01*
X184028Y273610D01*
X184052Y273656D01*
X184075Y273707D01*
X184093Y273772D01*
Y273776D01*
X184098Y273781D01*
Y273799D01*
X184102Y273818D01*
X184107Y273846D01*
X184112Y273878D01*
X184121Y273915D01*
X184125Y273961D01*
X184130Y274012D01*
X184139Y274072D01*
X184144Y274136D01*
X184149Y274210D01*
X184153Y274289D01*
Y274377D01*
X184158Y274474D01*
Y274575D01*
Y274580D01*
Y274599D01*
Y274631D01*
Y274668D01*
Y274714D01*
X184153Y274765D01*
Y274825D01*
X184149Y274885D01*
X184144Y275014D01*
X184135Y275139D01*
X184125Y275199D01*
X184116Y275259D01*
X184107Y275310D01*
X184098Y275352D01*
Y275356D01*
X184093Y275361D01*
X184089Y275384D01*
X184075Y275421D01*
X184061Y275467D01*
X184038Y275513D01*
X184015Y275559D01*
X183987Y275601D01*
X183959Y275633D01*
X183955Y275638D01*
X183945Y275647D01*
X183927Y275657D01*
X183904Y275670D01*
X183876Y275684D01*
X183844Y275698D01*
X183807Y275703D01*
X183765Y275707D01*
D02*
G37*
%LPD*%
D21*
X370272Y320241D02*
Y362760D01*
X343760Y320241D02*
X370272D01*
X340841D02*
X343760D01*
X340841D02*
Y342141D01*
Y362760D02*
X370272D01*
X340841Y351000D02*
Y362700D01*
X355300Y311500D02*
Y315500D01*
X296500Y316000D02*
Y319800D01*
X330000Y351400D02*
Y355200D01*
X355600Y305335D02*
X370197D01*
X355600Y277343D02*
X370197D01*
X344213D02*
Y305335D01*
X370197Y277343D02*
Y305335D01*
X315400Y271800D02*
Y283400D01*
X253500Y271800D02*
X315400D01*
X253500D02*
Y283400D01*
X315400D01*
X209138Y347800D02*
Y356335D01*
Y283338D02*
Y290638D01*
X176335Y356335D02*
X209138D01*
X170122Y350122D02*
X176335Y356335D01*
X176672Y283338D02*
X209138D01*
X170122Y289213D02*
Y350122D01*
Y289213D02*
X175997Y283338D01*
D34*
X223512Y357063D02*
G03*
X223512Y357063I-492J0D01*
G01*
X310343Y349946D02*
G03*
X310343Y349946I-492J0D01*
G01*
X279512Y357063D02*
G03*
X279512Y357063I-492J0D01*
G01*
X267012Y345163D02*
G03*
X267012Y345163I-492J0D01*
G01*
X257012Y357063D02*
G03*
X257012Y357063I-492J0D01*
G01*
X240012D02*
G03*
X240012Y357063I-492J0D01*
G01*
X225706Y283311D02*
G03*
X225706Y283311I-492J0D01*
G01*
X255010Y314411D02*
G03*
X255010Y314411I-492J0D01*
G01*
X305410Y285311D02*
G03*
X305410Y285311I-492J0D01*
G01*
D35*
X224594Y361787D02*
Y363756D01*
X227350D01*
X236406Y361787D02*
Y363756D01*
X233650D02*
X236406D01*
X334836Y301900D02*
Y306821D01*
X316004D02*
X334836D01*
X314364Y305181D02*
X316004Y306821D01*
X314364Y298619D02*
Y305181D01*
Y298619D02*
X316004Y296979D01*
X334836D01*
Y301900D01*
X315757Y314277D02*
X322843D01*
X315757Y348923D02*
X322843D01*
Y314277D02*
Y348923D01*
X315757Y314277D02*
Y348923D01*
X289650Y363756D02*
X292406D01*
Y361787D02*
Y363756D01*
X280594D02*
X283350D01*
X280594Y361787D02*
Y363756D01*
X277150Y351856D02*
X279906D01*
Y349887D02*
Y351856D01*
X268094D02*
X270850D01*
X268094Y349887D02*
Y351856D01*
X267150Y363756D02*
X269906D01*
Y361787D02*
Y363756D01*
X258094D02*
X260850D01*
X258094Y361787D02*
Y363756D01*
X250150D02*
X252906D01*
Y361787D02*
Y363756D01*
X241094D02*
X243850D01*
X241094Y361787D02*
Y363756D01*
X225804Y288429D02*
Y304571D01*
X238796Y288429D02*
Y304571D01*
X272654Y285808D02*
Y293300D01*
X241900Y305300D02*
Y306892D01*
X246800Y311792D01*
X241900Y290708D02*
Y292177D01*
Y290708D02*
X246800Y285808D01*
X272654D01*
X246800Y311792D02*
X272654D01*
Y304300D02*
Y311792D01*
X237800Y340789D02*
X248300D01*
X237800Y314411D02*
X248300D01*
X237800D02*
Y340789D01*
X248300Y314411D02*
Y340789D01*
X298700Y285311D02*
Y311689D01*
X288200Y285311D02*
Y311689D01*
Y285311D02*
X298700D01*
X288200Y311689D02*
X298700D01*
D36*
X176000Y281499D02*
X177999D01*
X177000D01*
Y278500D01*
X178999D02*
Y281499D01*
X179999Y280499D01*
X180998Y281499D01*
Y278500D01*
X181998Y279999D02*
X183997D01*
X184997Y278500D02*
X185997D01*
X185497D01*
Y281499D01*
X184997Y280999D01*
X187496D02*
X187996Y281499D01*
X188996D01*
X189496Y280999D01*
Y279000D01*
X188996Y278500D01*
X187996D01*
X187496Y279000D01*
Y280999D01*
X197000Y280499D02*
Y278500D01*
Y279500D01*
X197500Y279999D01*
X198000Y280499D01*
X198500D01*
X201499Y278500D02*
X200499D01*
X199999Y279000D01*
Y279999D01*
X200499Y280499D01*
X201499D01*
X201998Y279999D01*
Y279500D01*
X199999D01*
X202998Y280499D02*
X203998Y278500D01*
X204997Y280499D01*
X205997Y278500D02*
Y279000D01*
X206497D01*
Y278500D01*
X205997D01*
X211495D02*
X212495D01*
X211995D01*
Y281499D01*
X211495Y280999D01*
X324000Y289500D02*
Y292499D01*
X325500D01*
X325999Y291999D01*
Y291000D01*
X325500Y290500D01*
X324000D01*
X325000D02*
X325999Y289500D01*
X326999D02*
X327999D01*
X327499D01*
Y292499D01*
X326999Y291999D01*
X329498Y292499D02*
X331498D01*
Y291999D01*
X329498Y290000D01*
Y289500D01*
X231500Y272500D02*
X228501D01*
Y274000D01*
X229001Y274499D01*
X230000D01*
X230500Y274000D01*
Y272500D01*
Y273500D02*
X231500Y274499D01*
Y275499D02*
Y276499D01*
Y275999D01*
X228501D01*
X229001Y275499D01*
X228501Y279998D02*
X229001Y278998D01*
X230000Y277998D01*
X231000D01*
X231500Y278498D01*
Y279498D01*
X231000Y279998D01*
X230500D01*
X230000Y279498D01*
Y277998D01*
X290100Y346500D02*
Y349499D01*
X291599D01*
X292099Y348999D01*
Y348000D01*
X291599Y347500D01*
X290100D01*
X291100D02*
X292099Y346500D01*
X293099D02*
X294099D01*
X293599D01*
Y349499D01*
X293099Y348999D01*
X297598Y349499D02*
X295598D01*
Y348000D01*
X296598Y348499D01*
X297098D01*
X297598Y348000D01*
Y347000D01*
X297098Y346500D01*
X296098D01*
X295598Y347000D01*
X223499Y366000D02*
Y367999D01*
X223000Y368499D01*
X222000D01*
X221500Y367999D01*
Y366000D01*
X222000Y365500D01*
X223000D01*
X222500Y366500D02*
X223499Y365500D01*
X223000D02*
X223499Y366000D01*
X226498Y368499D02*
X225499Y367999D01*
X224499Y367000D01*
Y366000D01*
X224999Y365500D01*
X225998D01*
X226498Y366000D01*
Y366500D01*
X225998Y367000D01*
X224499D01*
X364799Y367299D02*
X364300Y367799D01*
X363300D01*
X362800Y367299D01*
Y366799D01*
X363300Y366300D01*
X364300D01*
X364799Y365800D01*
Y365300D01*
X364300Y364800D01*
X363300D01*
X362800Y365300D01*
X365799Y364800D02*
X366799D01*
X366299D01*
Y367799D01*
X365799Y367299D01*
X218000Y287999D02*
Y285000D01*
X219499D01*
X219999Y285500D01*
Y287499D01*
X219499Y287999D01*
X218000D01*
X222998Y285000D02*
X220999D01*
X222998Y286999D01*
Y287499D01*
X222498Y287999D01*
X221499D01*
X220999Y287499D01*
X330899Y311199D02*
X330399Y311699D01*
X329400D01*
X328900Y311199D01*
Y309200D01*
X329400Y308700D01*
X330399D01*
X330899Y309200D01*
X331899Y311199D02*
X332399Y311699D01*
X333399D01*
X333898Y311199D01*
Y310699D01*
X333399Y310199D01*
X332899D01*
X333399D01*
X333898Y309700D01*
Y309200D01*
X333399Y308700D01*
X332399D01*
X331899Y309200D01*
X317400Y312499D02*
Y310000D01*
X317900Y309500D01*
X318899D01*
X319399Y310000D01*
Y312499D01*
X320399Y309500D02*
X321399D01*
X320899D01*
Y312499D01*
X320399Y311999D01*
X244000Y350000D02*
Y352999D01*
X245499D01*
X245999Y352499D01*
Y351500D01*
X245499Y351000D01*
X244000D01*
X245000D02*
X245999Y350000D01*
X246999Y352999D02*
X248998D01*
Y352499D01*
X246999Y350500D01*
Y350000D01*
X303100Y352400D02*
Y355399D01*
X304599D01*
X305099Y354899D01*
Y353900D01*
X304599Y353400D01*
X303100D01*
X304100D02*
X305099Y352400D01*
X308098Y355399D02*
X307099Y354899D01*
X306099Y353900D01*
Y352900D01*
X306599Y352400D01*
X307598D01*
X308098Y352900D01*
Y353400D01*
X307598Y353900D01*
X306099D01*
X312400Y352300D02*
Y355299D01*
X313899D01*
X314399Y354799D01*
Y353800D01*
X313899Y353300D01*
X312400D01*
X313400D02*
X314399Y352300D01*
X317398Y355299D02*
X315399D01*
Y353800D01*
X316399Y354299D01*
X316898D01*
X317398Y353800D01*
Y352800D01*
X316898Y352300D01*
X315899D01*
X315399Y352800D01*
X284200Y331400D02*
Y334399D01*
X285700D01*
X286199Y333899D01*
Y332899D01*
X285700Y332400D01*
X284200D01*
X285200D02*
X286199Y331400D01*
X288699D02*
Y334399D01*
X287199Y332899D01*
X289198D01*
X328600Y357100D02*
Y360099D01*
X330100D01*
X330599Y359599D01*
Y358599D01*
X330100Y358100D01*
X328600D01*
X329600D02*
X330599Y357100D01*
X331599Y359599D02*
X332099Y360099D01*
X333099D01*
X333598Y359599D01*
Y359099D01*
X333099Y358599D01*
X332599D01*
X333099D01*
X333598Y358100D01*
Y357600D01*
X333099Y357100D01*
X332099D01*
X331599Y357600D01*
X265000Y313500D02*
Y316499D01*
X266499D01*
X266999Y315999D01*
Y315000D01*
X266499Y314500D01*
X265000D01*
X266000D02*
X266999Y313500D01*
X269998D02*
X267999D01*
X269998Y315499D01*
Y315999D01*
X269498Y316499D01*
X268499D01*
X267999Y315999D01*
X335400Y317100D02*
Y320099D01*
X336899D01*
X337399Y319599D01*
Y318600D01*
X336899Y318100D01*
X335400D01*
X336400D02*
X337399Y317100D01*
X338399D02*
X339399D01*
X338899D01*
Y320099D01*
X338399Y319599D01*
X278500Y322500D02*
Y325499D01*
X279999D01*
X280499Y324999D01*
Y324000D01*
X279999Y323500D01*
X278500D01*
X279500D02*
X280499Y322500D01*
X281499Y323000D02*
X281999Y322500D01*
X282998D01*
X283498Y323000D01*
Y324999D01*
X282998Y325499D01*
X281999D01*
X281499Y324999D01*
Y324499D01*
X281999Y324000D01*
X283498D01*
X281700Y350600D02*
Y353599D01*
X283200D01*
X283699Y353099D01*
Y352099D01*
X283200Y351600D01*
X281700D01*
X282700D02*
X283699Y350600D01*
X284699D02*
X285699D01*
X285199D01*
Y353599D01*
X284699Y353099D01*
X287198D02*
X287698Y353599D01*
X288698D01*
X289198Y353099D01*
Y351100D01*
X288698Y350600D01*
X287698D01*
X287198Y351100D01*
Y353099D01*
X360000Y310499D02*
Y307500D01*
X361500D01*
X361999Y308000D01*
Y309999D01*
X361500Y310499D01*
X360000D01*
X362999Y307500D02*
X363999D01*
X363499D01*
Y310499D01*
X362999Y309999D01*
X262500Y339000D02*
Y341999D01*
X264000D01*
X264499Y341499D01*
Y340499D01*
X264000Y340000D01*
X262500D01*
X263500D02*
X264499Y339000D01*
X265499D02*
X266499D01*
X265999D01*
Y341999D01*
X265499Y341499D01*
X267998Y339000D02*
X268998D01*
X268498D01*
Y341999D01*
X267998Y341499D01*
X258600Y349700D02*
Y352699D01*
X260100D01*
X260599Y352199D01*
Y351200D01*
X260100Y350700D01*
X258600D01*
X259600D02*
X260599Y349700D01*
X261599D02*
X262599D01*
X262099D01*
Y352699D01*
X261599Y352199D01*
X266098Y349700D02*
X264098D01*
X266098Y351699D01*
Y352199D01*
X265598Y352699D01*
X264598D01*
X264098Y352199D01*
X295100Y364500D02*
Y367499D01*
X296600D01*
X297099Y366999D01*
Y366000D01*
X296600Y365500D01*
X295100D01*
X296100D02*
X297099Y364500D01*
X298099Y366999D02*
X298599Y367499D01*
X299599D01*
X300098Y366999D01*
Y366499D01*
X299599Y366000D01*
X300098Y365500D01*
Y365000D01*
X299599Y364500D01*
X298599D01*
X298099Y365000D01*
Y365500D01*
X298599Y366000D01*
X298099Y366499D01*
Y366999D01*
X298599Y366000D02*
X299599D01*
X230800Y349900D02*
Y352899D01*
X232299D01*
X232799Y352399D01*
Y351399D01*
X232299Y350900D01*
X230800D01*
X231800D02*
X232799Y349900D01*
X233799D02*
X234799D01*
X234299D01*
Y352899D01*
X233799Y352399D01*
X236298D02*
X236798Y352899D01*
X237798D01*
X238298Y352399D01*
Y351899D01*
X237798Y351399D01*
X237298D01*
X237798D01*
X238298Y350900D01*
Y350400D01*
X237798Y349900D01*
X236798D01*
X236298Y350400D01*
X197500Y361000D02*
Y363999D01*
X199000D01*
X199499Y363499D01*
Y362499D01*
X199000Y362000D01*
X197500D01*
X198500D02*
X199499Y361000D01*
X200499D02*
X201499D01*
X200999D01*
Y363999D01*
X200499Y363499D01*
X204498Y361000D02*
Y363999D01*
X202998Y362499D01*
X204998D01*
X277499Y366000D02*
Y367999D01*
X276999Y368499D01*
X276000D01*
X275500Y367999D01*
Y366000D01*
X276000Y365500D01*
X276999D01*
X276500Y366500D02*
X277499Y365500D01*
X276999D02*
X277499Y366000D01*
X278499Y367999D02*
X278999Y368499D01*
X279998D01*
X280498Y367999D01*
Y367499D01*
X279998Y367000D01*
X279499D01*
X279998D01*
X280498Y366500D01*
Y366000D01*
X279998Y365500D01*
X278999D01*
X278499Y366000D01*
X274199Y356700D02*
Y358699D01*
X273699Y359199D01*
X272700D01*
X272200Y358699D01*
Y356700D01*
X272700Y356200D01*
X273699D01*
X273200Y357200D02*
X274199Y356200D01*
X273699D02*
X274199Y356700D01*
X275199Y356200D02*
X276199D01*
X275699D01*
Y359199D01*
X275199Y358699D01*
X256999Y366000D02*
Y367999D01*
X256500Y368499D01*
X255500D01*
X255000Y367999D01*
Y366000D01*
X255500Y365500D01*
X256500D01*
X256000Y366500D02*
X256999Y365500D01*
X256500D02*
X256999Y366000D01*
X259499Y365500D02*
Y368499D01*
X257999Y367000D01*
X259998D01*
X240499Y366000D02*
Y367999D01*
X240000Y368499D01*
X239000D01*
X238500Y367999D01*
Y366000D01*
X239000Y365500D01*
X240000D01*
X239500Y366500D02*
X240499Y365500D01*
X240000D02*
X240499Y366000D01*
X243498Y368499D02*
X241499D01*
Y367000D01*
X242499Y367499D01*
X242999D01*
X243498Y367000D01*
Y366000D01*
X242999Y365500D01*
X241999D01*
X241499Y366000D01*
X342300Y368299D02*
X344299D01*
X343300D01*
Y365300D01*
X345299D02*
Y368299D01*
X346798D01*
X347298Y367799D01*
Y366799D01*
X346798Y366300D01*
X345299D01*
X348298Y365300D02*
X349298D01*
X348798D01*
Y368299D01*
X348298Y367799D01*
X288999Y323499D02*
X288499Y323999D01*
X287500D01*
X287000Y323499D01*
Y321500D01*
X287500Y321000D01*
X288499D01*
X288999Y321500D01*
X291998Y321000D02*
X289999D01*
X291998Y322999D01*
Y323499D01*
X291498Y323999D01*
X290499D01*
X289999Y323499D01*
X334999Y354299D02*
X334500Y354799D01*
X333500D01*
X333000Y354299D01*
Y352300D01*
X333500Y351800D01*
X334500D01*
X334999Y352300D01*
X337498Y351800D02*
Y354799D01*
X335999Y353299D01*
X337998D01*
X243199Y284699D02*
X242700Y285199D01*
X241700D01*
X241200Y284699D01*
Y282700D01*
X241700Y282200D01*
X242700D01*
X243199Y282700D01*
X244199Y282200D02*
X245199D01*
X244699D01*
Y285199D01*
X244199Y284699D01*
X229799Y338400D02*
Y340399D01*
X229299Y340899D01*
X228300D01*
X227800Y340399D01*
Y338400D01*
X228300Y337900D01*
X229299D01*
X228800Y338900D02*
X229799Y337900D01*
X229299D02*
X229799Y338400D01*
X232798Y337900D02*
X230799D01*
X232798Y339899D01*
Y340399D01*
X232298Y340899D01*
X231299D01*
X230799Y340399D01*
X338499Y290999D02*
X338000Y291499D01*
X337000D01*
X336500Y290999D01*
Y290499D01*
X337000Y290000D01*
X338000D01*
X338499Y289500D01*
Y289000D01*
X338000Y288500D01*
X337000D01*
X336500Y289000D01*
X341498Y288500D02*
X339499D01*
X341498Y290499D01*
Y290999D01*
X340999Y291499D01*
X339999D01*
X339499Y290999D01*
X318000Y276500D02*
Y279499D01*
X319499D01*
X319999Y278999D01*
Y277999D01*
X319499Y277500D01*
X318000D01*
X320999Y276500D02*
X321999D01*
X321499D01*
Y279499D01*
X320999Y278999D01*
X279788Y290372D02*
Y287873D01*
X280288Y287373D01*
X281288D01*
X281788Y287873D01*
Y290372D01*
X284787Y287373D02*
X282788D01*
X284787Y289373D01*
Y289873D01*
X284287Y290372D01*
X283287D01*
X282788Y289873D01*
X178499Y361999D02*
X177500D01*
X177999D01*
Y359500D01*
X177500Y359000D01*
X177000D01*
X176500Y359500D01*
X179499Y359000D02*
X180499D01*
X179999D01*
Y361999D01*
X179499Y361499D01*
M02*
