G04 Layer_Physical_Order=2*
G04 Layer_Color=16711680*
%FSLAX25Y25*%
%MOIN*%
G70*
G01*
G75*
%ADD17C,0.06000*%
%ADD21C,0.01000*%
%ADD25C,0.02500*%
%ADD27C,0.07874*%
%ADD28C,0.06890*%
%ADD29R,0.07800X0.07800*%
%ADD30C,0.07800*%
%ADD31C,0.07284*%
%ADD32C,0.11929*%
%ADD33C,0.02000*%
G36*
X347047Y340036D02*
X346961Y339600D01*
X347116Y338820D01*
X347471Y338289D01*
Y331000D01*
X347587Y330415D01*
X347919Y329919D01*
X349805Y328032D01*
X349603Y327544D01*
X349465Y326500D01*
X349603Y325456D01*
X350006Y324483D01*
X350647Y323647D01*
X351483Y323006D01*
X352456Y322603D01*
X353500Y322465D01*
X354544Y322603D01*
X355032Y322805D01*
X363471Y314367D01*
Y298033D01*
X353066Y287629D01*
X350780D01*
X350731Y288127D01*
X351001Y288180D01*
X351745Y288678D01*
X361622Y298555D01*
X362120Y299299D01*
X362294Y300177D01*
X362120Y301055D01*
X361622Y301799D01*
X360878Y302297D01*
X360000Y302471D01*
X359122Y302297D01*
X358378Y301799D01*
X349173Y292594D01*
X317248D01*
X317020Y293022D01*
X317194Y293900D01*
X317020Y294778D01*
X316522Y295522D01*
X295522Y316522D01*
X294778Y317020D01*
X293900Y317194D01*
X284250D01*
X283719Y317725D01*
X283628Y318184D01*
X283945Y318571D01*
X285829D01*
X286181Y318219D01*
X286678Y317887D01*
X287263Y317771D01*
X314300D01*
X314671Y317466D01*
Y316800D01*
X314787Y316215D01*
X315119Y315719D01*
X335491Y295346D01*
X335616Y294720D01*
X336058Y294058D01*
X336720Y293616D01*
X337500Y293461D01*
X338280Y293616D01*
X338942Y294058D01*
X339384Y294720D01*
X339539Y295500D01*
X339384Y296280D01*
X338942Y296942D01*
X338280Y297384D01*
X337654Y297509D01*
X317729Y317434D01*
Y319889D01*
X318084Y320420D01*
X318239Y321200D01*
X318084Y321980D01*
X317642Y322642D01*
X316980Y323084D01*
X316200Y323239D01*
X315420Y323084D01*
X314758Y322642D01*
X314316Y321980D01*
X314192Y321354D01*
X313667Y320829D01*
X304146D01*
X303954Y321291D01*
X306534Y323871D01*
X320866D01*
X326371Y318367D01*
Y314111D01*
X326016Y313580D01*
X325861Y312800D01*
X326016Y312020D01*
X326458Y311358D01*
X327120Y310916D01*
X327900Y310761D01*
X328680Y310916D01*
X329342Y311358D01*
X329784Y312020D01*
X329939Y312800D01*
X329784Y313580D01*
X329429Y314111D01*
Y319000D01*
X329313Y319585D01*
X328981Y320081D01*
X322581Y326481D01*
X322085Y326813D01*
X321500Y326929D01*
X305900D01*
X305315Y326813D01*
X304819Y326481D01*
X301167Y322829D01*
X298419D01*
X298184Y323270D01*
X298484Y323720D01*
X298608Y324346D01*
X303333Y329071D01*
X323366D01*
X330519Y321919D01*
X331015Y321587D01*
X331600Y321471D01*
X341000D01*
X341585Y321587D01*
X342081Y321919D01*
X344881Y324719D01*
X345213Y325215D01*
X345329Y325800D01*
Y340371D01*
X346600D01*
X346694Y340389D01*
X347047Y340036D01*
D02*
G37*
G36*
X217308Y324172D02*
X217099Y324144D01*
X215970Y323676D01*
X215001Y322933D01*
X214257Y321963D01*
X213789Y320834D01*
X213629Y319622D01*
X213789Y318410D01*
X214257Y317281D01*
X215001Y316312D01*
X215779Y315714D01*
X215619Y315240D01*
X212400D01*
X211815Y315124D01*
X211319Y314792D01*
X208523Y311997D01*
X207712Y312333D01*
X206500Y312493D01*
X205288Y312333D01*
X204159Y311865D01*
X203278Y311189D01*
X202829Y311410D01*
Y316022D01*
X203278Y316244D01*
X204159Y315567D01*
X205288Y315100D01*
X206500Y314940D01*
X207712Y315100D01*
X208841Y315567D01*
X209810Y316312D01*
X210555Y317281D01*
X211022Y318410D01*
X211182Y319622D01*
X211022Y320834D01*
X210686Y321645D01*
X213712Y324671D01*
X217275D01*
X217308Y324172D01*
D02*
G37*
G36*
X317014Y354076D02*
X312319Y349381D01*
X311987Y348885D01*
X311871Y348300D01*
Y341600D01*
X311987Y341015D01*
X312319Y340519D01*
X314091Y338746D01*
X314216Y338120D01*
X314658Y337458D01*
X315320Y337016D01*
X316100Y336861D01*
X316880Y337016D01*
X317542Y337458D01*
X317984Y338120D01*
X318139Y338900D01*
X317984Y339680D01*
X317542Y340342D01*
X316880Y340784D01*
X316254Y340909D01*
X314929Y342233D01*
Y344218D01*
X315427Y344267D01*
X315516Y343820D01*
X315958Y343158D01*
X316620Y342716D01*
X317246Y342592D01*
X318919Y340919D01*
X319415Y340587D01*
X320000Y340471D01*
X342271D01*
Y326433D01*
X340826Y324989D01*
X340385Y325224D01*
X340539Y326000D01*
X340384Y326780D01*
X339942Y327442D01*
X339280Y327884D01*
X338654Y328009D01*
X330798Y335865D01*
X330302Y336196D01*
X329717Y336313D01*
X311050D01*
X306502Y340861D01*
X306647Y341340D01*
X306885Y341387D01*
X307381Y341719D01*
X309378Y343715D01*
X309709Y344211D01*
X309826Y344796D01*
Y350115D01*
X310554Y350844D01*
X311180Y350968D01*
X311842Y351410D01*
X312284Y352072D01*
X312439Y352852D01*
X312284Y353632D01*
X311973Y354097D01*
X312209Y354538D01*
X316822D01*
X317014Y354076D01*
D02*
G37*
G36*
X309335Y333702D02*
X309831Y333370D01*
X310417Y333254D01*
X329083D01*
X336491Y325846D01*
X336616Y325220D01*
X336783Y324970D01*
X336547Y324529D01*
X332234D01*
X325081Y331681D01*
X324585Y332013D01*
X324000Y332129D01*
X302700D01*
X302115Y332013D01*
X301619Y331681D01*
X296446Y326508D01*
X295820Y326384D01*
X295158Y325942D01*
X294716Y325280D01*
X294561Y324500D01*
X294716Y323720D01*
X295016Y323270D01*
X294780Y322829D01*
X291266D01*
X290913Y323183D01*
Y323450D01*
X301754Y334292D01*
X302380Y334416D01*
X303042Y334858D01*
X303484Y335520D01*
X303639Y336300D01*
X303484Y337080D01*
X303042Y337742D01*
X302380Y338184D01*
X302289Y338202D01*
X302144Y338681D01*
X302733Y339271D01*
X303766D01*
X309335Y333702D01*
D02*
G37*
G36*
X349015Y287513D02*
X348519Y287181D01*
X335067Y273729D01*
X314300D01*
Y276071D01*
X332100D01*
X332685Y276187D01*
X333181Y276519D01*
X337654Y280992D01*
X338280Y281116D01*
X338942Y281558D01*
X339384Y282220D01*
X339539Y283000D01*
X339384Y283780D01*
X338942Y284442D01*
X338280Y284884D01*
X337500Y285039D01*
X336720Y284884D01*
X336058Y284442D01*
X335616Y283780D01*
X335491Y283154D01*
X331467Y279129D01*
X314300D01*
Y282500D01*
X304500D01*
Y279373D01*
X304010Y279276D01*
X303680Y280071D01*
X302895Y281095D01*
X301871Y281880D01*
X300679Y282374D01*
X299400Y282542D01*
X298121Y282374D01*
X298105Y282367D01*
X297828Y282783D01*
X303050Y288006D01*
X348917D01*
X349015Y287513D01*
D02*
G37*
G36*
X345463Y279106D02*
X345347Y278828D01*
X345178Y277539D01*
X345347Y276251D01*
X345845Y275050D01*
X346636Y274018D01*
X347668Y273227D01*
X348239Y272990D01*
X348141Y272500D01*
X338816D01*
X338625Y272962D01*
X345047Y279384D01*
X345463Y279106D01*
D02*
G37*
G36*
X243831Y367538D02*
X238587Y362294D01*
X192800D01*
X191922Y362120D01*
X191178Y361622D01*
X179578Y350022D01*
X179080Y349278D01*
X178906Y348400D01*
Y299000D01*
X179080Y298122D01*
X179578Y297378D01*
X182578Y294378D01*
X183322Y293881D01*
X184200Y293706D01*
X205550D01*
X215878Y283378D01*
X216622Y282880D01*
X217500Y282706D01*
X257641D01*
X257738Y282215D01*
X256929Y281880D01*
X255905Y281095D01*
X255120Y280071D01*
X254626Y278879D01*
X254458Y277600D01*
X254626Y276321D01*
X255120Y275129D01*
X255905Y274105D01*
X256929Y273320D01*
X257724Y272990D01*
X257627Y272500D01*
X172500D01*
Y368000D01*
X243639D01*
X243831Y367538D01*
D02*
G37*
G36*
X287778Y275978D02*
X288522Y275481D01*
X289400Y275306D01*
X290278Y275481D01*
X291022Y275978D01*
X294217Y279172D01*
X294633Y278895D01*
X294626Y278879D01*
X294458Y277600D01*
X294626Y276321D01*
X295120Y275129D01*
X295850Y274178D01*
X295628Y273729D01*
X285434D01*
X283784Y275379D01*
X284174Y276321D01*
X284342Y277600D01*
X284174Y278879D01*
X284167Y278895D01*
X284583Y279172D01*
X287778Y275978D01*
D02*
G37*
G36*
X365471Y295054D02*
Y290134D01*
X361873Y286536D01*
X361160Y286830D01*
X360000Y286983D01*
X358840Y286830D01*
X357758Y286383D01*
X356830Y285670D01*
X356117Y284742D01*
X355669Y283660D01*
X355517Y282500D01*
X355669Y281340D01*
X356117Y280258D01*
X356830Y279330D01*
X357758Y278617D01*
X358840Y278169D01*
X360000Y278017D01*
X361160Y278169D01*
X362242Y278617D01*
X363170Y279330D01*
X363883Y280258D01*
X364331Y281340D01*
X364483Y282500D01*
X364331Y283660D01*
X364036Y284373D01*
X367038Y287375D01*
X367500Y287184D01*
Y272500D01*
X352174D01*
X352076Y272990D01*
X352647Y273227D01*
X353678Y274018D01*
X354470Y275050D01*
X354967Y276251D01*
X355137Y277539D01*
X354967Y278828D01*
X354470Y280029D01*
X353678Y281061D01*
X352647Y281852D01*
X351446Y282349D01*
X350157Y282519D01*
X348869Y282349D01*
X348591Y282234D01*
X348313Y282650D01*
X350234Y284571D01*
X353700D01*
X354285Y284687D01*
X354781Y285019D01*
X365009Y295246D01*
X365471Y295054D01*
D02*
G37*
G36*
X214907Y334622D02*
X214257Y333774D01*
X213789Y332645D01*
X213629Y331433D01*
X213789Y330221D01*
X214257Y329092D01*
X214958Y328178D01*
X214737Y327729D01*
X213078D01*
X212493Y327613D01*
X211997Y327281D01*
X208523Y323808D01*
X207712Y324144D01*
X206500Y324304D01*
X205288Y324144D01*
X204159Y323676D01*
X203278Y323000D01*
X202829Y323221D01*
Y327834D01*
X203278Y328055D01*
X204159Y327379D01*
X205288Y326911D01*
X206500Y326751D01*
X207712Y326911D01*
X208841Y327379D01*
X209810Y328122D01*
X210555Y329092D01*
X211022Y330221D01*
X211182Y331433D01*
X211022Y332645D01*
X210555Y333774D01*
X209904Y334622D01*
X210125Y335071D01*
X214686D01*
X214907Y334622D01*
D02*
G37*
G36*
X350393Y359022D02*
X350006Y358517D01*
X349603Y357544D01*
X349465Y356500D01*
X349603Y355456D01*
X350006Y354483D01*
X350647Y353647D01*
X351483Y353006D01*
X352456Y352603D01*
X353500Y352466D01*
X354544Y352603D01*
X355517Y353006D01*
X356353Y353647D01*
X356994Y354483D01*
X357397Y355456D01*
X357496Y356207D01*
X357969Y356368D01*
X365471Y348867D01*
Y317346D01*
X365009Y317154D01*
X357195Y324968D01*
X357397Y325456D01*
X357535Y326500D01*
X357397Y327544D01*
X356994Y328517D01*
X356353Y329353D01*
X355517Y329994D01*
X354544Y330397D01*
X353500Y330535D01*
X352456Y330397D01*
X351968Y330195D01*
X350529Y331633D01*
Y333172D01*
X350978Y333393D01*
X351483Y333006D01*
X352456Y332603D01*
X353500Y332466D01*
X354544Y332603D01*
X355517Y333006D01*
X356353Y333647D01*
X356994Y334483D01*
X357397Y335456D01*
X357535Y336500D01*
X357397Y337544D01*
X356994Y338517D01*
X356353Y339353D01*
X355517Y339994D01*
X354544Y340397D01*
X353500Y340534D01*
X352456Y340397D01*
X351483Y339994D01*
X351406Y339935D01*
X350938Y340111D01*
X350884Y340380D01*
X350442Y341042D01*
X350067Y341292D01*
X350213Y341771D01*
X350300D01*
X350885Y341887D01*
X351381Y342219D01*
X351968Y342805D01*
X352456Y342603D01*
X353500Y342465D01*
X354544Y342603D01*
X355517Y343006D01*
X356353Y343647D01*
X356994Y344483D01*
X357397Y345456D01*
X357535Y346500D01*
X357397Y347544D01*
X356994Y348517D01*
X356353Y349353D01*
X355517Y349994D01*
X354544Y350397D01*
X353500Y350535D01*
X352456Y350397D01*
X351483Y349994D01*
X350647Y349353D01*
X350006Y348517D01*
X349603Y347544D01*
X349465Y346500D01*
X349569Y345715D01*
X349519Y345681D01*
X348667Y344829D01*
X348000D01*
X347415Y344713D01*
X346919Y344381D01*
X346066Y343529D01*
X320634D01*
X319408Y344754D01*
X319284Y345380D01*
X318842Y346042D01*
X318180Y346484D01*
X317400Y346639D01*
X316620Y346484D01*
X315958Y346042D01*
X315516Y345380D01*
X315427Y344933D01*
X314929Y344982D01*
Y347667D01*
X319133Y351871D01*
X329689D01*
X330220Y351516D01*
X331000Y351361D01*
X331780Y351516D01*
X332442Y351958D01*
X332884Y352620D01*
X332988Y353144D01*
X333467Y353289D01*
X341878Y344878D01*
X342622Y344380D01*
X343500Y344206D01*
X344378Y344380D01*
X345122Y344878D01*
X345620Y345622D01*
X345794Y346500D01*
X345620Y347378D01*
X345122Y348122D01*
X334790Y358455D01*
X334046Y358952D01*
X333939Y358973D01*
X333988Y359471D01*
X350172D01*
X350393Y359022D01*
D02*
G37*
G36*
X255869Y364481D02*
X251006Y359619D01*
X250565Y359855D01*
X250594Y360000D01*
X250419Y360878D01*
X249922Y361622D01*
X249178Y362120D01*
X248300Y362294D01*
X245729D01*
X245537Y362756D01*
X247737Y364956D01*
X255552D01*
X255869Y364481D01*
D02*
G37*
G36*
X267546Y351791D02*
X267354Y351329D01*
X258311D01*
X257780Y351684D01*
X257000Y351839D01*
X256220Y351684D01*
X255558Y351242D01*
X255116Y350580D01*
X254961Y349800D01*
X255116Y349020D01*
X255558Y348358D01*
X256220Y347916D01*
X257000Y347761D01*
X257780Y347916D01*
X258311Y348271D01*
X267866D01*
X274991Y341146D01*
X275077Y340716D01*
X274849Y340438D01*
X274349Y340413D01*
X272081Y342681D01*
X271585Y343013D01*
X271000Y343129D01*
X253969D01*
X253383Y343013D01*
X252887Y342681D01*
X225446Y315240D01*
X221003D01*
X220843Y315714D01*
X221621Y316312D01*
X222365Y317281D01*
X222833Y318410D01*
X222993Y319622D01*
X222833Y320834D01*
X222365Y321963D01*
X221621Y322933D01*
X220652Y323676D01*
X219523Y324144D01*
X219314Y324172D01*
X219347Y324671D01*
X230500D01*
X231085Y324787D01*
X231581Y325119D01*
X244654Y338192D01*
X245280Y338316D01*
X245942Y338758D01*
X246384Y339420D01*
X246539Y340200D01*
X246384Y340980D01*
X245942Y341642D01*
X245280Y342084D01*
X244500Y342239D01*
X244224Y342184D01*
X243988Y342625D01*
X254854Y353491D01*
X255480Y353616D01*
X256142Y354058D01*
X256584Y354720D01*
X256739Y355500D01*
X256584Y356280D01*
X256142Y356942D01*
X255480Y357384D01*
X254700Y357539D01*
X253920Y357384D01*
X253561Y357144D01*
X253243Y357531D01*
X257275Y361562D01*
X257775D01*
X267546Y351791D01*
D02*
G37*
G36*
X266178Y359278D02*
X279764Y345691D01*
X279573Y345229D01*
X278433D01*
X259181Y364481D01*
X259499Y364956D01*
X260500D01*
X266178Y359278D01*
D02*
G37*
G36*
X367500Y351816D02*
X367038Y351625D01*
X356581Y362081D01*
X356085Y362413D01*
X355500Y362529D01*
X304340D01*
X304022Y362916D01*
X304039Y363000D01*
X303884Y363780D01*
X303442Y364442D01*
X302780Y364884D01*
X302000Y365039D01*
X301220Y364884D01*
X300689Y364529D01*
X275311D01*
X274780Y364884D01*
X274000Y365039D01*
X273220Y364884D01*
X272558Y364442D01*
X272116Y363780D01*
X271961Y363000D01*
X272116Y362220D01*
X272558Y361558D01*
X273220Y361116D01*
X274000Y360961D01*
X274780Y361116D01*
X275311Y361471D01*
X300689D01*
X301220Y361116D01*
X301384Y361083D01*
X301529Y360605D01*
X298819Y357894D01*
X298487Y357398D01*
X298371Y356813D01*
Y351011D01*
X298016Y350480D01*
X297861Y349700D01*
X297970Y349151D01*
X297529Y348915D01*
X292222Y354222D01*
X291478Y354719D01*
X290600Y354894D01*
X289722Y354719D01*
X288978Y354222D01*
X288480Y353478D01*
X288306Y352600D01*
Y348794D01*
X283150D01*
X269422Y362522D01*
X264406Y367538D01*
X264598Y368000D01*
X340666D01*
X340715Y367502D01*
X340120Y367384D01*
X339458Y366942D01*
X339348Y366777D01*
X321159D01*
X320628Y367132D01*
X319848Y367287D01*
X319068Y367132D01*
X318406Y366690D01*
X317964Y366028D01*
X317809Y365248D01*
X317964Y364468D01*
X318406Y363806D01*
X319068Y363364D01*
X319848Y363209D01*
X320628Y363364D01*
X321159Y363719D01*
X339966D01*
X340120Y363616D01*
X340900Y363461D01*
X341680Y363616D01*
X342342Y364058D01*
X342784Y364720D01*
X342939Y365500D01*
X342784Y366280D01*
X342342Y366942D01*
X341680Y367384D01*
X341085Y367502D01*
X341085Y367502D01*
X341085Y367502D01*
X341134Y368000D01*
X367500D01*
Y351816D01*
D02*
G37*
G36*
X277904Y334467D02*
X274919Y331481D01*
X274587Y330985D01*
X274471Y330400D01*
Y328446D01*
X274009Y328254D01*
X272881Y329381D01*
X272385Y329713D01*
X271800Y329829D01*
X271711D01*
X271180Y330184D01*
X270400Y330339D01*
X269620Y330184D01*
X269229Y330393D01*
Y331366D01*
X272792Y334929D01*
X277713D01*
X277904Y334467D01*
D02*
G37*
G36*
X242209Y340640D02*
X242283Y340145D01*
X229867Y327729D01*
X221885D01*
X221664Y328178D01*
X222365Y329092D01*
X222833Y330221D01*
X222993Y331433D01*
X222833Y332645D01*
X222365Y333774D01*
X221715Y334622D01*
X221936Y335071D01*
X235800D01*
X236385Y335187D01*
X236881Y335519D01*
X242075Y340712D01*
X242209Y340640D01*
D02*
G37*
G36*
X292258Y341858D02*
X292920Y341416D01*
X293284Y341344D01*
X293429Y340865D01*
X292894Y340329D01*
X279240D01*
X278923Y340716D01*
X279039Y341300D01*
X278943Y341784D01*
X279260Y342171D01*
X292049D01*
X292258Y341858D01*
D02*
G37*
G36*
X248681Y357294D02*
X246917Y355529D01*
X230811D01*
X230280Y355884D01*
X229500Y356039D01*
X228720Y355884D01*
X228058Y355442D01*
X227616Y354780D01*
X227489Y354144D01*
X227028Y353953D01*
X226980Y353984D01*
X226200Y354139D01*
X225420Y353984D01*
X224889Y353629D01*
X216059D01*
X215528Y353984D01*
X214748Y354139D01*
X213968Y353984D01*
X213306Y353542D01*
X212864Y352880D01*
X212709Y352100D01*
X212864Y351320D01*
X213306Y350658D01*
X213968Y350216D01*
X214748Y350061D01*
X215528Y350216D01*
X216059Y350571D01*
X224889D01*
X225420Y350216D01*
X226200Y350061D01*
X226980Y350216D01*
X227642Y350658D01*
X228084Y351320D01*
X228211Y351956D01*
X228673Y352148D01*
X228720Y352116D01*
X229500Y351961D01*
X230280Y352116D01*
X230811Y352471D01*
X247550D01*
X248135Y352587D01*
X248631Y352919D01*
X252669Y356957D01*
X253056Y356639D01*
X252816Y356280D01*
X252692Y355654D01*
X235167Y338129D01*
X218846D01*
X218813Y338628D01*
X219523Y338722D01*
X220652Y339190D01*
X221621Y339933D01*
X222365Y340903D01*
X222833Y342032D01*
X222993Y343244D01*
X222833Y344456D01*
X222365Y345585D01*
X221621Y346554D01*
X220652Y347299D01*
X219523Y347766D01*
X218311Y347926D01*
X217099Y347766D01*
X215970Y347299D01*
X215001Y346554D01*
X214257Y345585D01*
X213789Y344456D01*
X213629Y343244D01*
X213789Y342032D01*
X214257Y340903D01*
X215001Y339933D01*
X215970Y339190D01*
X217099Y338722D01*
X217809Y338628D01*
X217776Y338129D01*
X207035D01*
X207002Y338628D01*
X207712Y338722D01*
X208841Y339190D01*
X209810Y339933D01*
X210555Y340903D01*
X211022Y342032D01*
X211182Y343244D01*
X211022Y344456D01*
X210555Y345585D01*
X209810Y346554D01*
X208841Y347299D01*
X207712Y347766D01*
X206500Y347926D01*
X205288Y347766D01*
X204159Y347299D01*
X203189Y346554D01*
X202446Y345585D01*
X201978Y344456D01*
X201818Y343244D01*
X201978Y342032D01*
X202446Y340903D01*
X203189Y339933D01*
X204159Y339190D01*
X205288Y338722D01*
X205998Y338628D01*
X205965Y338129D01*
X203900D01*
X203315Y338013D01*
X202819Y337681D01*
X200219Y335081D01*
X199887Y334585D01*
X199771Y334000D01*
Y305300D01*
X199887Y304715D01*
X200219Y304219D01*
X202919Y301519D01*
X203415Y301187D01*
X204000Y301071D01*
X213100D01*
X213685Y301187D01*
X214181Y301519D01*
X216288Y303625D01*
X217099Y303289D01*
X218311Y303129D01*
X219523Y303289D01*
X220652Y303756D01*
X221621Y304501D01*
X222365Y305470D01*
X222833Y306599D01*
X222993Y307811D01*
X222833Y309023D01*
X222365Y310152D01*
X221621Y311122D01*
X220857Y311708D01*
X221018Y312182D01*
X226080D01*
X226665Y312298D01*
X227161Y312630D01*
X227597Y313066D01*
X228076Y312921D01*
X228116Y312720D01*
X228558Y312058D01*
X229220Y311616D01*
X230000Y311461D01*
X230780Y311616D01*
X231442Y312058D01*
X231884Y312720D01*
X232009Y313346D01*
X256633Y337971D01*
X258391D01*
X258625Y337533D01*
X258451Y336655D01*
Y325578D01*
X258625Y324700D01*
X259123Y323956D01*
X267350Y315728D01*
X268095Y315230D01*
X268973Y315056D01*
X279900D01*
X281678Y313278D01*
X282422Y312780D01*
X283300Y312606D01*
X292950D01*
X312500Y293056D01*
X312308Y292594D01*
X302100D01*
X301222Y292420D01*
X300478Y291922D01*
X289400Y280844D01*
X283622Y286622D01*
X282878Y287120D01*
X282000Y287294D01*
X218450D01*
X208122Y297622D01*
X207378Y298119D01*
X206500Y298294D01*
X193646D01*
X193477Y298765D01*
X194441Y299555D01*
X195311Y300616D01*
X195958Y301826D01*
X196356Y303139D01*
X196491Y304504D01*
X196356Y305869D01*
X195958Y307182D01*
X195311Y308392D01*
X194441Y309453D01*
X193380Y310323D01*
X192170Y310969D01*
X190858Y311368D01*
X189492Y311502D01*
X188127Y311368D01*
X186814Y310969D01*
X185604Y310323D01*
X184544Y309453D01*
X183965Y308747D01*
X183494Y308916D01*
Y330328D01*
X183965Y330497D01*
X184544Y329792D01*
X185604Y328921D01*
X186814Y328275D01*
X188127Y327876D01*
X189492Y327742D01*
X190858Y327876D01*
X192170Y328275D01*
X193380Y328921D01*
X194441Y329792D01*
X195311Y330852D01*
X195958Y332062D01*
X196356Y333375D01*
X196491Y334740D01*
X196356Y336105D01*
X195958Y337418D01*
X195311Y338628D01*
X194441Y339689D01*
X193380Y340559D01*
X192170Y341206D01*
X190858Y341604D01*
X189492Y341739D01*
X188127Y341604D01*
X186814Y341206D01*
X185604Y340559D01*
X184544Y339689D01*
X183965Y338983D01*
X183494Y339152D01*
Y347450D01*
X193750Y357706D01*
X248300D01*
X248445Y357735D01*
X248681Y357294D01*
D02*
G37*
%LPC*%
G36*
X218311Y300682D02*
X217099Y300522D01*
X215970Y300055D01*
X215001Y299310D01*
X214257Y298341D01*
X213789Y297212D01*
X213629Y296000D01*
X213789Y294788D01*
X214257Y293659D01*
X215001Y292689D01*
X215970Y291946D01*
X217099Y291478D01*
X218311Y291318D01*
X219523Y291478D01*
X220652Y291946D01*
X221621Y292689D01*
X222365Y293659D01*
X222833Y294788D01*
X222993Y296000D01*
X222833Y297212D01*
X222365Y298341D01*
X221621Y299310D01*
X220652Y300055D01*
X219523Y300522D01*
X218311Y300682D01*
D02*
G37*
G36*
X241500Y313539D02*
X240720Y313384D01*
X240058Y312942D01*
X239616Y312280D01*
X239461Y311500D01*
X239616Y310720D01*
X239971Y310189D01*
Y293000D01*
X240087Y292415D01*
X240419Y291919D01*
X241991Y290346D01*
X242116Y289720D01*
X242558Y289058D01*
X243220Y288616D01*
X244000Y288461D01*
X244780Y288616D01*
X245442Y289058D01*
X245884Y289720D01*
X246039Y290500D01*
X245884Y291280D01*
X245442Y291942D01*
X244780Y292384D01*
X244154Y292509D01*
X243029Y293634D01*
Y310189D01*
X243384Y310720D01*
X243539Y311500D01*
X243384Y312280D01*
X242942Y312942D01*
X242280Y313384D01*
X241500Y313539D01*
D02*
G37*
%LPD*%
D17*
X343500Y346500D02*
D03*
X353500Y326500D02*
D03*
Y336500D02*
D03*
Y346500D02*
D03*
Y356500D02*
D03*
D21*
X241500Y293000D02*
X244000Y290500D01*
X241500Y293000D02*
Y311500D01*
X340648Y365248D02*
X340900Y365500D01*
X319848Y365248D02*
X340648D01*
X318500Y353400D02*
X331000D01*
X313400Y348300D02*
X318500Y353400D01*
X313400Y341600D02*
Y348300D01*
Y341600D02*
X316100Y338900D01*
X350600Y344600D02*
X353500D01*
X350300Y343300D02*
X353500Y346500D01*
X348000Y343300D02*
X350300D01*
X348000Y342000D02*
X350600Y344600D01*
X320000Y342000D02*
X348000D01*
X346600Y341900D02*
X348000Y343300D01*
X343800Y341900D02*
X346600D01*
X329717Y334783D02*
X338500Y326000D01*
X343800Y325800D02*
Y341900D01*
X341000Y323000D02*
X343800Y325800D01*
X331600Y323000D02*
X341000D01*
X284900Y328600D02*
X291200Y334900D01*
X278500Y328600D02*
X284900D01*
X296600Y324500D02*
X302700Y330600D01*
X324000D01*
X331600Y323000D01*
X230000Y313500D02*
X256000Y339500D01*
X262100D01*
X265600Y336000D01*
Y325200D02*
Y336000D01*
Y325200D02*
X270700Y320100D01*
X286463D01*
X287263Y319300D01*
X314300D01*
X316200Y321200D01*
X360000Y282500D02*
X367000Y289500D01*
Y349500D01*
X355500Y361000D02*
X367000Y349500D01*
X304087Y361000D02*
X355500D01*
X299900Y356813D02*
X304087Y361000D01*
X299900Y349700D02*
Y356813D01*
X270400Y328300D02*
X271800D01*
X276000Y324100D01*
X289400D01*
X301600Y336300D01*
X206500Y319622D02*
X213078Y326200D01*
X230500D01*
X244500Y340200D01*
X268500Y349800D02*
X277000Y341300D01*
X257000Y349800D02*
X268500D01*
X279500Y333900D02*
X281700D01*
X276000Y330400D02*
X279500Y333900D01*
X276000Y327100D02*
Y330400D01*
Y327100D02*
X277000Y326100D01*
X287400D01*
X302100Y340800D01*
X304400D01*
X310417Y334783D01*
X329717D01*
X353500Y344600D02*
Y346500D01*
X317400Y344600D02*
X320000Y342000D01*
X308296Y350748D02*
X310400Y352852D01*
X308296Y344796D02*
Y350748D01*
X306300Y342800D02*
X308296Y344796D01*
X297527Y342800D02*
X306300D01*
X293527Y338800D02*
X297527Y342800D01*
X273800Y338800D02*
X293527D01*
X271000Y341600D02*
X273800Y338800D01*
X253969Y341600D02*
X271000D01*
X226080Y313711D02*
X253969Y341600D01*
X212400Y313711D02*
X226080D01*
X206500Y307811D02*
X212400Y313711D01*
X353500Y326500D02*
X365000Y315000D01*
Y297400D02*
Y315000D01*
X353700Y286100D02*
X365000Y297400D01*
X279400Y277600D02*
X284800Y272200D01*
X286342Y336458D02*
X286700Y336100D01*
X272158Y336458D02*
X286342D01*
X267700Y332000D02*
X272158Y336458D01*
X267700Y326400D02*
Y332000D01*
Y326400D02*
X272000Y322100D01*
X289600D01*
X290400Y321300D01*
X301800D01*
X305900Y325400D01*
X321500D01*
X327900Y319000D01*
Y312800D02*
Y319000D01*
X213100Y302600D02*
X218311Y307811D01*
X204000Y302600D02*
X213100D01*
X201300Y305300D02*
X204000Y302600D01*
X201300Y305300D02*
Y334000D01*
X203900Y336600D01*
X235800D01*
X254700Y355500D01*
X229500Y354000D02*
X247550D01*
X256950Y363400D01*
X258100D01*
X277800Y343700D01*
X293300D01*
X293700Y343300D01*
X214748Y352100D02*
X226200D01*
X349000Y331000D02*
Y339600D01*
Y331000D02*
X353500Y326500D01*
X274000Y363000D02*
X302000D01*
X316200Y316800D02*
Y321200D01*
Y316800D02*
X337500Y295500D01*
X284800Y272200D02*
X335700D01*
X349600Y286100D01*
X353700D01*
X309400Y277600D02*
X332100D01*
X337500Y283000D01*
D25*
X293900Y314900D02*
X314900Y293900D01*
X283300Y314900D02*
X293900D01*
X281500Y316700D02*
X283300Y314900D01*
X281500Y316700D02*
Y317350D01*
X268973D02*
X281500D01*
X192800Y360000D02*
X239537D01*
X350123Y290300D02*
X360000Y300177D01*
X302100Y290300D02*
X350123D01*
X289400Y277600D02*
X302100Y290300D01*
X282000Y285000D02*
X289400Y277600D01*
X217500Y285000D02*
X282000D01*
X206500Y296000D02*
X217500Y285000D01*
X181200Y348400D02*
X192800Y360000D01*
X181200Y299000D02*
Y348400D01*
Y299000D02*
X184200Y296000D01*
X206500D01*
X282200Y346500D02*
X290600D01*
Y352600D01*
X239537Y360000D02*
X248300D01*
X239537D02*
X246787Y367250D01*
X261450D01*
X267800Y360900D01*
X260745Y325578D02*
X268973Y317350D01*
X260745Y325578D02*
Y336655D01*
X333168Y356832D02*
X343500Y346500D01*
X308000Y356832D02*
X333168D01*
X305546Y354379D02*
X308000Y356832D01*
X305546Y350697D02*
Y354379D01*
X300399Y345550D02*
X305546Y350697D01*
X297650Y345550D02*
X300399D01*
X290600Y352600D02*
X297650Y345550D01*
X267800Y360900D02*
X282200Y346500D01*
D27*
X350157Y305138D02*
D03*
Y277539D02*
D03*
D28*
X360000Y300177D02*
D03*
Y282500D02*
D03*
D29*
X309400Y277600D02*
D03*
D30*
X299400D02*
D03*
X289400D02*
D03*
X279400D02*
D03*
X269400D02*
D03*
X259400D02*
D03*
D31*
X206500Y296000D02*
D03*
Y307811D02*
D03*
Y319622D02*
D03*
Y331433D02*
D03*
Y343244D02*
D03*
X218311Y296000D02*
D03*
Y307811D02*
D03*
Y319622D02*
D03*
Y331433D02*
D03*
Y343244D02*
D03*
D32*
X189492Y304504D02*
D03*
Y334740D02*
D03*
D33*
X244000Y290500D02*
D03*
X241500Y311500D02*
D03*
X293000Y288000D02*
D03*
Y291000D02*
D03*
Y294000D02*
D03*
Y297000D02*
D03*
Y300000D02*
D03*
Y303000D02*
D03*
Y306000D02*
D03*
X290000Y289500D02*
D03*
Y292500D02*
D03*
Y295500D02*
D03*
Y298500D02*
D03*
Y301500D02*
D03*
Y304500D02*
D03*
Y307500D02*
D03*
X256500Y292500D02*
D03*
X259500D02*
D03*
X262500D02*
D03*
X265500D02*
D03*
X268500D02*
D03*
X257500Y289500D02*
D03*
X261000D02*
D03*
X264500D02*
D03*
X267500D02*
D03*
X270500D02*
D03*
X340900Y365500D02*
D03*
X319848Y365248D02*
D03*
X331000Y353400D02*
D03*
X316100Y338900D02*
D03*
X314900Y293900D02*
D03*
X239537Y360000D02*
D03*
X291200Y334900D02*
D03*
X278500Y328600D02*
D03*
X282200Y346500D02*
D03*
X290600Y352600D02*
D03*
X248300Y360000D02*
D03*
X296600Y324500D02*
D03*
X230000Y313500D02*
D03*
X316200Y321200D02*
D03*
X299900Y349700D02*
D03*
X270400Y328300D02*
D03*
X301600Y336300D02*
D03*
X281500Y317350D02*
D03*
X260745Y336655D02*
D03*
X244500Y340200D02*
D03*
X277000Y341300D02*
D03*
X257000Y349800D02*
D03*
X281700Y333900D02*
D03*
X338500Y326000D02*
D03*
X317400Y344600D02*
D03*
X310400Y352852D02*
D03*
X286700Y336100D02*
D03*
X327900Y312800D02*
D03*
X254700Y355500D02*
D03*
X267800Y360900D02*
D03*
X229500Y354000D02*
D03*
X293700Y343300D02*
D03*
X214748Y352100D02*
D03*
X226200D02*
D03*
X349000Y339600D02*
D03*
X302000Y363000D02*
D03*
X274000D02*
D03*
X337500Y295500D02*
D03*
Y283000D02*
D03*
M02*
