G04 Layer_Color=32768*
%FSLAX25Y25*%
%MOIN*%
G70*
G01*
G75*
%ADD56C,0.00394*%
%ADD58C,0.00197*%
D56*
X320000Y288130D02*
Y291870D01*
X318130Y290000D02*
X321870D01*
X236630Y277000D02*
X240370D01*
X238500Y275130D02*
Y278870D01*
X230500Y359031D02*
Y362969D01*
X228531Y361000D02*
X232469D01*
X297000Y338130D02*
Y341870D01*
X295130Y340000D02*
X298870D01*
X360228Y313500D02*
X363772D01*
X362000Y311728D02*
Y315272D01*
X289130Y327900D02*
X292870D01*
X291000Y326030D02*
Y329770D01*
X266900Y321330D02*
Y325070D01*
X265030Y323200D02*
X268770D01*
X258500Y344630D02*
Y348370D01*
X256630Y346500D02*
X260370D01*
X286500Y342130D02*
Y345870D01*
X284630Y344000D02*
X288370D01*
X272000Y333630D02*
Y337370D01*
X270130Y335500D02*
X273870D01*
X296130Y357500D02*
X299870D01*
X298000Y355630D02*
Y359370D01*
X243130Y346500D02*
X246870D01*
X245000Y344630D02*
Y348370D01*
X307300Y360130D02*
Y363870D01*
X305430Y362000D02*
X309170D01*
X315800Y360130D02*
Y363870D01*
X313930Y362000D02*
X317670D01*
X275200Y322530D02*
Y326270D01*
X273330Y324400D02*
X277070D01*
X341130Y313500D02*
X344870D01*
X343000Y311630D02*
Y315370D01*
X325400Y360130D02*
Y363870D01*
X323530Y362000D02*
X327270D01*
X319300Y329632D02*
Y333569D01*
X317331Y331600D02*
X321269D01*
X304536Y313293D02*
X334064D01*
X304536Y349907D02*
X334064D01*
Y313293D02*
Y349907D01*
X304536Y313293D02*
Y349907D01*
X211500Y360630D02*
Y364370D01*
X209630Y362500D02*
X213370D01*
X231000Y344630D02*
Y348370D01*
X229130Y346500D02*
X232870D01*
X284531Y361000D02*
X288468D01*
X286500Y359031D02*
Y362969D01*
X272031Y349100D02*
X275969D01*
X274000Y347131D02*
Y351069D01*
X262031Y361000D02*
X265969D01*
X264000Y359031D02*
Y362969D01*
X245031Y361000D02*
X248969D01*
X247000Y359031D02*
Y362969D01*
X232300Y294531D02*
Y298469D01*
X230332Y296500D02*
X234269D01*
X289900Y316030D02*
Y319770D01*
X288030Y317900D02*
X291770D01*
X323400Y351430D02*
Y355170D01*
X321530Y353300D02*
X325270D01*
X243100Y325631D02*
Y329569D01*
X241131Y327600D02*
X245069D01*
X291531Y298500D02*
X295469D01*
X293500Y296531D02*
Y300469D01*
D58*
X317047Y283898D02*
X322953D01*
X317047Y296102D02*
X322953D01*
X317047Y283898D02*
Y296102D01*
X322953Y283898D02*
Y296102D01*
X244602Y274047D02*
Y279953D01*
X232398Y274047D02*
Y279953D01*
Y274047D02*
X244602D01*
X232398Y279953D02*
X244602D01*
X223610Y353323D02*
X237390D01*
X223610Y368677D02*
X237390D01*
X223610Y353323D02*
Y368677D01*
X237390Y353323D02*
Y368677D01*
X294047Y346102D02*
X299953D01*
X294047Y333898D02*
X299953D01*
Y346102D01*
X294047Y333898D02*
Y346102D01*
X368102Y310744D02*
Y316256D01*
X355898Y310744D02*
Y316256D01*
Y310744D02*
X368102D01*
X355898Y316256D02*
X368102D01*
X297102Y324947D02*
Y330853D01*
X284898Y324947D02*
Y330853D01*
Y324947D02*
X297102D01*
X284898Y330853D02*
X297102D01*
X263947Y329302D02*
X269853D01*
X263947Y317098D02*
X269853D01*
Y329302D01*
X263947Y317098D02*
Y329302D01*
X252398Y349453D02*
X264602D01*
X252398Y343547D02*
X264602D01*
X252398D02*
Y349453D01*
X264602Y343547D02*
Y349453D01*
X283547Y350102D02*
X289453D01*
X283547Y337898D02*
X289453D01*
Y350102D01*
X283547Y337898D02*
Y350102D01*
X265898Y332547D02*
X278102D01*
X265898Y338453D02*
X278102D01*
Y332547D02*
Y338453D01*
X265898Y332547D02*
Y338453D01*
X300953Y351398D02*
Y363602D01*
X295047Y351398D02*
Y363602D01*
X300953D01*
X295047Y351398D02*
X300953D01*
X251102Y343547D02*
Y349453D01*
X238898Y343547D02*
Y349453D01*
Y343547D02*
X251102D01*
X238898Y349453D02*
X251102D01*
X304347Y368102D02*
X310253D01*
X304347Y355898D02*
X310253D01*
Y368102D01*
X304347Y355898D02*
Y368102D01*
X312847D02*
X318753D01*
X312847Y355898D02*
X318753D01*
Y368102D01*
X312847Y355898D02*
Y368102D01*
X272247Y330502D02*
X278153D01*
X272247Y318298D02*
X278153D01*
Y330502D01*
X272247Y318298D02*
Y330502D01*
X336898Y310547D02*
Y316453D01*
X349102Y310547D02*
Y316453D01*
X336898D02*
X349102D01*
X336898Y310547D02*
X349102D01*
X322447Y368102D02*
X328353D01*
X322447Y355898D02*
X328353D01*
Y368102D01*
X322447Y355898D02*
Y368102D01*
X205398Y365453D02*
X217602D01*
X205398Y359547D02*
X217602D01*
X205398D02*
Y365453D01*
X217602Y359547D02*
Y365453D01*
X224898Y343547D02*
X237102D01*
X224898Y349453D02*
X237102D01*
Y343547D02*
Y349453D01*
X224898Y343547D02*
Y349453D01*
X293390Y353323D02*
Y368677D01*
X279610Y353323D02*
Y368677D01*
X293390D01*
X279610Y353323D02*
X293390D01*
X280890Y341423D02*
Y356777D01*
X267110Y341423D02*
Y356777D01*
X280890D01*
X267110Y341423D02*
X280890D01*
X270890Y353323D02*
Y368677D01*
X257110Y353323D02*
Y368677D01*
X270890D01*
X257110Y353323D02*
X270890D01*
X253890D02*
Y368677D01*
X240110Y353323D02*
Y368677D01*
X253890D01*
X240110Y353323D02*
X253890D01*
X224820Y285280D02*
X239780D01*
X224820Y307720D02*
X239780D01*
X224820Y285280D02*
Y307720D01*
X239780Y285280D02*
Y307720D01*
X283798Y320853D02*
X296002D01*
X283798Y314947D02*
X296002D01*
X283798D02*
Y320853D01*
X296002Y314947D02*
Y320853D01*
X317298Y356253D02*
X329502D01*
X317298Y350347D02*
X329502D01*
X317298D02*
Y356253D01*
X329502Y350347D02*
Y356253D01*
X225974Y341773D02*
X260226D01*
X225974Y313427D02*
X260226D01*
X225974D02*
Y341773D01*
X260226Y313427D02*
Y341773D01*
X310626Y284327D02*
Y312673D01*
X276374Y284327D02*
Y312673D01*
Y284327D02*
X310626D01*
X276374Y312673D02*
X310626D01*
M02*
