G04 Layer_Color=16711935*
%FSLAX25Y25*%
%MOIN*%
G70*
G01*
G75*
%ADD56C,0.00394*%
%ADD57R,0.12992X0.02145*%
D56*
X316938Y345281D02*
G03*
X316938Y345281I-1969J0D01*
G01*
X318130Y286555D02*
X321870D01*
X318130Y293445D02*
X321870D01*
X318130Y286555D02*
Y293445D01*
X321870Y286555D02*
Y293445D01*
X241945Y275130D02*
Y278870D01*
X235055Y275130D02*
Y278870D01*
Y275130D02*
X241945D01*
X235055Y278870D02*
X241945D01*
X224594Y358244D02*
X236406D01*
X224594Y363756D02*
X236406D01*
X224594Y358244D02*
Y363756D01*
X236406Y358244D02*
Y363756D01*
X295130Y343445D02*
X298870D01*
X295130Y336555D02*
X298870D01*
Y343445D01*
X295130Y336555D02*
Y343445D01*
X365346Y311728D02*
Y315272D01*
X358654Y311728D02*
Y315272D01*
Y311728D02*
X365346D01*
X358654Y315272D02*
X365346D01*
X294445Y326030D02*
Y329770D01*
X287555Y326030D02*
Y329770D01*
Y326030D02*
X294445D01*
X287555Y329770D02*
X294445D01*
X265030Y326645D02*
X268770D01*
X265030Y319755D02*
X268770D01*
Y326645D01*
X265030Y319755D02*
Y326645D01*
X255055Y348370D02*
X261945D01*
X255055Y344630D02*
X261945D01*
X255055D02*
Y348370D01*
X261945Y344630D02*
Y348370D01*
X284630Y347445D02*
X288370D01*
X284630Y340555D02*
X288370D01*
Y347445D01*
X284630Y340555D02*
Y347445D01*
X268555Y333630D02*
X275445D01*
X268555Y337370D02*
X275445D01*
Y333630D02*
Y337370D01*
X268555Y333630D02*
Y337370D01*
X299870Y354055D02*
Y360945D01*
X296130Y354055D02*
Y360945D01*
X299870D01*
X296130Y354055D02*
X299870D01*
X248445Y344630D02*
Y348370D01*
X241555Y344630D02*
Y348370D01*
Y344630D02*
X248445D01*
X241555Y348370D02*
X248445D01*
X305430Y365445D02*
X309170D01*
X305430Y358555D02*
X309170D01*
Y365445D01*
X305430Y358555D02*
Y365445D01*
X313930D02*
X317670D01*
X313930Y358555D02*
X317670D01*
Y365445D01*
X313930Y358555D02*
Y365445D01*
X273330Y327845D02*
X277070D01*
X273330Y320955D02*
X277070D01*
Y327845D01*
X273330Y320955D02*
Y327845D01*
X339555Y311630D02*
Y315370D01*
X346445Y311630D02*
Y315370D01*
X339555D02*
X346445D01*
X339555Y311630D02*
X346445D01*
X323530Y365445D02*
X327270D01*
X323530Y358555D02*
X327270D01*
Y365445D01*
X323530Y358555D02*
Y365445D01*
X311426Y314376D02*
X327174D01*
X311426Y348824D02*
X327174D01*
Y314376D02*
Y348824D01*
X311426Y314376D02*
Y348824D01*
X208055Y364370D02*
X214945D01*
X208055Y360630D02*
X214945D01*
X208055D02*
Y364370D01*
X214945Y360630D02*
Y364370D01*
X227555Y344630D02*
X234445D01*
X227555Y348370D02*
X234445D01*
Y344630D02*
Y348370D01*
X227555Y344630D02*
Y348370D01*
X292406Y358244D02*
Y363756D01*
X280594Y358244D02*
Y363756D01*
X292406D01*
X280594Y358244D02*
X292406D01*
X279906Y346344D02*
Y351856D01*
X268094Y346344D02*
Y351856D01*
X279906D01*
X268094Y346344D02*
X279906D01*
X269906Y358244D02*
Y363756D01*
X258094Y358244D02*
Y363756D01*
X269906D01*
X258094Y358244D02*
X269906D01*
X252906D02*
Y363756D01*
X241094Y358244D02*
Y363756D01*
X252906D01*
X241094Y358244D02*
X252906D01*
X225804Y288528D02*
X238796D01*
X225804Y304472D02*
X238796D01*
X225804Y288528D02*
Y304472D01*
X238796Y288528D02*
Y304472D01*
X286455Y319770D02*
X293345D01*
X286455Y316030D02*
X293345D01*
X286455D02*
Y319770D01*
X293345Y316030D02*
Y319770D01*
X319955Y355170D02*
X326845D01*
X319955Y351430D02*
X326845D01*
X319955D02*
Y355170D01*
X326845Y351430D02*
Y355170D01*
X235817Y340789D02*
X250383D01*
X235817Y314411D02*
X250383D01*
X235817D02*
Y340789D01*
X250383Y314411D02*
Y340789D01*
X300783Y285311D02*
Y311689D01*
X286217Y285311D02*
Y311689D01*
Y285311D02*
X300783D01*
X286217Y311689D02*
X300783D01*
D57*
X232291Y289600D02*
D03*
M02*
