G04 Layer_Color=16711935*
%FSLAX25Y25*%
%MOIN*%
G70*
G01*
G75*
%ADD21C,0.01000*%
%ADD55C,0.00600*%
D21*
X149500Y270000D02*
X168500D01*
X149500Y370000D02*
X168500D01*
X150500Y270000D02*
Y297806D01*
Y338994D02*
Y370000D01*
Y270000D02*
X152500Y276000D01*
X148500D02*
X150500Y270000D01*
X148500Y364000D02*
X150500Y370000D01*
X152500Y364000D01*
X170000Y251000D02*
Y268500D01*
X370500Y251000D02*
Y268500D01*
X170000Y252000D02*
X247556D01*
X289744D02*
X370500D01*
X170000D02*
X176000Y250000D01*
X170000Y252000D02*
X176000Y254000D01*
X364500D02*
X370500Y252000D01*
X364500Y250000D02*
X370500Y252000D01*
D55*
X154099Y299406D02*
Y301406D01*
Y300406D01*
X148101D01*
X149101Y299406D01*
Y304404D02*
X148101Y305404D01*
Y307403D01*
X149101Y308403D01*
X153099D01*
X154099Y307403D01*
Y305404D01*
X153099Y304404D01*
X149101D01*
Y310403D02*
X148101Y311402D01*
Y313402D01*
X149101Y314401D01*
X153099D01*
X154099Y313402D01*
Y311402D01*
X153099Y310403D01*
X149101D01*
Y316401D02*
X148101Y317400D01*
Y319400D01*
X149101Y320399D01*
X153099D01*
X154099Y319400D01*
Y317400D01*
X153099Y316401D01*
X149101D01*
X154099Y322399D02*
X153099D01*
Y323398D01*
X154099D01*
Y322399D01*
X149101Y327397D02*
X148101Y328397D01*
Y330396D01*
X149101Y331396D01*
X153099D01*
X154099Y330396D01*
Y328397D01*
X153099Y327397D01*
X149101D01*
Y333395D02*
X148101Y334395D01*
Y336394D01*
X149101Y337394D01*
X153099D01*
X154099Y336394D01*
Y334395D01*
X153099Y333395D01*
X149101D01*
X253155Y248401D02*
X249156D01*
X253155Y252400D01*
Y253399D01*
X252155Y254399D01*
X250156D01*
X249156Y253399D01*
X255154D02*
X256154Y254399D01*
X258153D01*
X259153Y253399D01*
Y249401D01*
X258153Y248401D01*
X256154D01*
X255154Y249401D01*
Y253399D01*
X261152D02*
X262152Y254399D01*
X264152D01*
X265151Y253399D01*
Y249401D01*
X264152Y248401D01*
X262152D01*
X261152Y249401D01*
Y253399D01*
X271149Y254399D02*
X267150D01*
Y251400D01*
X269150Y252400D01*
X270149D01*
X271149Y251400D01*
Y249401D01*
X270149Y248401D01*
X268150D01*
X267150Y249401D01*
X273148Y248401D02*
Y249401D01*
X274148D01*
Y248401D01*
X273148D01*
X278147Y253399D02*
X279147Y254399D01*
X281146D01*
X282146Y253399D01*
Y249401D01*
X281146Y248401D01*
X279147D01*
X278147Y249401D01*
Y253399D01*
X284145D02*
X285145Y254399D01*
X287144D01*
X288144Y253399D01*
Y249401D01*
X287144Y248401D01*
X285145D01*
X284145Y249401D01*
Y253399D01*
M02*
