G04 Layer_Physical_Order=1*
G04 Layer_Color=255*
%FSLAX25Y25*%
%MOIN*%
G70*
G01*
G75*
%ADD10R,0.03937X0.03937*%
%ADD11R,0.03937X0.03937*%
%ADD12R,0.03150X0.03543*%
%ADD13R,0.05512X0.05906*%
%ADD14R,0.03150X0.03150*%
%ADD15O,0.08661X0.02362*%
%ADD16R,0.09843X0.09843*%
%ADD17C,0.06000*%
%ADD18R,0.10236X0.07874*%
%ADD19R,0.09449X0.12992*%
%ADD20R,0.09449X0.03937*%
%ADD21C,0.01000*%
%ADD22C,0.02362*%
%ADD23C,0.01500*%
%ADD24C,0.01772*%
%ADD25C,0.02500*%
%ADD26C,0.02250*%
%ADD27C,0.07874*%
%ADD28C,0.06890*%
%ADD29R,0.07800X0.07800*%
%ADD30C,0.07800*%
%ADD31C,0.07284*%
%ADD32C,0.11929*%
%ADD33C,0.02000*%
G36*
X282419Y326819D02*
X282915Y326487D01*
X283500Y326371D01*
X284784D01*
Y324932D01*
X286223D01*
Y323948D01*
X286339Y323363D01*
X286671Y322867D01*
X288519Y321019D01*
X288616Y320953D01*
X288471Y320475D01*
X284176D01*
Y319684D01*
X283306D01*
X282901Y319955D01*
X282050Y320124D01*
X281952Y320104D01*
X281500Y320194D01*
X281147Y320124D01*
X279472D01*
X278169Y321428D01*
Y324120D01*
X274489D01*
X274429Y324264D01*
X274707Y324679D01*
X278169D01*
Y326259D01*
X278629Y326567D01*
X278654Y326591D01*
X279280Y326716D01*
X279942Y327158D01*
X280384Y327820D01*
X280452Y328162D01*
X280930Y328307D01*
X282419Y326819D01*
D02*
G37*
G36*
X349519Y318219D02*
X350015Y317887D01*
X350600Y317771D01*
X358519D01*
X359753Y316537D01*
X359562Y316075D01*
X356472D01*
Y315029D01*
X349217D01*
Y316469D01*
X343280D01*
Y310531D01*
X349217D01*
Y311971D01*
X356472D01*
Y310925D01*
X361622D01*
Y314015D01*
X361962Y314156D01*
X362378Y313878D01*
Y310925D01*
X367500D01*
Y272500D01*
X352174D01*
X352076Y272990D01*
X352647Y273227D01*
X353678Y274018D01*
X354470Y275050D01*
X354967Y276251D01*
X355137Y277539D01*
X354967Y278828D01*
X354470Y280029D01*
X353678Y281061D01*
X352647Y281852D01*
X351446Y282349D01*
X350157Y282519D01*
X348869Y282349D01*
X347668Y281852D01*
X346636Y281061D01*
X345845Y280029D01*
X345347Y278828D01*
X345178Y277539D01*
X345347Y276251D01*
X345845Y275050D01*
X346636Y274018D01*
X347668Y273227D01*
X348239Y272990D01*
X348141Y272500D01*
X317916D01*
X317725Y272962D01*
X326281Y281519D01*
X326613Y282015D01*
X326729Y282600D01*
Y310707D01*
X327120Y310916D01*
X327900Y310761D01*
X328680Y310916D01*
X329342Y311358D01*
X329784Y312020D01*
X329939Y312800D01*
X329784Y313580D01*
X329547Y313935D01*
X329783Y314376D01*
X331898D01*
X332608Y314517D01*
X332844Y314076D01*
X328490Y309722D01*
X327992Y308978D01*
X327818Y308100D01*
Y301900D01*
X327992Y301022D01*
X328490Y300278D01*
X329234Y299781D01*
X330112Y299606D01*
X337450D01*
X340178Y296878D01*
X340922Y296380D01*
X341800Y296206D01*
X354200D01*
X355078Y296380D01*
X355822Y296878D01*
X356827Y297883D01*
X360000D01*
X360878Y298058D01*
X361622Y298555D01*
X362120Y299299D01*
X362294Y300177D01*
X362120Y301055D01*
X361622Y301799D01*
X360878Y302297D01*
X360000Y302471D01*
X356068D01*
X351780Y306760D01*
X351035Y307257D01*
X350157Y307432D01*
X349279Y307257D01*
X348535Y306760D01*
X348038Y306016D01*
X347863Y305138D01*
X348038Y304260D01*
X348535Y303516D01*
X350795Y301256D01*
X350604Y300794D01*
X342750D01*
X340022Y303522D01*
X339278Y304019D01*
X338400Y304194D01*
X332406D01*
Y307150D01*
X336462Y311206D01*
X339752D01*
X340630Y311381D01*
X341374Y311878D01*
X341872Y312622D01*
X342046Y313500D01*
X341872Y314378D01*
X341374Y315122D01*
X340630Y315619D01*
X339752Y315794D01*
X335512D01*
X334634Y315619D01*
X334390Y315457D01*
X333953Y315749D01*
X334122Y316600D01*
X333953Y317451D01*
X333471Y318173D01*
X332749Y318655D01*
X331898Y318824D01*
X325599D01*
X324816Y318668D01*
X324594Y318850D01*
Y319350D01*
X324816Y319532D01*
X325599Y319376D01*
X331898D01*
X332749Y319545D01*
X333471Y320027D01*
X333500Y320071D01*
X335100D01*
X335685Y320187D01*
X336181Y320519D01*
X339581Y323919D01*
X339913Y324415D01*
X339941Y324558D01*
X339942Y324558D01*
X340384Y325220D01*
X340539Y326000D01*
X340410Y326651D01*
X340851Y326886D01*
X349519Y318219D01*
D02*
G37*
G36*
X367500Y316075D02*
X364541D01*
X360234Y320381D01*
X359738Y320713D01*
X359153Y320829D01*
X351234D01*
X342454Y329609D01*
X342646Y330071D01*
X350805D01*
X350965Y329597D01*
X350647Y329353D01*
X350006Y328517D01*
X349603Y327544D01*
X349465Y326500D01*
X349603Y325456D01*
X350006Y324483D01*
X350647Y323647D01*
X351483Y323006D01*
X352456Y322603D01*
X353500Y322465D01*
X354544Y322603D01*
X355517Y323006D01*
X356353Y323647D01*
X356994Y324483D01*
X357397Y325456D01*
X357535Y326500D01*
X357397Y327544D01*
X356994Y328517D01*
X356353Y329353D01*
X356018Y329610D01*
X356132Y330097D01*
X356585Y330187D01*
X357081Y330519D01*
X359081Y332519D01*
X359413Y333015D01*
X359529Y333600D01*
Y364400D01*
X359432Y364888D01*
X359413Y364985D01*
X359081Y365481D01*
X357981Y366581D01*
X357485Y366913D01*
X357036Y367002D01*
X357085Y367500D01*
X367500D01*
Y316075D01*
D02*
G37*
G36*
X268503Y348397D02*
X268312Y347935D01*
X267685D01*
Y346692D01*
X267300D01*
X266715Y346576D01*
X266219Y346244D01*
X265178Y345204D01*
X264717Y345396D01*
Y349468D01*
X263073D01*
X262829Y349833D01*
X259281Y353381D01*
X258785Y353713D01*
X258379Y353794D01*
X258428Y354291D01*
X262609D01*
X268503Y348397D01*
D02*
G37*
G36*
X343000Y334971D02*
X349804D01*
X350006Y334483D01*
X350647Y333647D01*
X350705Y333603D01*
X350544Y333129D01*
X333500D01*
X333471Y333172D01*
X332749Y333655D01*
X331898Y333824D01*
X325599D01*
X324816Y333668D01*
X324594Y333850D01*
Y334350D01*
X324816Y334532D01*
X325599Y334376D01*
X331898D01*
X332749Y334545D01*
X333471Y335028D01*
X333500Y335071D01*
X342497D01*
X343000Y334971D01*
D02*
G37*
G36*
X314758Y319758D02*
X315420Y319316D01*
X316200Y319161D01*
X316771Y319274D01*
X317157Y318957D01*
Y305853D01*
X315332D01*
Y305221D01*
X314870Y305029D01*
X310722Y309177D01*
X310642Y309231D01*
Y310524D01*
X300194D01*
Y319381D01*
X300150Y319600D01*
X300586Y319846D01*
X302671Y317938D01*
Y316600D01*
X302787Y316015D01*
X303119Y315519D01*
X303615Y315187D01*
X304200Y315071D01*
X305100D01*
X305129Y315027D01*
X305851Y314545D01*
X306702Y314376D01*
X313001D01*
X313852Y314545D01*
X314573Y315027D01*
X315055Y315749D01*
X315225Y316600D01*
X315055Y317451D01*
X314573Y318173D01*
X313852Y318655D01*
X313001Y318824D01*
X306702D01*
X305851Y318655D01*
X305730Y318705D01*
X305681Y319202D01*
X306116Y319493D01*
X306702Y319376D01*
X313001D01*
X313852Y319545D01*
X314573Y320027D01*
X314578D01*
X314758Y319758D01*
D02*
G37*
G36*
X200957Y367323D02*
X201075Y367038D01*
X200219Y366181D01*
X199887Y365685D01*
X199771Y365100D01*
Y314400D01*
X199887Y313815D01*
X200219Y313319D01*
X201119Y312419D01*
X201615Y312087D01*
X202200Y311971D01*
X203518D01*
X203679Y311497D01*
X203189Y311122D01*
X202446Y310152D01*
X201978Y309023D01*
X201818Y307811D01*
X201978Y306599D01*
X202446Y305470D01*
X203189Y304501D01*
X204159Y303756D01*
X205288Y303289D01*
X206500Y303129D01*
X207712Y303289D01*
X208841Y303756D01*
X209810Y304501D01*
X210555Y305470D01*
X211022Y306599D01*
X211182Y307811D01*
X211022Y309023D01*
X210555Y310152D01*
X209810Y311122D01*
X209321Y311497D01*
X209482Y311971D01*
X215329D01*
X215490Y311497D01*
X215001Y311122D01*
X214257Y310152D01*
X213789Y309023D01*
X213629Y307811D01*
X213789Y306599D01*
X214257Y305470D01*
X215001Y304501D01*
X215970Y303756D01*
X217099Y303289D01*
X218311Y303129D01*
X219523Y303289D01*
X220652Y303756D01*
X221621Y304501D01*
X222365Y305470D01*
X222833Y306599D01*
X222993Y307811D01*
X222833Y309023D01*
X222365Y310152D01*
X221621Y311122D01*
X221132Y311497D01*
X221293Y311971D01*
X226379D01*
Y311673D01*
X226379D01*
Y299831D01*
X234977D01*
X237630Y297178D01*
X238374Y296680D01*
X239252Y296506D01*
X241733D01*
Y293863D01*
X253969D01*
Y296506D01*
X254100D01*
X254978Y296680D01*
X255722Y297178D01*
X269250Y310706D01*
X272200D01*
X273078Y310880D01*
X273822Y311378D01*
X276822Y314378D01*
X277320Y315122D01*
X277386Y315458D01*
X277802Y315735D01*
X278452Y315606D01*
X278805Y315676D01*
X279955D01*
X280622Y315230D01*
X281500Y315056D01*
X282378Y315230D01*
X283122Y315728D01*
X283322Y316027D01*
X283411Y316116D01*
X284176D01*
Y315325D01*
X289325D01*
Y319189D01*
X289600Y320571D01*
X294548D01*
X295628Y319491D01*
X295606Y319381D01*
Y308505D01*
X294878Y307777D01*
X294380Y307033D01*
X294206Y306155D01*
Y280500D01*
X294380Y279622D01*
X294722Y279111D01*
X294626Y278879D01*
X294458Y277600D01*
X294626Y276321D01*
X295120Y275129D01*
X295850Y274178D01*
X295628Y273729D01*
X283172D01*
X282950Y274178D01*
X283680Y275129D01*
X284174Y276321D01*
X284342Y277600D01*
X284174Y278879D01*
X284167Y278895D01*
X284583Y279172D01*
X287778Y275978D01*
X288522Y275481D01*
X289400Y275306D01*
X290278Y275481D01*
X291022Y275978D01*
X291519Y276722D01*
X291694Y277600D01*
X291519Y278478D01*
X291022Y279222D01*
X284377Y285868D01*
Y298500D01*
Y305750D01*
X288832Y310206D01*
X290400D01*
X291278Y310381D01*
X292022Y310878D01*
X292519Y311622D01*
X292637Y312214D01*
X294362Y313938D01*
X294362Y313938D01*
X294555Y314228D01*
X294748Y314517D01*
X294884Y315200D01*
X294884Y315200D01*
Y317850D01*
X294748Y318532D01*
X294362Y319111D01*
X293783Y319498D01*
X293100Y319634D01*
X292417Y319498D01*
X291838Y319111D01*
X291452Y318532D01*
X291316Y317850D01*
Y315939D01*
X290171Y314794D01*
X287882D01*
X287004Y314619D01*
X286260Y314122D01*
X280460Y308323D01*
X279963Y307578D01*
X279788Y306701D01*
Y300794D01*
X277183D01*
X276995Y300920D01*
X276117Y301094D01*
X266749D01*
X265871Y300920D01*
X265127Y300422D01*
X264629Y299678D01*
X264455Y298800D01*
X264629Y297922D01*
X265127Y297178D01*
X265871Y296680D01*
X266749Y296506D01*
X275352D01*
X275539Y296380D01*
X276417Y296206D01*
X279788D01*
Y284917D01*
X279963Y284039D01*
X280460Y283295D01*
X280973Y282783D01*
X280695Y282367D01*
X280679Y282374D01*
X279654Y282509D01*
X278081Y284081D01*
X277585Y284413D01*
X277000Y284529D01*
X257163D01*
X256578Y284413D01*
X256082Y284081D01*
X250530Y278529D01*
X244717D01*
Y279969D01*
X239801D01*
X239609Y280430D01*
X245081Y285903D01*
X245413Y286399D01*
X245529Y286984D01*
Y289189D01*
X245884Y289720D01*
X246039Y290500D01*
X245884Y291280D01*
X245442Y291942D01*
X244780Y292384D01*
X244000Y292539D01*
X243220Y292384D01*
X242558Y291942D01*
X242116Y291280D01*
X241961Y290500D01*
X242116Y289720D01*
X242471Y289189D01*
Y287618D01*
X238683Y283830D01*
X238221Y284022D01*
Y293169D01*
X226379D01*
Y291830D01*
X225917Y291638D01*
X222814Y294742D01*
X222833Y294788D01*
X222993Y296000D01*
X222833Y297212D01*
X222365Y298341D01*
X221621Y299310D01*
X220652Y300055D01*
X219523Y300522D01*
X218311Y300682D01*
X217099Y300522D01*
X215970Y300055D01*
X215001Y299310D01*
X214257Y298341D01*
X213789Y297212D01*
X213629Y296000D01*
X213789Y294788D01*
X214257Y293659D01*
X215001Y292689D01*
X215970Y291946D01*
X217099Y291478D01*
X218311Y291318D01*
X219523Y291478D01*
X219569Y291497D01*
X225441Y285626D01*
X226185Y285128D01*
X226379Y285090D01*
Y281327D01*
X235526D01*
X235718Y280865D01*
X234822Y279969D01*
X232283D01*
Y274031D01*
X238221D01*
Y278729D01*
X238636Y279007D01*
X238779Y278947D01*
Y274031D01*
X244717D01*
Y275471D01*
X251163D01*
X251748Y275587D01*
X252245Y275919D01*
X253996Y277670D01*
X254470Y277509D01*
X254626Y276321D01*
X255120Y275129D01*
X255905Y274105D01*
X256929Y273320D01*
X257724Y272990D01*
X257627Y272500D01*
X173000D01*
X172502Y367145D01*
X172854Y367500D01*
X200839D01*
X200957Y367323D01*
D02*
G37*
G36*
X317032Y288079D02*
Y283784D01*
X322969D01*
Y285223D01*
X323671D01*
Y283233D01*
X314762Y274325D01*
X314300Y274516D01*
Y282500D01*
X304500D01*
Y279373D01*
X304010Y279276D01*
X303680Y280071D01*
X302895Y281095D01*
X301871Y281880D01*
X300679Y282374D01*
X299400Y282542D01*
X299170Y282512D01*
X298794Y282842D01*
Y286476D01*
X299193D01*
Y286476D01*
X310642D01*
Y287151D01*
X314545D01*
X315423Y287325D01*
X316167Y287823D01*
X316522Y288178D01*
X316553Y288224D01*
X317032Y288079D01*
D02*
G37*
G36*
X323671Y310966D02*
Y288281D01*
X322969D01*
Y289721D01*
X317259D01*
X317194Y289800D01*
Y290280D01*
X322969D01*
Y296217D01*
X322224D01*
Y297947D01*
X322844D01*
Y305853D01*
X321605D01*
Y312379D01*
X322067Y312570D01*
X323671Y310966D01*
D02*
G37*
G36*
X248793Y320977D02*
Y315576D01*
X260242D01*
Y316387D01*
X260704Y316578D01*
X262108Y315174D01*
X262604Y314842D01*
X263190Y314726D01*
X266128D01*
X266319Y314264D01*
X254431Y302376D01*
X253969Y302567D01*
Y303737D01*
X241733D01*
Y301094D01*
X240202D01*
X238221Y303075D01*
Y311673D01*
X231715D01*
X231479Y312114D01*
X231884Y312720D01*
X232039Y313500D01*
X231905Y314173D01*
X232223Y314560D01*
X236954D01*
X237832Y314734D01*
X238576Y315232D01*
X239509Y316164D01*
X239971Y315973D01*
Y312811D01*
X239616Y312280D01*
X239461Y311500D01*
X239616Y310720D01*
X240058Y310058D01*
X240720Y309616D01*
X241500Y309461D01*
X242280Y309616D01*
X242942Y310058D01*
X243384Y310720D01*
X243539Y311500D01*
X243384Y312280D01*
X243029Y312811D01*
Y315866D01*
X248331Y321168D01*
X248793Y320977D01*
D02*
G37*
G36*
X313133Y300278D02*
X313877Y299781D01*
X314755Y299606D01*
X315332D01*
Y297947D01*
X317776D01*
Y296217D01*
X317032D01*
Y295621D01*
X316553Y295476D01*
X316522Y295522D01*
X315778Y296020D01*
X314900Y296194D01*
X314022Y296020D01*
X313278Y295522D01*
X312780Y294778D01*
X312606Y293900D01*
Y291739D01*
X310642D01*
Y292413D01*
X299193D01*
Y292413D01*
X299148D01*
X298794Y292767D01*
Y295532D01*
X299193D01*
Y295532D01*
X310642D01*
Y301468D01*
X299193D01*
Y301468D01*
X299148D01*
X298794Y301822D01*
Y304587D01*
X299193D01*
Y304587D01*
X308824D01*
X313133Y300278D01*
D02*
G37*
G36*
X205283Y359531D02*
X209058D01*
X210571Y358018D01*
Y346342D01*
X210097Y346181D01*
X209810Y346554D01*
X208841Y347299D01*
X207712Y347766D01*
X206500Y347926D01*
X205288Y347766D01*
X204159Y347299D01*
X203278Y346622D01*
X202829Y346844D01*
Y364467D01*
X202834Y364471D01*
X205283D01*
Y359531D01*
D02*
G37*
G36*
X330827Y367084D02*
X330603Y366544D01*
X330466Y365500D01*
X330603Y364456D01*
X331006Y363483D01*
X331647Y362647D01*
X332483Y362006D01*
X333456Y361603D01*
X334500Y361466D01*
X335544Y361603D01*
X336517Y362006D01*
X337353Y362647D01*
X337994Y363483D01*
X338196Y363971D01*
X339589D01*
X340120Y363616D01*
X340900Y363461D01*
X341680Y363616D01*
X342211Y363971D01*
X356266D01*
X356471Y363767D01*
Y359828D01*
X356022Y359607D01*
X355517Y359994D01*
X354544Y360397D01*
X353500Y360535D01*
X352456Y360397D01*
X351483Y359994D01*
X350647Y359353D01*
X350006Y358517D01*
X349804Y358029D01*
X330977D01*
Y361200D01*
X330861Y361785D01*
X330529Y362281D01*
X328368Y364442D01*
Y367500D01*
X330549D01*
X330827Y367084D01*
D02*
G37*
G36*
X261425Y366466D02*
X259637D01*
X259052Y366350D01*
X258556Y366018D01*
X253619Y361081D01*
X253287Y360585D01*
X253171Y360000D01*
Y356811D01*
X252891Y356393D01*
X252429Y356584D01*
X252524Y357063D01*
Y357560D01*
X252389Y358243D01*
X252002Y358822D01*
X252002Y358822D01*
X249562Y361262D01*
X248983Y361649D01*
X248886Y361668D01*
X248935Y362165D01*
X249575D01*
Y367500D01*
X261425D01*
Y366466D01*
D02*
G37*
G36*
X244425Y362165D02*
X247665D01*
X247714Y361668D01*
X247617Y361649D01*
X247038Y361262D01*
X246652Y360683D01*
X246516Y360000D01*
X246652Y359317D01*
X247038Y358738D01*
X249016Y356761D01*
X249092Y356380D01*
X249479Y355801D01*
X250057Y355415D01*
X250740Y355279D01*
X251423Y355415D01*
X252002Y355801D01*
X252313Y356268D01*
X252776Y356076D01*
X252661Y355500D01*
X252816Y354720D01*
X253116Y354270D01*
X252881Y353829D01*
X246634D01*
X245835Y354628D01*
Y359835D01*
X241457D01*
X241321Y360000D01*
X241185Y360683D01*
X240799Y361262D01*
X240220Y361649D01*
X239537Y361784D01*
X238854Y361649D01*
X238275Y361262D01*
X235861Y358847D01*
X234240D01*
X233828Y358765D01*
X233637Y359227D01*
X233774Y359319D01*
X237863Y363408D01*
X244425D01*
Y362165D01*
D02*
G37*
G36*
X304331Y366777D02*
X302948D01*
X302460Y366680D01*
X302363Y366661D01*
X301867Y366329D01*
X300919Y365381D01*
X300587Y364885D01*
X300474Y364316D01*
X300116Y363780D01*
X300103Y363717D01*
X297194D01*
X294892Y366018D01*
X294396Y366350D01*
X293811Y366466D01*
X289075D01*
Y367500D01*
X304331D01*
Y366777D01*
D02*
G37*
G36*
X322431Y362280D02*
X325893D01*
X326171Y361864D01*
X326111Y361720D01*
X322431D01*
Y360976D01*
X318769D01*
Y361720D01*
X312831D01*
Y355784D01*
X314016D01*
Y353800D01*
X314152Y353117D01*
X314538Y352538D01*
X315038Y352038D01*
X315038Y352038D01*
X315328Y351845D01*
X315617Y351652D01*
X316300Y351516D01*
X316300Y351516D01*
X317676D01*
Y350725D01*
D01*
Y350725D01*
X317473Y350523D01*
X315000D01*
X314264Y350376D01*
X313640Y349960D01*
X312505Y348824D01*
X306702D01*
X305851Y348655D01*
X305129Y348172D01*
X304647Y347451D01*
X304478Y346600D01*
X304647Y345749D01*
X305129Y345027D01*
X305851Y344545D01*
X306702Y344376D01*
X313001D01*
X313852Y344545D01*
X314529Y344998D01*
X314945Y344720D01*
X314921Y344600D01*
Y343634D01*
X314505Y343218D01*
X313852Y343655D01*
X313001Y343824D01*
X306702D01*
X305851Y343655D01*
X305129Y343173D01*
X304647Y342451D01*
X304478Y341600D01*
X304647Y340749D01*
X305129Y340027D01*
X305851Y339545D01*
X306702Y339376D01*
X313001D01*
X313762Y339528D01*
X313960Y339330D01*
X313890Y339101D01*
X313391Y338767D01*
X313339Y338756D01*
X313001Y338824D01*
X306702D01*
X305851Y338655D01*
X305129Y338173D01*
X304647Y337451D01*
X304479Y336607D01*
X304001Y336462D01*
X303509Y336954D01*
X303484Y337080D01*
X303042Y337742D01*
X302380Y338184D01*
X301998Y338260D01*
Y349131D01*
X301912Y349564D01*
X301939Y349700D01*
X301784Y350480D01*
X301342Y351142D01*
X300969Y351391D01*
Y357221D01*
X295031D01*
Y353446D01*
X290119Y348533D01*
X289947Y348277D01*
X289469Y348422D01*
Y350217D01*
X285694D01*
X284289Y351622D01*
Y354291D01*
X285335D01*
Y359835D01*
X280185D01*
Y354291D01*
X281230D01*
Y350988D01*
X281347Y350403D01*
X281678Y349907D01*
X282965Y348620D01*
X282730Y348179D01*
X282200Y348284D01*
X281517Y348148D01*
X280938Y347762D01*
X280124Y346947D01*
X277740D01*
X277057Y346812D01*
X276479Y346425D01*
X276092Y345846D01*
X275956Y345163D01*
X276092Y344480D01*
X276479Y343901D01*
X276703Y343751D01*
X276606Y343261D01*
X276220Y343184D01*
X275558Y342742D01*
X275408Y342517D01*
X274929Y342662D01*
Y348500D01*
X274813Y349085D01*
X274481Y349581D01*
X274174Y349787D01*
X274319Y350265D01*
X276575D01*
Y355809D01*
X275529D01*
Y361689D01*
X275884Y362220D01*
X276039Y363000D01*
X275884Y363780D01*
X275442Y364442D01*
X274780Y364884D01*
X274000Y365039D01*
X273220Y364884D01*
X272558Y364442D01*
X272116Y363780D01*
X271961Y363000D01*
X272116Y362220D01*
X272471Y361689D01*
Y355809D01*
X271425D01*
Y350454D01*
X270963Y350263D01*
X263081Y358144D01*
X262835Y358309D01*
Y359835D01*
X257685D01*
Y354291D01*
X257685D01*
Y354183D01*
X257331Y353829D01*
X256520D01*
X256284Y354270D01*
X256584Y354720D01*
X256739Y355500D01*
X256584Y356280D01*
X256229Y356811D01*
Y359366D01*
X260271Y363408D01*
X261425D01*
Y362165D01*
X265389D01*
X265625Y361724D01*
X265621Y361718D01*
X265446Y360840D01*
X265621Y359962D01*
X265956Y359461D01*
Y357063D01*
X266092Y356380D01*
X266478Y355801D01*
X267057Y355415D01*
X267740Y355279D01*
X268423Y355415D01*
X269002Y355801D01*
X269389Y356380D01*
X269525Y357063D01*
Y359431D01*
X269919Y360022D01*
X270094Y360900D01*
X269919Y361778D01*
X269422Y362522D01*
X268678Y363019D01*
X267800Y363194D01*
X266961Y363027D01*
X266575Y363345D01*
Y367500D01*
X283925D01*
Y362165D01*
X289075D01*
Y363408D01*
X293178D01*
X295031Y361554D01*
Y357780D01*
X300969D01*
Y360772D01*
X301355Y361089D01*
X302000Y360961D01*
X302780Y361116D01*
X303442Y361558D01*
X303884Y362220D01*
X303896Y362280D01*
X304331D01*
Y362280D01*
X310268D01*
Y363719D01*
X312831D01*
Y362280D01*
X318769D01*
Y363030D01*
X319155Y363347D01*
X319848Y363209D01*
X320628Y363364D01*
X321290Y363806D01*
X321732Y364468D01*
X321887Y365248D01*
X321732Y366028D01*
X321290Y366690D01*
X320794Y367021D01*
X320939Y367500D01*
X322431D01*
Y362280D01*
D02*
G37*
G36*
X227925Y366466D02*
X223838D01*
X223253Y366350D01*
X222757Y366018D01*
X218178Y361440D01*
X217717Y361631D01*
Y365469D01*
X213942D01*
X212373Y367038D01*
X212491Y367323D01*
X212609Y367500D01*
X227925D01*
Y366466D01*
D02*
G37*
G36*
X221853Y360443D02*
X222071Y360353D01*
Y346775D01*
X221621Y346554D01*
X220652Y347299D01*
X219840Y347635D01*
Y358776D01*
X221565Y360501D01*
X221853Y360443D01*
D02*
G37*
G36*
X233198Y358471D02*
X232979Y358325D01*
X232592Y357746D01*
X232456Y357063D01*
X232592Y356380D01*
X232979Y355801D01*
X233557Y355415D01*
X234240Y355279D01*
X236600D01*
X237283Y355415D01*
X237862Y355801D01*
X240223Y358163D01*
X240685Y357971D01*
Y354291D01*
X241956D01*
X242178Y353959D01*
X244919Y351219D01*
X245415Y350887D01*
X246000Y350771D01*
X254760D01*
X255077Y350384D01*
X254961Y349800D01*
X254689Y349468D01*
X252284D01*
Y343531D01*
X258221D01*
Y347100D01*
X258622Y347398D01*
X258780Y347350D01*
Y343531D01*
X263370D01*
X263687Y343145D01*
X263671Y343063D01*
Y336804D01*
X263242Y336547D01*
X263039Y336655D01*
X262864Y337533D01*
X262367Y338277D01*
X261623Y338775D01*
X260745Y338949D01*
X260242D01*
Y339624D01*
X249777D01*
Y343531D01*
X251217D01*
Y349468D01*
X245280D01*
Y345789D01*
X245136Y345729D01*
X244721Y346007D01*
Y349468D01*
X238784D01*
Y343531D01*
X242558D01*
X242971Y343119D01*
Y341511D01*
X242616Y340980D01*
X242461Y340200D01*
X242616Y339420D01*
X243058Y338758D01*
X243720Y338316D01*
X244500Y338161D01*
X245280Y338316D01*
X245942Y338758D01*
X246240Y339204D01*
X246719Y339059D01*
Y333100D01*
X246742Y332984D01*
X246634Y332853D01*
X246134Y332828D01*
X235893Y343070D01*
X236085Y343531D01*
X237216D01*
Y349468D01*
X231279D01*
Y343531D01*
X232719D01*
Y342552D01*
X232835Y341967D01*
X233167Y341471D01*
X244650Y329987D01*
X245146Y329656D01*
X245731Y329539D01*
X245742D01*
X245933Y329077D01*
X237869Y321013D01*
X237407Y321205D01*
Y335096D01*
X225958D01*
Y320104D01*
X236306D01*
X236498Y319642D01*
X236004Y319148D01*
X223309D01*
X222980Y319524D01*
X222993Y319622D01*
X222833Y320834D01*
X222365Y321963D01*
X221621Y322933D01*
X220652Y323676D01*
X219523Y324144D01*
X218311Y324304D01*
X217099Y324144D01*
X215970Y323676D01*
X215001Y322933D01*
X214257Y321963D01*
X213789Y320834D01*
X213629Y319622D01*
X213789Y318410D01*
X214257Y317281D01*
X215001Y316312D01*
X215970Y315567D01*
X216085Y315520D01*
X215988Y315029D01*
X208823D01*
X208726Y315520D01*
X208841Y315567D01*
X209810Y316312D01*
X210555Y317281D01*
X211022Y318410D01*
X211182Y319622D01*
X211022Y320834D01*
X210555Y321963D01*
X209810Y322933D01*
X208841Y323676D01*
X207712Y324144D01*
X206500Y324304D01*
X205288Y324144D01*
X204159Y323676D01*
X203278Y323000D01*
X202829Y323221D01*
Y327834D01*
X203278Y328055D01*
X204159Y327379D01*
X205288Y326911D01*
X206500Y326751D01*
X207712Y326911D01*
X208841Y327379D01*
X209810Y328122D01*
X210555Y329092D01*
X211022Y330221D01*
X211182Y331433D01*
X211022Y332645D01*
X210686Y333456D01*
X213181Y335952D01*
X213513Y336448D01*
X213629Y337033D01*
Y341136D01*
X214120Y341233D01*
X214257Y340903D01*
X215001Y339933D01*
X215970Y339190D01*
X217099Y338722D01*
X218311Y338562D01*
X219523Y338722D01*
X220652Y339190D01*
X221621Y339933D01*
X221621Y339933D01*
X221621D01*
X222071Y339713D01*
Y337355D01*
X220334Y335619D01*
X219523Y335955D01*
X218311Y336115D01*
X217099Y335955D01*
X215970Y335488D01*
X215001Y334743D01*
X214257Y333774D01*
X213789Y332645D01*
X213629Y331433D01*
X213789Y330221D01*
X214257Y329092D01*
X215001Y328122D01*
X215970Y327379D01*
X217099Y326911D01*
X218311Y326751D01*
X219523Y326911D01*
X220652Y327379D01*
X221621Y328122D01*
X222365Y329092D01*
X222833Y330221D01*
X222993Y331433D01*
X222833Y332645D01*
X222497Y333456D01*
X224681Y335641D01*
X225013Y336137D01*
X225129Y336722D01*
Y343531D01*
X230720D01*
Y349468D01*
X227729D01*
Y350789D01*
X228084Y351320D01*
X228211Y351956D01*
X228673Y352148D01*
X228720Y352116D01*
X229500Y351961D01*
X230280Y352116D01*
X230942Y352558D01*
X231384Y353220D01*
X231539Y354000D01*
X231384Y354780D01*
X230942Y355442D01*
X230280Y355884D01*
X229654Y356009D01*
X229335Y356328D01*
Y358871D01*
X232692D01*
X233006Y358933D01*
X233198Y358471D01*
D02*
G37*
G36*
X328367Y355419D02*
X329312Y354473D01*
X329116Y354180D01*
X329066Y353930D01*
X328588Y353785D01*
X327811Y354562D01*
X327232Y354948D01*
X326550Y355084D01*
X325867Y354948D01*
X325288Y354562D01*
X324901Y353983D01*
X324765Y353300D01*
X324901Y352617D01*
X325288Y352038D01*
X328188Y349138D01*
X328643Y348834D01*
X328545Y348344D01*
X328066Y348249D01*
X327487Y347862D01*
X327100Y347283D01*
X326964Y346600D01*
X327100Y345917D01*
X327487Y345338D01*
X328066Y344952D01*
X328749Y344816D01*
X334571D01*
X335222Y344380D01*
X336100Y344206D01*
X343500D01*
X344378Y344380D01*
X345122Y344878D01*
X345620Y345622D01*
X345794Y346500D01*
X345620Y347378D01*
X345122Y348122D01*
X344378Y348620D01*
X343500Y348794D01*
X336266D01*
X336149Y349383D01*
X335762Y349962D01*
X335762Y349962D01*
X334062Y351662D01*
X333483Y352048D01*
X333059Y352133D01*
X332867Y352595D01*
X332884Y352620D01*
X333039Y353400D01*
X332884Y354180D01*
X332651Y354530D01*
X332886Y354971D01*
X349804D01*
X350006Y354483D01*
X350647Y353647D01*
X351483Y353006D01*
X352456Y352603D01*
X353500Y352466D01*
X354544Y352603D01*
X355517Y353006D01*
X356022Y353393D01*
X356471Y353172D01*
Y349828D01*
X356022Y349607D01*
X355517Y349994D01*
X354544Y350397D01*
X353500Y350535D01*
X352456Y350397D01*
X351483Y349994D01*
X350647Y349353D01*
X350006Y348517D01*
X349603Y347544D01*
X349465Y346500D01*
X349603Y345456D01*
X350006Y344483D01*
X350647Y343647D01*
X351483Y343006D01*
X352456Y342603D01*
X353500Y342465D01*
X354544Y342603D01*
X355517Y343006D01*
X356022Y343393D01*
X356471Y343172D01*
Y339828D01*
X356022Y339607D01*
X355517Y339994D01*
X354544Y340397D01*
X353500Y340534D01*
X352456Y340397D01*
X351483Y339994D01*
X351406Y339935D01*
X350938Y340111D01*
X350884Y340380D01*
X350442Y341042D01*
X349780Y341484D01*
X349154Y341609D01*
X348081Y342681D01*
X347585Y343013D01*
X347000Y343129D01*
X333500D01*
X333471Y343173D01*
X332749Y343655D01*
X331898Y343824D01*
X325599D01*
X324748Y343655D01*
X324027Y343173D01*
X323545Y342451D01*
X323375Y341600D01*
X323545Y340749D01*
X324027Y340027D01*
X324748Y339545D01*
X325599Y339376D01*
X331898D01*
X332749Y339545D01*
X333471Y340027D01*
X333500Y340071D01*
X346367D01*
X346991Y339446D01*
X347116Y338820D01*
X347349Y338470D01*
X347114Y338029D01*
X343403D01*
X342900Y338129D01*
X333500D01*
X333471Y338173D01*
X332749Y338655D01*
X331898Y338824D01*
X325599D01*
X324748Y338655D01*
X324027Y338173D01*
X323998Y338129D01*
X323512Y338032D01*
X323415Y338013D01*
X322919Y337681D01*
X322267Y337030D01*
X321805Y337221D01*
Y341361D01*
X322154Y341710D01*
X322154Y341710D01*
X322443Y342142D01*
X322636Y342431D01*
X322805Y343282D01*
Y346527D01*
X322805Y346527D01*
X322636Y347378D01*
X322424Y347695D01*
Y348600D01*
X322255Y349451D01*
X321984Y349855D01*
Y350725D01*
X322825D01*
Y355784D01*
X328123D01*
X328367Y355419D01*
D02*
G37*
%LPC*%
G36*
X360000Y286983D02*
X358840Y286830D01*
X357758Y286383D01*
X356830Y285670D01*
X356117Y284742D01*
X355669Y283660D01*
X355517Y282500D01*
X355669Y281340D01*
X356117Y280258D01*
X356830Y279330D01*
X357758Y278617D01*
X358840Y278169D01*
X360000Y278017D01*
X361160Y278169D01*
X362242Y278617D01*
X363170Y279330D01*
X363883Y280258D01*
X364331Y281340D01*
X364483Y282500D01*
X364331Y283660D01*
X363883Y284742D01*
X363170Y285670D01*
X362242Y286383D01*
X361160Y286830D01*
X360000Y286983D01*
D02*
G37*
G36*
X337500Y297539D02*
X336720Y297384D01*
X336058Y296942D01*
X335616Y296280D01*
X335461Y295500D01*
X335616Y294720D01*
X335971Y294189D01*
Y284311D01*
X335616Y283780D01*
X335461Y283000D01*
X335616Y282220D01*
X336058Y281558D01*
X336720Y281116D01*
X337500Y280961D01*
X338280Y281116D01*
X338942Y281558D01*
X339384Y282220D01*
X339539Y283000D01*
X339384Y283780D01*
X339029Y284311D01*
Y294189D01*
X339384Y294720D01*
X339539Y295500D01*
X339384Y296280D01*
X338942Y296942D01*
X338280Y297384D01*
X337500Y297539D01*
D02*
G37*
G36*
X189492Y311502D02*
X188127Y311368D01*
X186814Y310969D01*
X185604Y310323D01*
X184544Y309453D01*
X183673Y308392D01*
X183027Y307182D01*
X182628Y305869D01*
X182494Y304504D01*
X182628Y303139D01*
X183027Y301826D01*
X183673Y300616D01*
X184544Y299555D01*
X185604Y298685D01*
X186814Y298039D01*
X188127Y297640D01*
X189492Y297506D01*
X190858Y297640D01*
X192170Y298039D01*
X193380Y298685D01*
X194441Y299555D01*
X195311Y300616D01*
X195958Y301826D01*
X196356Y303139D01*
X196491Y304504D01*
X196356Y305869D01*
X195958Y307182D01*
X195311Y308392D01*
X194441Y309453D01*
X193380Y310323D01*
X192170Y310969D01*
X190858Y311368D01*
X189492Y311502D01*
D02*
G37*
G36*
Y341739D02*
X188127Y341604D01*
X186814Y341206D01*
X185604Y340559D01*
X184544Y339689D01*
X183673Y338628D01*
X183027Y337418D01*
X182628Y336105D01*
X182494Y334740D01*
X182628Y333375D01*
X183027Y332062D01*
X183673Y330852D01*
X184544Y329792D01*
X185604Y328921D01*
X186814Y328275D01*
X188127Y327876D01*
X189492Y327742D01*
X190858Y327876D01*
X192170Y328275D01*
X193380Y328921D01*
X194441Y329792D01*
X195311Y330852D01*
X195958Y332062D01*
X196356Y333375D01*
X196491Y334740D01*
X196356Y336105D01*
X195958Y337418D01*
X195311Y338628D01*
X194441Y339689D01*
X193380Y340559D01*
X192170Y341206D01*
X190858Y341604D01*
X189492Y341739D01*
D02*
G37*
G36*
X310268Y361720D02*
X304331D01*
Y355784D01*
X305804D01*
X305887Y355367D01*
X306219Y354871D01*
X308391Y352698D01*
X308516Y352072D01*
X308958Y351410D01*
X309620Y350968D01*
X310400Y350813D01*
X311180Y350968D01*
X311842Y351410D01*
X312284Y352072D01*
X312439Y352852D01*
X312284Y353632D01*
X311842Y354294D01*
X311180Y354736D01*
X310554Y354860D01*
X310082Y355333D01*
X310268Y355784D01*
X310268D01*
X310268Y355784D01*
Y361720D01*
D02*
G37*
G36*
X290240Y358847D02*
X289557Y358712D01*
X288979Y358325D01*
X288592Y357746D01*
X288456Y357063D01*
Y352960D01*
X288592Y352277D01*
X288979Y351698D01*
X289338Y351338D01*
X289917Y350952D01*
X290600Y350816D01*
X291283Y350952D01*
X291862Y351338D01*
X292249Y351917D01*
X292384Y352600D01*
X292249Y353283D01*
X292024Y353618D01*
Y357063D01*
X291889Y357746D01*
X291502Y358325D01*
X290923Y358712D01*
X290240Y358847D01*
D02*
G37*
%LPD*%
D10*
X320000Y286752D02*
D03*
Y293248D02*
D03*
X297000Y343248D02*
D03*
Y336752D02*
D03*
X266900Y326448D02*
D03*
Y319952D02*
D03*
X286500Y347248D02*
D03*
Y340752D02*
D03*
X298000Y360748D02*
D03*
Y354252D02*
D03*
X307300Y365248D02*
D03*
Y358752D02*
D03*
X315800Y365248D02*
D03*
Y358752D02*
D03*
X275200Y327648D02*
D03*
Y321152D02*
D03*
X325400Y365248D02*
D03*
Y358752D02*
D03*
D11*
X241748Y277000D02*
D03*
X235252D02*
D03*
X294248Y327900D02*
D03*
X287752D02*
D03*
X255252Y346500D02*
D03*
X261748D02*
D03*
X275248Y335500D02*
D03*
X268752D02*
D03*
X248248Y346500D02*
D03*
X241752D02*
D03*
X339752Y313500D02*
D03*
X346248D02*
D03*
X208252Y362500D02*
D03*
X214748D02*
D03*
X234248Y346500D02*
D03*
X227752D02*
D03*
D12*
X226760Y357063D02*
D03*
X234240D02*
D03*
X230500Y364937D02*
D03*
X286500D02*
D03*
X290240Y357063D02*
D03*
X282760D02*
D03*
X274000Y353037D02*
D03*
X277740Y345163D02*
D03*
X270260D02*
D03*
X264000Y364937D02*
D03*
X267740Y357063D02*
D03*
X260260D02*
D03*
X247000Y364937D02*
D03*
X250740Y357063D02*
D03*
X243260D02*
D03*
D13*
X330112Y301900D02*
D03*
X319088D02*
D03*
D14*
X364953Y313500D02*
D03*
X359047D02*
D03*
X286750Y317900D02*
D03*
X293050D02*
D03*
X320250Y353300D02*
D03*
X326550D02*
D03*
D15*
X328749Y316600D02*
D03*
Y321600D02*
D03*
Y326600D02*
D03*
Y331600D02*
D03*
Y336600D02*
D03*
Y341600D02*
D03*
Y346600D02*
D03*
X309851Y316600D02*
D03*
Y321600D02*
D03*
Y326600D02*
D03*
Y331600D02*
D03*
Y336600D02*
D03*
Y341600D02*
D03*
Y346600D02*
D03*
D16*
X232300Y287248D02*
D03*
Y305752D02*
D03*
D17*
X334500Y365500D02*
D03*
X343500Y346500D02*
D03*
X353500Y326500D02*
D03*
Y336500D02*
D03*
Y346500D02*
D03*
Y356500D02*
D03*
D18*
X247851Y298800D02*
D03*
X266749D02*
D03*
D19*
X231683Y327600D02*
D03*
X282083Y298500D02*
D03*
D20*
X254517Y336655D02*
D03*
Y327600D02*
D03*
Y318545D02*
D03*
X304917Y289445D02*
D03*
Y298500D02*
D03*
Y307555D02*
D03*
D21*
X244000Y286984D02*
Y290500D01*
X235252Y278236D02*
X244000Y286984D01*
X262800Y323000D02*
Y328132D01*
Y320100D02*
Y323000D01*
X241500Y311500D02*
Y316500D01*
X248000Y323000D01*
X262800D01*
X235252Y277000D02*
Y278236D01*
X279400Y277600D02*
Y280600D01*
X277000Y283000D02*
X279400Y280600D01*
X257163Y283000D02*
X277000D01*
X251163Y277000D02*
X257163Y283000D01*
X241748Y277000D02*
X251163D01*
X325200Y282600D02*
Y311600D01*
X320000Y286752D02*
X324952D01*
X325400Y365248D02*
X329448Y361200D01*
Y356500D02*
Y361200D01*
X334500Y365500D02*
X356900D01*
X302000Y364300D02*
X302948Y365248D01*
X307300D01*
X315800D02*
X319848D01*
X307300D02*
X315800D01*
X302000Y363000D02*
Y364300D01*
X307300Y355952D02*
X310400Y352852D01*
X307300Y355952D02*
Y358752D01*
X316100Y337600D02*
Y338900D01*
X315100Y336600D02*
X316100Y337600D01*
X295181Y322100D02*
X297900Y319381D01*
X289600Y322100D02*
X295181D01*
X287752Y323948D02*
X289600Y322100D01*
X287752Y323948D02*
Y327900D01*
X283500D02*
X287752D01*
X280283Y331117D02*
X283500Y327900D01*
X272610Y331117D02*
X280283D01*
X272562Y331068D02*
X272610Y331117D01*
X259863Y331068D02*
X272562D01*
X262948Y319952D02*
X266900D01*
X262800Y320100D02*
X262948Y319952D01*
X259863Y331068D02*
X262800Y328132D01*
X245731Y331068D02*
X259863D01*
X234248Y342552D02*
X245731Y331068D01*
X234248Y342552D02*
Y346500D01*
X299800Y331100D02*
X300000Y330900D01*
Y322772D02*
Y330900D01*
Y322772D02*
X304200Y318572D01*
Y316600D02*
Y318572D01*
X316450Y343000D02*
Y344600D01*
X294300Y326800D02*
Y327900D01*
X266900Y328300D02*
X270400D01*
X327900Y312800D02*
Y316600D01*
X304200D02*
X309851D01*
X300469Y337431D02*
X301600Y336300D01*
X300469Y337431D02*
Y349131D01*
X299900Y349700D02*
X300469Y349131D01*
X305000Y326600D02*
X309851D01*
X304000Y327600D02*
X305000Y326600D01*
X338500Y325000D02*
Y326000D01*
X335100Y321600D02*
X338500Y325000D01*
X328749Y321600D02*
X335100D01*
X328749Y326600D02*
X334400D01*
X336400Y328600D02*
X341300D01*
X334400Y326600D02*
X336400Y328600D01*
X329448Y356500D02*
X331000Y354948D01*
X243260Y355040D02*
Y357063D01*
Y355040D02*
X246000Y352300D01*
X258200D01*
X261748Y348752D01*
Y346500D02*
Y348752D01*
X282760Y350988D02*
Y357063D01*
Y350988D02*
X286500Y347248D01*
X291200Y347452D02*
X298000Y354252D01*
X291200Y334900D02*
Y347452D01*
X277548Y327648D02*
X278500Y328600D01*
X275200Y327648D02*
X277548D01*
X329448Y356500D02*
X353500D01*
X294248Y327900D02*
X294300D01*
Y326800D02*
X296600Y324500D01*
X309851Y341600D02*
X315050D01*
X211248Y366000D02*
X214748Y362500D01*
X202200Y366000D02*
X211248D01*
X201300Y365100D02*
X202200Y366000D01*
X201300Y314400D02*
Y365100D01*
Y314400D02*
X202200Y313500D01*
X230000D01*
X316200Y321200D02*
Y330400D01*
X315000Y331600D02*
X316200Y330400D01*
X309851Y331600D02*
X315000D01*
X266900Y326448D02*
Y328300D01*
X301600Y336300D02*
X302000D01*
X304000Y334300D01*
Y327600D02*
Y334300D01*
X237229Y364937D02*
X247000D01*
X232692Y360400D02*
X237229Y364937D01*
X223600Y360400D02*
X232692D01*
X223600Y336722D02*
Y360400D01*
X218311Y331433D02*
X223600Y336722D01*
X223838Y364937D02*
X230500D01*
X218311Y359410D02*
X223838Y364937D01*
X218311Y343244D02*
Y359410D01*
X244500Y340200D02*
Y343752D01*
X241752Y346500D02*
X244500Y343752D01*
X206500Y331433D02*
X212100Y337033D01*
Y358652D01*
X208252Y362500D02*
X212100Y358652D01*
X299300Y331600D02*
X299800Y331100D01*
X286600Y331600D02*
X299300D01*
X284200Y334000D02*
X286600Y331600D01*
X284200Y334000D02*
Y336000D01*
X278900Y341300D02*
X284200Y336000D01*
X277000Y341300D02*
X278900D01*
X257000Y348248D02*
Y349800D01*
X255252Y346500D02*
X257000Y348248D01*
X275248Y335500D02*
X280100D01*
X281700Y333900D01*
X316450Y344600D02*
X317400D01*
X315050Y341600D02*
X316450Y343000D01*
X331000Y353400D02*
Y354948D01*
X309851Y336600D02*
X315100D01*
X248248Y333100D02*
Y346500D01*
Y333100D02*
X262300D01*
X265200Y336000D01*
Y343063D01*
X267300Y345163D01*
X270260D01*
X341300Y328600D02*
X350600Y319300D01*
X359153D01*
X364953Y313500D01*
X286500Y336300D02*
Y340752D01*
Y336300D02*
X286700Y336100D01*
X327900Y316600D02*
X328749D01*
X254700Y355500D02*
Y360000D01*
X259637Y364937D01*
X264000D01*
X271700Y324148D02*
X275200Y327648D01*
X271700Y317955D02*
Y324148D01*
X270000Y316255D02*
X271700Y317955D01*
X263190Y316255D02*
X270000D01*
X260900Y318545D02*
X263190Y316255D01*
X254517Y318545D02*
X260900D01*
X226760Y356740D02*
Y357063D01*
Y356740D02*
X229500Y354000D01*
X293700Y343300D02*
X296948D01*
X297000Y343248D01*
X214748Y352100D02*
Y362500D01*
X226200Y348052D02*
Y352100D01*
Y348052D02*
X227752Y346500D01*
X328749Y341600D02*
X347000D01*
X349000Y339600D01*
X274000Y353037D02*
Y363000D01*
X268752Y335500D02*
X273400Y340148D01*
Y348500D01*
X270563D02*
X273400D01*
X262000Y357063D02*
X270563Y348500D01*
X260260Y357063D02*
X262000D01*
X304000Y321600D02*
X309851D01*
X302000Y323600D02*
X304000Y321600D01*
X302000Y323600D02*
Y331752D01*
X297000Y336752D02*
X302000Y331752D01*
X269400Y277600D02*
X274800Y272200D01*
X314800D01*
X325200Y282600D01*
X322900Y313900D02*
X325200Y311600D01*
X322900Y313900D02*
Y335500D01*
X324000Y336600D01*
X328749D01*
X286500Y364937D02*
X293811D01*
X298000Y360748D01*
X343000Y336500D02*
X353500D01*
X342900Y336600D02*
X343000Y336500D01*
X328749Y336600D02*
X342900D01*
X328749Y331600D02*
X356000D01*
X358000Y333600D01*
Y364400D01*
X356900Y365500D02*
X358000Y364400D01*
X346248Y313500D02*
X359047D01*
X337500Y283000D02*
Y295500D01*
D22*
X319088Y301900D02*
X320000Y300988D01*
Y293248D02*
Y300988D01*
X320200Y346908D02*
Y348600D01*
X315800Y358752D02*
X325400D01*
X320200Y346908D02*
X320581Y346527D01*
Y343282D02*
Y346527D01*
X319581Y342282D02*
X320581Y343282D01*
X319581Y335489D02*
Y342282D01*
X319381Y335289D02*
X319581Y335489D01*
X319381Y302193D02*
Y335289D01*
X319088Y301900D02*
X319381Y302193D01*
X278452Y317900D02*
X281500D01*
Y317350D02*
X282050Y317900D01*
D23*
X328749Y346600D02*
X336000D01*
X326550Y353300D02*
X329450Y350400D01*
X332800D01*
X334500Y348700D01*
Y346600D02*
Y348700D01*
X320200Y348600D02*
Y353300D01*
X320250D01*
X316300D02*
X320200D01*
X315800Y353800D02*
Y358752D01*
Y353800D02*
X316300Y353300D01*
X290400Y312500D02*
X293100Y315200D01*
Y317850D01*
X282050Y317900D02*
X286950D01*
X336000Y346600D02*
X336100Y346500D01*
X250740Y357063D02*
Y357560D01*
X248300Y360000D02*
X250740Y357560D01*
X277740Y345163D02*
X280863D01*
X282200Y346500D01*
X290240Y352960D02*
X290600Y352600D01*
X290240Y352960D02*
Y357063D01*
X236600D02*
X239537Y360000D01*
X234240Y357063D02*
X236600D01*
X267740D02*
Y360840D01*
D24*
X315000Y348600D02*
X320200D01*
X313000Y346600D02*
X315000Y348600D01*
X309851Y346600D02*
X313000D01*
D25*
X282083Y306701D02*
X287882Y312500D01*
X290400D01*
X297900Y307555D02*
Y319381D01*
X282083Y298500D02*
Y306701D01*
X297900Y307555D02*
X304917D01*
X296500Y306155D02*
X297900Y307555D01*
X296500Y280500D02*
Y306155D01*
Y280500D02*
X299400Y277600D01*
X314755Y301900D02*
X319088D01*
X309100Y307555D02*
X314755Y301900D01*
X304917Y307555D02*
X309100D01*
X314900Y289800D02*
Y293900D01*
X314545Y289445D02*
X314900Y289800D01*
X304917Y289445D02*
X314545D01*
X354200Y298500D02*
X355877Y300177D01*
X350157Y305138D02*
X355118Y300177D01*
X282083Y284917D02*
Y298500D01*
Y284917D02*
X289400Y277600D01*
X267740Y360840D02*
X267800Y360900D01*
X275200Y316000D02*
Y321152D01*
X272200Y313000D02*
X275200Y316000D01*
X268300Y313000D02*
X272200D01*
X254100Y298800D02*
X268300Y313000D01*
X247851Y298800D02*
X254100D01*
X275200Y321152D02*
X278452Y317900D01*
X281500Y317350D02*
Y317900D01*
X254517Y336655D02*
X260745D01*
X239252Y298800D02*
X247851D01*
X232300Y305752D02*
X239252Y298800D01*
X227063Y287248D02*
X232300D01*
X218311Y296000D02*
X227063Y287248D01*
X218311Y319622D02*
X221079Y316854D01*
X236954D01*
X247700Y327600D01*
X254517D01*
X335512Y313500D02*
X339752D01*
X330112Y308100D02*
X335512Y313500D01*
X330112Y301900D02*
Y308100D01*
X276417Y298500D02*
X282083D01*
X276117Y298800D02*
X276417Y298500D01*
X266749Y298800D02*
X276117D01*
X336100Y346500D02*
X343500D01*
X355877Y300177D02*
X360000D01*
X341800Y298500D02*
X354200D01*
X338400Y301900D02*
X341800Y298500D01*
X330112Y301900D02*
X338400D01*
D26*
X355877Y300177D02*
X360000D01*
X355118D02*
X355877D01*
D27*
X350157Y305138D02*
D03*
Y277539D02*
D03*
D28*
X360000Y300177D02*
D03*
Y282500D02*
D03*
D29*
X309400Y277600D02*
D03*
D30*
X299400D02*
D03*
X289400D02*
D03*
X279400D02*
D03*
X269400D02*
D03*
X259400D02*
D03*
D31*
X206500Y296000D02*
D03*
Y307811D02*
D03*
Y319622D02*
D03*
Y331433D02*
D03*
Y343244D02*
D03*
X218311Y296000D02*
D03*
Y307811D02*
D03*
Y319622D02*
D03*
Y331433D02*
D03*
Y343244D02*
D03*
D32*
X189492Y304504D02*
D03*
Y334740D02*
D03*
D33*
X244000Y290500D02*
D03*
X241500Y311500D02*
D03*
X293000Y288000D02*
D03*
Y291000D02*
D03*
Y294000D02*
D03*
Y297000D02*
D03*
Y300000D02*
D03*
Y303000D02*
D03*
Y306000D02*
D03*
X290000Y289500D02*
D03*
Y292500D02*
D03*
Y295500D02*
D03*
Y298500D02*
D03*
Y301500D02*
D03*
Y304500D02*
D03*
Y307500D02*
D03*
X256500Y292500D02*
D03*
X259500D02*
D03*
X262500D02*
D03*
X265500D02*
D03*
X268500D02*
D03*
X257500Y289500D02*
D03*
X261000D02*
D03*
X264500D02*
D03*
X267500D02*
D03*
X270500D02*
D03*
X340900Y365500D02*
D03*
X319848Y365248D02*
D03*
X331000Y353400D02*
D03*
X316100Y338900D02*
D03*
X314900Y293900D02*
D03*
X239537Y360000D02*
D03*
X291200Y334900D02*
D03*
X278500Y328600D02*
D03*
X282200Y346500D02*
D03*
X290600Y352600D02*
D03*
X248300Y360000D02*
D03*
X296600Y324500D02*
D03*
X230000Y313500D02*
D03*
X316200Y321200D02*
D03*
X299900Y349700D02*
D03*
X270400Y328300D02*
D03*
X301600Y336300D02*
D03*
X281500Y317350D02*
D03*
X260745Y336655D02*
D03*
X244500Y340200D02*
D03*
X277000Y341300D02*
D03*
X257000Y349800D02*
D03*
X281700Y333900D02*
D03*
X338500Y326000D02*
D03*
X317400Y344600D02*
D03*
X310400Y352852D02*
D03*
X286700Y336100D02*
D03*
X327900Y312800D02*
D03*
X254700Y355500D02*
D03*
X267800Y360900D02*
D03*
X229500Y354000D02*
D03*
X293700Y343300D02*
D03*
X214748Y352100D02*
D03*
X226200D02*
D03*
X349000Y339600D02*
D03*
X302000Y363000D02*
D03*
X274000D02*
D03*
X337500Y295500D02*
D03*
Y283000D02*
D03*
M02*
