G04 Layer_Color=255*
%FSLAX25Y25*%
%MOIN*%
G70*
G01*
G75*
%ADD10R,0.03937X0.03937*%
%ADD11R,0.03937X0.03937*%
%ADD12R,0.03150X0.03543*%
%ADD13R,0.05512X0.05906*%
%ADD14R,0.03150X0.03150*%
%ADD15O,0.08661X0.02362*%
%ADD16R,0.09843X0.09843*%
%ADD17C,0.06000*%
%ADD18R,0.10236X0.07874*%
%ADD19R,0.09449X0.12992*%
%ADD20R,0.09449X0.03937*%
%ADD27C,0.07874*%
%ADD28C,0.06890*%
%ADD29R,0.07800X0.07800*%
%ADD30C,0.07800*%
%ADD31C,0.07284*%
%ADD32C,0.11929*%
D10*
X320000Y286752D02*
D03*
Y293248D02*
D03*
X297000Y343248D02*
D03*
Y336752D02*
D03*
X266900Y326448D02*
D03*
Y319952D02*
D03*
X286500Y347248D02*
D03*
Y340752D02*
D03*
X298000Y360748D02*
D03*
Y354252D02*
D03*
X307300Y365248D02*
D03*
Y358752D02*
D03*
X315800Y365248D02*
D03*
Y358752D02*
D03*
X275200Y327648D02*
D03*
Y321152D02*
D03*
X325400Y365248D02*
D03*
Y358752D02*
D03*
D11*
X241748Y277000D02*
D03*
X235252D02*
D03*
X294248Y327900D02*
D03*
X287752D02*
D03*
X255252Y346500D02*
D03*
X261748D02*
D03*
X275248Y335500D02*
D03*
X268752D02*
D03*
X248248Y346500D02*
D03*
X241752D02*
D03*
X339752Y313500D02*
D03*
X346248D02*
D03*
X208252Y362500D02*
D03*
X214748D02*
D03*
X234248Y346500D02*
D03*
X227752D02*
D03*
D12*
X226760Y357063D02*
D03*
X234240D02*
D03*
X230500Y364937D02*
D03*
X286500D02*
D03*
X290240Y357063D02*
D03*
X282760D02*
D03*
X274000Y353037D02*
D03*
X277740Y345163D02*
D03*
X270260D02*
D03*
X264000Y364937D02*
D03*
X267740Y357063D02*
D03*
X260260D02*
D03*
X247000Y364937D02*
D03*
X250740Y357063D02*
D03*
X243260D02*
D03*
D13*
X330112Y301900D02*
D03*
X319088D02*
D03*
D14*
X364953Y313500D02*
D03*
X359047D02*
D03*
X286750Y317900D02*
D03*
X293050D02*
D03*
X320250Y353300D02*
D03*
X326550D02*
D03*
D15*
X328749Y316600D02*
D03*
Y321600D02*
D03*
Y326600D02*
D03*
Y331600D02*
D03*
Y336600D02*
D03*
Y341600D02*
D03*
Y346600D02*
D03*
X309851Y316600D02*
D03*
Y321600D02*
D03*
Y326600D02*
D03*
Y331600D02*
D03*
Y336600D02*
D03*
Y341600D02*
D03*
Y346600D02*
D03*
D16*
X232300Y287248D02*
D03*
Y305752D02*
D03*
D17*
X334500Y365500D02*
D03*
X343500Y346500D02*
D03*
X353500Y326500D02*
D03*
Y336500D02*
D03*
Y346500D02*
D03*
Y356500D02*
D03*
D18*
X247851Y298800D02*
D03*
X266749D02*
D03*
D19*
X231683Y327600D02*
D03*
X282083Y298500D02*
D03*
D20*
X254517Y336655D02*
D03*
Y327600D02*
D03*
Y318545D02*
D03*
X304917Y289445D02*
D03*
Y298500D02*
D03*
Y307555D02*
D03*
D27*
X350157Y305138D02*
D03*
Y277539D02*
D03*
D28*
X360000Y300177D02*
D03*
Y282500D02*
D03*
D29*
X309400Y277600D02*
D03*
D30*
X299400D02*
D03*
X289400D02*
D03*
X279400D02*
D03*
X269400D02*
D03*
X259400D02*
D03*
D31*
X206500Y296000D02*
D03*
Y307811D02*
D03*
Y319622D02*
D03*
Y331433D02*
D03*
Y343244D02*
D03*
X218311Y296000D02*
D03*
Y307811D02*
D03*
Y319622D02*
D03*
Y331433D02*
D03*
Y343244D02*
D03*
D32*
X189492Y304504D02*
D03*
Y334740D02*
D03*
M02*
